<?xml version="1.0" standalone="no"?>
<!DOCTYPE svg PUBLIC "-//W3C//DTD SVG 1.1//EN" "http://www.w3.org/Graphics/SVG/1.1/DTD/svg11.dtd" >
<svg xmlns="http://www.w3.org/2000/svg">
<metadata>
Created by FontPrep 20130207 at Mon Nov  3 12:52:41 2014
 By Cos
2005 Albert-Jan Pool published by FSI FontShop International GmbH
</metadata>
<defs>
<font id="b9edf1dcc0e9c8738e7fc0ff91846d26" horiz-adv-x='1024' >
  <font-face 
    font-family="DINPro-LightItalic"
    font-weight="350"
    font-style="italic"
    font-stretch="normal"
    units-per-em="2048"
    panose-1="2 11 5 4 2 1 1 1 1 2"
    ascent="1565"
    descent="-483"
    x-height="987"
    cap-height="1458"
    bbox="-293 -483 2470 2306"
    underline-thickness="73"
    underline-position="-213"
    slope="-11.31"
    unicode-range="U+000D-FB02"
  />
<missing-glyph horiz-adv-x="1087" 
d="M164 74h760v1310h-760v-1310zM90 0v1458h907v-1458h-907z" />
    <glyph glyph-name=".notdef" horiz-adv-x="1087" 
d="M164 74h760v1310h-760v-1310zM90 0v1458h907v-1458h-907z" />
    <glyph glyph-name=".null" horiz-adv-x="0" 
 />
    <glyph glyph-name=".null" horiz-adv-x="0" 
 />
    <glyph glyph-name="nonmarkingreturn" horiz-adv-x="681" 
 />
    <glyph glyph-name="CR" unicode="&#xd;" horiz-adv-x="495" 
 />
    <glyph glyph-name="space" unicode=" " horiz-adv-x="495" 
 />
    <glyph glyph-name="exclam" unicode="!" horiz-adv-x="591" 
d="M322 137l-27 -137h-131l29 137h129zM567 1458l-219 -1075h-96l207 1075h108z" />
    <glyph glyph-name="quotedbl" unicode="&#x22;" horiz-adv-x="794" 
d="M803 1458l-66 -319h-121l64 319h123zM500 1458l-64 -319h-123l66 319h121z" />
    <glyph glyph-name="numbersign" unicode="#" horiz-adv-x="1251" 
d="M940 901h-344l-117 -326h344zM1251 987l-18 -86h-193l-116 -326h194l-16 -83h-207l-172 -492h-100l172 492h-344l-170 -492h-103l172 492h-186l16 83h199l117 326h-201l18 86h209l166 471h103l-166 -471h344l164 471h100l-164 -471h182z" />
    <glyph glyph-name="dollar" unicode="$" horiz-adv-x="1142" 
d="M575 793l111 585q-158 -14 -253 -120t-95 -242q-1 -174 237 -223zM911 412q0 133 -66 185q-67 52 -204 81l-113 -598q168 14 276 106q107 93 107 226zM1018 420q0 -190 -144 -307t-364 -125l-41 -221h-88l43 223q-121 8 -209 54t-168 144l82 72q127 -164 311 -178
l117 614q-156 29 -240 106t-84 219t104 282q52 69 147 115t218 52l35 181h88l-34 -183q196 -16 321 -161l-76 -66q-111 125 -262 137l-115 -606l50 -10q157 -33 233 -116t76 -226z" />
    <glyph glyph-name="percent" unicode="%" horiz-adv-x="1624" 
d="M709 1262q0 137 -142 137q-168 0 -209 -205l-41 -205q-6 -31 -6 -71q0 -137 142 -138q168 0 209 205l40 205q7 31 7 72zM795 1266q0 -41 -7 -72l-43 -215q-55 -272 -303 -272q-106 0 -161 56t-56 150q0 41 6 72l43 215q55 272 304 273q106 -1 162 -57t55 -150zM1372 1458
l-936 -1458h-90l936 1458h90zM1407 543q0 137 -141 137q-168 0 -209 -205l-41 -205q-6 -31 -6 -71q0 -137 141 -138q168 0 209 205l41 205q6 31 6 72zM1493 547q0 -41 -6 -72l-43 -215q-55 -272 -303 -272q-106 0 -162 56q-55 56 -55 151q0 41 6 71l43 215q55 272 303 273
q106 0 162 -56t55 -151z" />
    <glyph glyph-name="ampersand" unicode="&#x26;" horiz-adv-x="1454" 
d="M932 1218q0 160 -165 160q-79 0 -141 -68t-63 -177q0 -78 86 -220l90 56q96 59 145 113q48 55 48 136zM244 348q0 -128 72 -198t190 -70q212 0 407 176l-311 524q-190 -117 -274 -211t-84 -221zM457 1150q0 122 88 221t243 99q111 0 179 -70t67 -179q0 -178 -221 -314
l-117 -71l295 -500q117 135 152 362h104q-35 -268 -205 -448l154 -250h-127l-104 174q-74 -70 -194 -128q-119 -58 -275 -58t-257 92t-101 257t98 279q100 114 319 246q-98 166 -98 288z" />
    <glyph glyph-name="quotesingle" unicode="'" horiz-adv-x="491" 
d="M500 1458l-64 -319h-123l66 319h121z" />
    <glyph glyph-name="parenleft" unicode="(" horiz-adv-x="552" 
d="M215 82q0 -98 92 -207l-74 -68q-119 135 -118 256q0 59 16 140l223 1114q20 102 68 174t158 160l57 -76q-94 -79 -133 -137t-53 -133l-222 -1110q-14 -68 -14 -113z" />
    <glyph glyph-name="parenright" unicode=")" horiz-adv-x="552" 
d="M524 1395q0 -59 -16 -140l-223 -1114q-21 -102 -69 -174t-157 -160l-57 76q94 79 133 137t53 134l222 1110q14 68 14 112q0 98 -92 207l74 68q118 -135 118 -256z" />
    <glyph glyph-name="asterisk" unicode="*" horiz-adv-x="909" 
d="M913 1182l-262 -82l209 -176l-55 -66l-201 186l-49 -270l-86 17l59 268l-256 -94l-28 82l262 81l-209 177l55 65l201 -186l49 270l86 -16l-59 -269l256 95z" />
    <glyph glyph-name="plus" unicode="+" 
d="M915 584l-18 -90h-348l-74 -373h-92l74 373h-353l17 90h354l76 372h90l-74 -372h348z" />
    <glyph glyph-name="comma" unicode="," horiz-adv-x="501" 
d="M246 139l-56 -278l-159 -140l84 418h131z" />
    <glyph glyph-name="hyphen" unicode="-" horiz-adv-x="829" 
d="M688 586l-18 -92h-510l18 92h510z" />
    <glyph glyph-name="period" unicode="." horiz-adv-x="514" 
d="M260 152l-29 -152h-145l31 152h143z" />
    <glyph glyph-name="slash" unicode="/" horiz-adv-x="661" 
d="M885 1610l-905 -1762h-109l907 1762h107z" />
    <glyph glyph-name="zero" unicode="0" 
d="M891 1167q1 109 -59 163t-158 54t-196 -76q-97 -76 -128 -237l-133 -684q-12 -57 -12 -96q0 -109 59 -163t158 -54q100 0 196 77t127 236l134 684q12 57 12 96zM989 1165q0 -47 -10 -94l-135 -684q-49 -258 -239 -351q-93 -48 -206 -48q-114 0 -203 74t-90 231
q0 47 11 94l135 684q49 257 238 351q93 48 207 48t203 -74t89 -231z" />
    <glyph glyph-name="one" unicode="1" 
d="M803 1458l-293 -1458h-98l268 1337l-303 -233l24 129l301 225h101z" />
    <glyph glyph-name="two" unicode="2" 
d="M997 1147q0 -113 -44 -195t-128 -174l-639 -692h619l-17 -86h-745l18 86l703 766q72 78 102 144t31 166q0 102 -57 162t-168 60t-198 -70t-120 -220h-102q37 184 149 280q113 96 270 96t241 -84t85 -239z" />
    <glyph glyph-name="three" unicode="3" 
d="M965 1166q0 -146 -71 -260t-198 -156q168 -58 168 -260t-127 -354t-346 -150q-170 0 -252 86t-82 225q0 31 2 49h97q-2 -14 -2 -43q0 -103 61 -167t176 -64q160 0 266 121t107 290q0 219 -248 219h-29l17 86h31q147 0 239 112t92 269q0 97 -58 157t-168 60t-197 -74
t-119 -190h-105q49 174 164 262t264 88t234 -79q84 -81 84 -227z" />
    <glyph glyph-name="four" unicode="4" 
d="M901 332l-18 -86h-191l-49 -246h-98l49 246h-553l16 86l725 1126h109l-723 -1126h442l90 454h101l-90 -454h190z" />
    <glyph glyph-name="five" unicode="5" 
d="M598 958q156 0 229 -82q72 -82 72 -212q0 -84 -20 -187q-49 -266 -162 -379q-113 -112 -284 -112t-245 83t-73 207q0 25 2 46h98q-2 -16 -2 -46q0 -92 53 -148t152 -56q166 0 247 108t115 297q18 102 19 174q0 221 -199 221t-295 -159h-84l150 745h665l-18 -86h-578
l-104 -518q106 104 262 104z" />
    <glyph glyph-name="six" unicode="6" 
d="M756 437q0 131 -62 209t-166 79q-106 0 -181 -65q-136 -118 -136 -312q0 -118 61 -196t170 -78q143 0 229 115q85 117 85 248zM856 432q0 -178 -120 -311t-286 -133t-252 103q-85 103 -85 253q0 92 31 175q32 83 116 208l488 731h104l-449 -674q66 27 123 27
q156 0 243 -100q87 -101 87 -279z" />
    <glyph glyph-name="seven" unicode="7" 
d="M1092 1458l-17 -86l-751 -1372h-109l754 1372h-533l-43 -219h-98l59 305h738z" />
    <glyph glyph-name="eight" unicode="8" 
d="M567 799q150 -1 238 111t88 232t-58 182q-58 60 -163 60q-150 0 -238 -112t-88 -232t58 -180t163 -61zM784 457q0 119 -68 187t-177 67q-162 0 -261 -111t-100 -272q0 -119 69 -187t177 -67q164 0 262 110t98 273zM991 1162q1 -140 -69 -250t-193 -160q154 -106 154 -290
t-112 -325q-118 -149 -364 -149q-128 0 -228 86q-99 86 -99 250q0 317 299 440q-131 90 -131 246q0 200 123 330t307 130q135 0 224 -84t89 -224z" />
    <glyph glyph-name="nine" unicode="9" 
d="M883 1128q1 100 -61 178q-62 79 -171 78q-143 0 -228 -116t-85 -246q0 -131 61 -210t167 -79t180 65q75 66 106 148t31 182zM981 1114q0 -92 -32 -175t-115 -208l-488 -731h-104l448 674q-66 -27 -123 -27q-157 1 -243 101t-86 278t120 312q120 132 286 132
q167 0 252 -103t85 -253z" />
    <glyph glyph-name="colon" unicode=":" horiz-adv-x="567" 
d="M317 152l-30 -152h-144l31 152h143zM436 791l-30 -152h-144l31 152h143z" />
    <glyph glyph-name="semicolon" unicode=";" horiz-adv-x="567" 
d="M440 791l-30 -152h-144l31 152h143zM311 139l-55 -278l-160 -140l82 418h133z" />
    <glyph glyph-name="less" unicode="&#x3c;" 
d="M846 915l-21 -110l-530 -266l428 -267l-21 -98l-514 326l19 92z" />
    <glyph glyph-name="equal" unicode="=" 
d="M887 432l-19 -90h-792l18 90h793zM944 735l-18 -90h-793l19 90h792z" />
    <glyph glyph-name="greater" unicode="&#x3e;" 
d="M842 571l-19 -92l-639 -323l21 110l530 266l-428 267l21 98z" />
    <glyph glyph-name="question" unicode="?" horiz-adv-x="952" 
d="M524 137l-24 -137h-131l26 137h129zM692 1470q123 0 207 -78t84 -219q0 -140 -139 -309l-217 -256q-47 -57 -62 -125l-22 -102h-101l23 102q20 98 94 187l213 254q59 70 85 125t26 136q-1 81 -55 139t-158 58t-186 -70q-81 -70 -107 -194h-103q31 160 142 256t276 96z
" />
    <glyph glyph-name="at" unicode="@" horiz-adv-x="1355" 
d="M1135 700q0 84 -44 150t-155 65q-158 1 -234 -107t-120 -314q-27 -123 -27 -207t44 -150t155 -65q158 0 234 108t120 314q27 122 27 206zM1325 1137q0 -29 -12 -109l-205 -1028h-98l24 121q-109 -135 -293 -135q-137 0 -210 83t-72 214q0 86 24 211q53 264 148 374
q115 133 296 133t253 -143l37 186q12 61 12 125t-43 121q-63 88 -209 88h-252q-141 0 -235 -83t-130 -251l-145 -722q-14 -76 -14 -117q0 -82 86 -152l-72 -63q-61 55 -87 101q-26 47 -26 101t15 130l141 716q41 208 161 314t300 106h280q178 0 265 -115q61 -85 61 -206z
" />
    <glyph glyph-name="A" unicode="A" horiz-adv-x="1171" 
d="M874 446l-122 865l-463 -865h585zM1044 0h-108l-51 354h-643l-193 -354h-117l799 1458h94z" />
    <glyph glyph-name="B" unicode="B" horiz-adv-x="1308" 
d="M1139 1137q0 229 -265 229h-378l-115 -573h401q160 1 258 99t99 245zM1036 461q0 115 -69 176q-70 61 -189 61h-418l-120 -606h436q158 0 259 104t101 265zM1143 462q0 -204 -130 -333t-333 -129h-565l293 1458h477q94 0 164 -24q71 -24 107 -59q36 -34 62 -93t27 -163
q-1 -103 -65 -212t-217 -162q180 -79 180 -283z" />
    <glyph glyph-name="C" unicode="C" horiz-adv-x="1253" 
d="M799 1378q-178 0 -307 -135q-62 -66 -98 -169t-86 -352q-50 -250 -50 -366t91 -196t233 -80t253 94q110 94 156 234h109q-58 -195 -204 -308q-146 -112 -326 -112t-300 100q-119 100 -118 285q0 113 54 375t92 370t122 195q150 157 363 157t318 -114t107 -305h-106
q-2 155 -82 241t-221 86z" />
    <glyph glyph-name="D" unicode="D" horiz-adv-x="1318" 
d="M1151 1065q0 139 -77 220t-240 81h-338l-256 -1274h333q195 0 322 113q72 65 120 189t92 356t44 315zM1255 1064q0 -92 -47 -336t-100 -378t-150 -221q-143 -129 -370 -129h-473l293 1458h446q296 0 376 -230q24 -70 25 -164z" />
    <glyph glyph-name="E" unicode="E" horiz-adv-x="1167" 
d="M1247 1458l-18 -92h-733l-117 -584h629l-19 -92h-629l-120 -598h747l-18 -92h-854l293 1458h839z" />
    <glyph glyph-name="F" unicode="F" horiz-adv-x="1120" 
d="M1247 1458l-18 -92h-733l-121 -608h629l-19 -92h-631l-133 -666h-106l293 1458h839z" />
    <glyph glyph-name="G" unicode="G" horiz-adv-x="1269" 
d="M799 1378q-178 0 -307 -135q-62 -66 -98 -169t-86 -352q-50 -250 -50 -366t91 -196t225 -80t264 105q129 105 172 327l26 141h-370l16 92h477l-45 -239q-45 -231 -176 -363q-156 -156 -377 -155q-172 0 -291 100t-118 285q0 113 54 375t92 370t122 195q150 157 363 157
t318 -114t107 -305h-106q-2 155 -82 241t-221 86z" />
    <glyph glyph-name="H" unicode="H" horiz-adv-x="1359" 
d="M1341 1458l-292 -1458h-107l139 690h-721l-139 -690h-106l293 1458h106l-135 -676h721l135 676h106z" />
    <glyph glyph-name="I" unicode="I" horiz-adv-x="532" 
d="M514 1458l-293 -1458h-106l293 1458h106z" />
    <glyph glyph-name="J" unicode="J" horiz-adv-x="968" 
d="M279 -12q-190 0 -291 127l78 67q84 -102 226 -102t238 97t132 278l200 1003h107l-207 -1030q-90 -440 -483 -440z" />
    <glyph glyph-name="K" unicode="K" horiz-adv-x="1261" 
d="M1341 1458l-540 -559l336 -899h-115l-301 823l-420 -426l-80 -397h-106l293 1458h106l-180 -899l872 899h135z" />
    <glyph glyph-name="L" unicode="L" horiz-adv-x="1116" 
d="M979 92l-18 -92h-846l293 1458h106l-274 -1366h739z" />
    <glyph glyph-name="M" unicode="M" horiz-adv-x="1591" 
d="M1573 1458l-293 -1458h-106l243 1198l-614 -956h-107l-231 970l-242 -1212h-108l293 1458h104l258 -1096l698 1096h105z" />
    <glyph glyph-name="N" unicode="N" horiz-adv-x="1437" 
d="M1419 1458l-293 -1458h-106l-543 1276l-256 -1276h-106l293 1458h106l543 -1276l256 1276h106z" />
    <glyph glyph-name="O" unicode="O" horiz-adv-x="1267" 
d="M1096 1079q0 143 -86 221t-207 78q-182 0 -311 -135q-60 -63 -98 -169t-87 -353q-49 -248 -49 -342q0 -143 86 -221t207 -78q182 0 311 135q59 63 97 169q37 106 87 353q50 248 50 342zM1202 1085q0 -100 -53 -364t-93 -378t-120 -196q-154 -160 -389 -159
q-172 0 -284 103t-111 282q0 100 53 364t93 378t120 196q154 160 389 159q172 0 284 -103q111 -104 111 -282z" />
    <glyph glyph-name="P" unicode="P" horiz-adv-x="1226" 
d="M1153 1116q-1 110 -65 180t-203 70h-391l-129 -649h391q174 -1 286 109t111 290zM1260 1118q0 -217 -138 -355t-370 -138h-406l-125 -625h-106l293 1458h487q193 0 279 -100t86 -240z" />
    <glyph glyph-name="Q" unicode="Q" horiz-adv-x="1267" 
d="M1096 1079q0 143 -86 221t-207 78q-182 0 -311 -135q-60 -63 -98 -169t-87 -353q-49 -248 -49 -342q0 -143 86 -221t220 -78t247 88l-160 209l78 69l156 -204q49 60 83 164t81 342t47 331zM1202 1085q0 -100 -52 -360t-91 -373t-111 -192l129 -170l-78 -70l-129 170
q-139 -102 -317 -102t-290 103t-111 282q0 100 53 364t93 378t120 196q154 160 389 159q172 0 284 -103q111 -104 111 -282z" />
    <glyph glyph-name="R" unicode="R" horiz-adv-x="1284" 
d="M1151 1137q0 105 -65 167t-189 62h-401l-121 -596h407q168 0 269 110q100 110 100 257zM905 1458q186 0 269 -91t83 -245q1 -154 -107 -285q-108 -130 -294 -157l217 -680h-117l-213 678h-385l-137 -678h-106l293 1458h497z" />
    <glyph glyph-name="S" unicode="S" horiz-adv-x="1142" 
d="M1018 420q0 -199 -153 -316t-382 -116q-145 0 -246 47t-190 153l82 72q137 -180 365 -180q176 0 297 95t120 245q0 117 -58 170t-167 78l-143 32q-309 70 -310 320q0 150 112 292q57 70 159 114t235 44q232 1 373 -163l-76 -66q-59 70 -128 105t-179 34q-176 0 -284 -108
t-107 -256q0 -166 227 -219l144 -33q161 -37 235 -117t74 -227z" />
    <glyph glyph-name="T" unicode="T" horiz-adv-x="1048" 
d="M1184 1458l-19 -92h-411l-275 -1366h-106l274 1366h-414l19 92h932z" />
    <glyph glyph-name="U" unicode="U" horiz-adv-x="1339" 
d="M575 -12q-153 0 -273 97t-120 292q0 49 15 125l190 956h107l-195 -971q-10 -55 -10 -108q0 -121 75 -210q74 -89 228 -89t280 106t168 310l191 962h106l-196 -985q-45 -229 -196 -357t-370 -128z" />
    <glyph glyph-name="V" unicode="V" horiz-adv-x="1038" 
d="M1210 1458l-739 -1458h-90l-172 1458h108l144 -1270l633 1270h116z" />
    <glyph glyph-name="W" unicode="W" horiz-adv-x="1646" 
d="M1794 1458l-627 -1458h-106l-80 1270l-584 -1270h-106l-60 1458h109l43 -1268l575 1268h109l78 -1268l534 1268h115z" />
    <glyph glyph-name="X" unicode="X" horiz-adv-x="1038" 
d="M1159 1458l-536 -719l288 -739h-116l-248 655l-488 -655h-125l572 760l-264 698h116l224 -616l450 616h127z" />
    <glyph glyph-name="Y" unicode="Y" horiz-adv-x="960" 
d="M1135 1458l-576 -860l-121 -598h-106l123 608l-242 850h109l206 -741l488 741h119z" />
    <glyph glyph-name="Z" unicode="Z" horiz-adv-x="1093" 
d="M1151 1458l-18 -92l-977 -1274h735l-19 -92h-847l22 111l967 1255h-701l19 92h819z" />
    <glyph glyph-name="bracketleft" unicode="[" horiz-adv-x="565" 
d="M692 1610l-18 -86h-180l-318 -1590h197l-17 -86h-297l353 1762h280z" />
    <glyph glyph-name="backslash" unicode="\" horiz-adv-x="651" 
d="M522 -152h-96l-203 1762h96z" />
    <glyph glyph-name="bracketright" unicode="]" horiz-adv-x="565" 
d="M598 1610l-350 -1762h-281l17 80h186l319 1602h-204l16 80h297z" />
    <glyph glyph-name="asciicircum" unicode="^" 
d="M930 864h-94l-156 504l-356 -504h-105l428 606h94z" />
    <glyph glyph-name="underscore" unicode="_" 
d="M854 -250l-14 -74h-1000l15 74h999z" />
    <glyph glyph-name="grave" unicode="`" horiz-adv-x="1017" 
d="M702 1196h-106l-145 297h124z" />
    <glyph glyph-name="a" unicode="a" horiz-adv-x="1019" 
d="M451 473q-131 1 -210 -65t-79 -189q0 -73 53 -109t185 -36t223 86q68 68 88 174l26 139h-286zM885 776q0 -50 -8 -100l-136 -676h-98l23 102q-115 -115 -301 -114q-303 0 -304 231q-1 139 97 237t282 97h314l24 123q8 41 8 74q0 80 -58 120t-158 41t-166 -29
q-65 -30 -128 -100l-63 70q70 78 152 113t200 34q218 -1 289 -121q31 -52 31 -102z" />
    <glyph glyph-name="b" unicode="b" horiz-adv-x="1050" 
d="M840 676q0 238 -203 237q-154 -1 -233 -115t-115 -304q-23 -117 -23 -183q0 -238 203 -237q155 0 233 114t115 306q23 116 23 182zM938 676q0 -78 -20 -182q-55 -282 -167 -394t-289 -112t-243 149l-29 -137h-100l291 1458h100l-119 -596q102 137 287 137q289 1 289 -323
z" />
    <glyph glyph-name="c" unicode="c" horiz-adv-x="960" 
d="M614 913q-140 1 -245 -113q-106 -114 -142 -306q-16 -88 -16 -156q0 -133 72 -199t174 -65q145 0 268 129l61 -72q-141 -143 -323 -143t-266 102t-84 254q0 78 14 150q43 231 172 368q129 138 319 138t293 -152l-73 -60q-84 125 -224 125z" />
    <glyph glyph-name="d" unicode="d" horiz-adv-x="1050" 
d="M786 680q0 233 -202 233q-154 -1 -233 -115t-115 -304q-23 -117 -23 -187q0 -233 203 -233q154 0 232 114t108 268t30 224zM403 -12q-289 0 -288 323q0 80 20 183q55 281 167 393t288 112t244 -149l122 608h101l-291 -1458h-100l26 127q-115 -139 -289 -139z" />
    <glyph glyph-name="e" unicode="e" horiz-adv-x="1021" 
d="M803 668q-1 123 -61 184t-150 61q-260 0 -352 -360h553q10 62 10 115zM901 668q0 -76 -22 -195h-654q-14 -82 -14 -145q0 -115 57 -184t174 -68q160 0 295 123l68 -68q-156 -143 -367 -143q-154 0 -240 89t-85 249q0 235 106 441q53 103 151 168t236 65t216 -96
q78 -95 79 -236z" />
    <glyph glyph-name="f" unicode="f" horiz-adv-x="591" 
d="M639 1372q-145 0 -178 -160l-45 -225h217l-15 -74h-217l-182 -913h-100l182 913h-127l14 74h127l45 225q49 246 271 246h92l-18 -86h-66z" />
    <glyph glyph-name="g" unicode="g" horiz-adv-x="1050" 
d="M786 682q0 231 -202 231q-270 0 -351 -419q-23 -117 -22 -189q0 -231 203 -231q270 0 350 420q22 116 22 188zM397 -12q-141 0 -213 83t-71 232q0 70 20 191q51 279 174 401q104 104 268 104q193 0 259 -149l26 137h101l-207 -1036q-27 -135 -82 -227t-126 -134
q-121 -73 -249 -73q-182 0 -291 131l74 63q84 -109 213 -109t226 83q97 82 136 266l37 174q-106 -137 -295 -137z" />
    <glyph glyph-name="h" unicode="h" horiz-adv-x="1087" 
d="M948 719q0 -43 -10 -94l-125 -625h-100l123 612q12 61 12 105q0 96 -56 146t-162 50t-196 -76q-91 -76 -123 -231l-121 -606h-100l291 1458h100l-116 -588q109 129 299 129q128 -1 206 -77t78 -203z" />
    <glyph glyph-name="i" unicode="i" horiz-adv-x="477" 
d="M485 1442l-24 -123h-123l24 123h123zM387 987l-197 -987h-100l197 987h100z" />
    <glyph glyph-name="j" unicode="j" horiz-adv-x="477" 
d="M485 1442l-24 -123h-123l24 123h123zM-131 -471h-84l16 86h62q78 0 122 41t62 131l240 1200h100l-242 -1212q-51 -246 -276 -246z" />
    <glyph glyph-name="k" unicode="k" horiz-adv-x="1032" 
d="M983 987l-385 -373l266 -614h-114l-232 549l-270 -260l-58 -289h-100l291 1458h100l-202 -1020l569 549h135z" />
    <glyph glyph-name="l" unicode="l" horiz-adv-x="563" 
d="M352 86h76l-18 -86h-93q-72 0 -130 39t-58 137q0 45 8 80l242 1202h100l-241 -1202q-10 -55 -11 -76q0 -94 125 -94z" />
    <glyph glyph-name="m" unicode="m" horiz-adv-x="1710" 
d="M1571 719q0 -43 -10 -94l-125 -625h-101l123 612q12 70 12 105q0 96 -56 146t-161 50t-196 -76t-123 -231l-121 -606h-100l123 612q12 70 12 105q0 96 -56 146t-162 50t-196 -76q-91 -76 -123 -231l-121 -606h-100l197 987h100l-22 -117q109 129 301 129t264 -180
q139 180 362 180q125 -1 202 -77t77 -203z" />
    <glyph glyph-name="n" unicode="n" horiz-adv-x="1087" 
d="M948 719q0 -43 -10 -94l-125 -625h-100l123 612q12 70 12 105q0 96 -56 146t-162 50t-196 -76q-91 -76 -123 -231l-121 -606h-100l197 987h100l-22 -117q109 129 305 129q126 -1 202 -77t76 -203z" />
    <glyph glyph-name="o" unicode="o" horiz-adv-x="1017" 
d="M807 672q-1 123 -63 182t-170 59t-202 -95q-95 -95 -141 -324q-20 -109 -20 -179q0 -123 62 -182t170 -59t203 95t140 325q21 108 21 178zM905 676q0 -86 -18 -182q-55 -285 -191 -402q-119 -104 -261 -104t-232 79t-90 244q0 86 18 183q55 285 191 401q119 104 261 104
q142 -1 232 -79t90 -244z" />
    <glyph glyph-name="p" unicode="p" horiz-adv-x="1050" 
d="M840 680q0 233 -203 233q-154 -1 -233 -115t-115 -304q-23 -117 -23 -187q0 -233 203 -233q155 0 233 114t115 306q23 116 23 186zM938 676q0 -80 -20 -182q-55 -282 -168 -394t-288 -112t-243 149l-123 -608h-100l291 1458h100l-27 -127q115 139 289 139q289 1 289 -323
z" />
    <glyph glyph-name="q" unicode="q" horiz-adv-x="1050" 
d="M784 676q0 238 -202 237q-154 -1 -233 -115t-116 -304q-23 -117 -22 -183q0 -238 203 -237q154 0 232 114t108 268t30 220zM401 -12q-289 0 -288 323q0 78 20 183q55 283 167 394t288 111q177 0 243 -149l29 137h101l-291 -1458h-101l119 596q-102 -137 -287 -137z" />
    <glyph glyph-name="r" unicode="r" horiz-adv-x="792" 
d="M649 999q135 0 215 -92l-76 -67q-56 74 -164 74t-198 -88q-90 -87 -115 -218l-121 -608h-100l197 987h100l-27 -131q100 143 289 143z" />
    <glyph glyph-name="s" unicode="s" horiz-adv-x="960" 
d="M556 915q-140 -1 -214 -71t-74 -162q0 -106 170 -129l133 -18q131 -17 187 -71t55 -165q0 -111 -94 -203q-115 -108 -342 -108t-352 139l75 66q100 -119 293 -119q154 0 237 70t83 151q0 80 -39 111t-119 40l-135 19q-250 35 -250 211q0 127 88 215q109 109 299 109
t311 -105l-73 -64q-99 84 -239 84z" />
    <glyph glyph-name="t" unicode="t" horiz-adv-x="638" 
d="M258 180q0 -94 125 -94h76l-19 -86h-92q-72 0 -130 39t-58 137q0 45 8 80l131 657h-133l14 74h133l64 316h100l-63 -316h207l-15 -74h-207l-131 -657q-10 -55 -10 -76z" />
    <glyph glyph-name="u" unicode="u" horiz-adv-x="1087" 
d="M424 -12q-127 0 -206 77t-79 203q0 43 11 94l124 625h101l-123 -612q-12 -61 -12 -105q0 -96 56 -146t164 -50t197 80q87 73 119 227l121 606h100l-196 -987h-101l23 117q-109 -129 -299 -129z" />
    <glyph glyph-name="v" unicode="v" horiz-adv-x="835" 
d="M905 987l-534 -987h-101l-145 987h102l115 -862l449 862h114z" />
    <glyph glyph-name="w" unicode="w" horiz-adv-x="1384" 
d="M1450 987l-483 -987h-103l-102 823l-426 -823h-103l-106 987h104l74 -864l438 864h91l102 -864l407 864h107z" />
    <glyph glyph-name="x" unicode="x" horiz-adv-x="903" 
d="M905 987l-393 -487l225 -500h-116l-181 428l-336 -428h-122l411 514l-215 473h117l172 -403l315 403h123z" />
    <glyph glyph-name="y" unicode="y" horiz-adv-x="835" 
d="M-47 -446h-51l18 86h39q78 0 115 28t82 115l114 219l-145 985h102l115 -862l449 862h112l-674 -1257q-41 -78 -95 -127t-181 -49z" />
    <glyph glyph-name="z" unicode="z" horiz-adv-x="884" 
d="M872 987l-18 -92l-717 -809h570l-17 -86h-680l19 92l716 809h-538l18 86h647z" />
    <glyph glyph-name="braceleft" unicode="{" horiz-adv-x="614" 
d="M680 1524q-82 0 -109 -31t-45 -119l-88 -440q-18 -92 -55 -139t-104 -70q82 -47 81 -141q0 -35 -6 -70l-84 -420q-10 -47 -10 -86t24 -56t83 -18h47l-17 -86h-35q-116 0 -158 44t-42 116q0 23 12 96l84 418q6 27 6 60q0 104 -104 104h-25l19 86h34q48 0 90 36t62 128
l84 424q18 92 35 132q16 40 51 71q53 47 180 47h43l-18 -86h-35z" />
    <glyph glyph-name="bar" unicode="|" horiz-adv-x="616" 
d="M582 1610l-353 -1762h-98l350 1762h101z" />
    <glyph glyph-name="braceright" unicode="}" horiz-adv-x="614" 
d="M520 686q-49 0 -90 -36t-61 -128l-84 -424q-19 -92 -35 -132t-51 -70q-53 -47 -181 -48h-43l19 86h35q83 0 109 31t44 119l88 440q18 92 56 140t104 69q-82 47 -82 141q0 37 6 70l84 420q25 115 -13 142q-24 17 -83 18h-47l16 86h35q117 0 159 -44t42 -116q0 -23 -12 -96
l-84 -418q-6 -29 -7 -59q0 -104 105 -105h24l-18 -86h-35z" />
    <glyph glyph-name="asciitilde" unicode="~" 
d="M678 440q-49 0 -88 12t-118 56q-79 43 -126 43q-47 -1 -84 -19t-106 -73l-52 67q139 121 238 121q49 0 88 -12t118 -55t126 -43t84 18t106 74l51 -68q-139 -121 -237 -121z" />
    <glyph glyph-name="uni00A0" unicode="&#xa0;" horiz-adv-x="495" 
 />
    <glyph glyph-name="exclamdown" unicode="&#xa1;" horiz-adv-x="591" 
d="M426 987l-29 -137h-129l27 137h131zM338 604l-207 -1075h-108l219 1075h96z" />
    <glyph glyph-name="cent" unicode="&#xa2;" horiz-adv-x="968" 
d="M262 601q0 -122 53 -185t136 -80l155 827q-102 -18 -182 -102t-121 -211t-41 -249zM963 1104l-74 -60q-80 119 -199 125l-155 -837q131 8 241 127l62 -72q-137 -139 -320 -143l-47 -244h-84l47 250q-139 23 -205 119q-65 97 -65 239t47 279t155 242t257 122l39 207h83
l-38 -203q158 -10 256 -151z" />
    <glyph glyph-name="sterling" unicode="&#xa3;" horiz-adv-x="1048" 
d="M804 1378q-144 0 -242 -94q-97 -94 -132 -272l-47 -236h311l-14 -74h-311l-121 -610h620l-18 -92h-727l141 702h-125l15 74h125l51 252q90 442 493 442q175 0 279 -127l-76 -65q-78 100 -222 100z" />
    <glyph glyph-name="currency" unicode="&#xa4;" horiz-adv-x="1347" 
d="M1024 543q0 145 -102 247t-248 103q-146 0 -248 -102q-102 -101 -102 -247t102 -248t248 -103q146 0 248 102q102 103 102 248zM674 983q162 0 280 -100l152 151l59 -59l-151 -152q100 -119 100 -281t-100 -280l151 -151l-59 -60l-152 152q-118 -101 -280 -101t-281 101
l-151 -152l-60 60l152 151q-100 119 -101 281q0 162 101 280l-152 152l60 59l151 -151q119 100 281 100z" />
    <glyph glyph-name="yen" unicode="&#xa5;" horiz-adv-x="960" 
d="M1135 1458l-451 -672h211l-14 -73h-246l-76 -113l-20 -104h301l-15 -74h-301l-84 -422h-106l84 422h-299l14 74h299l23 112l-31 105h-250l14 73h215l-190 672h109l206 -741l488 741h119z" />
    <glyph glyph-name="brokenbar" unicode="&#xa6;" horiz-adv-x="638" 
d="M373 565l-144 -717h-98l141 717h101zM582 1610l-144 -717h-100l143 717h101z" />
    <glyph glyph-name="section" unicode="&#xa7;" horiz-adv-x="1101" 
d="M821 590q0 102 -60 158t-163 55q-102 0 -188 -80t-115 -217q-8 -43 -8 -84q1 -109 65 -161t144 -52q116 0 202 80t115 217q8 43 8 84zM1028 1204q0 -27 -2 -37h-102q10 97 -48 155t-169 58t-192 -76t-81 -205q0 -130 144 -175l147 -47q199 -66 199 -283q0 -147 -72 -267
t-219 -180q69 -29 109 -91t40 -146q0 -180 -116 -287q-117 -106 -297 -106q-137 0 -222 72q-84 73 -84 202q0 25 3 37h104q-10 -104 45 -162t173 -57q118 0 203 77t85 217t-146 185l-147 47q-78 25 -138 91q-61 66 -61 203q0 136 72 256t219 179q-69 36 -107 98t-38 138
q0 174 119 272t271 98t230 -83t78 -183z" />
    <glyph glyph-name="dieresis" unicode="&#xa8;" horiz-adv-x="1017" 
d="M946 1370l-31 -153h-112l31 153h112zM543 1370l-31 -153h-113l31 153h113z" />
    <glyph glyph-name="copyright" unicode="&#xa9;" horiz-adv-x="1738" 
d="M902 328q-154 0 -242 113q-87 114 -87 288t87 289t258 115q78 0 134 -24t119 -81l-57 -57q-92 82 -196 82q-138 0 -198 -90t-61 -234q0 -322 259 -321q106 0 196 79l57 -57q-115 -102 -269 -102zM1520 729q0 252 -180 435q-180 184 -431 184q-250 0 -430 -184t-180 -435
q0 -252 180 -435t430 -183q251 0 431 183t180 435zM1614 729q0 -291 -207 -498t-498 -207t-497 208q-206 206 -207 497q0 291 207 498q208 207 498 207t497 -207t207 -498z" />
    <glyph glyph-name="ordfeminine" unicode="&#xaa;" horiz-adv-x="870" 
d="M496 1042q-102 0 -164 -53t-62 -145q0 -111 176 -111q209 0 252 199l23 110h-225zM842 1266q0 -33 -6 -60l-107 -536h-80l15 80q-76 -90 -236 -91q-242 0 -242 185q0 110 78 188t223 78h246l19 96q8 47 8 60q0 123 -170 123q-82 0 -132 -22t-100 -75l-55 60
q111 113 285 112q254 1 254 -198z" />
    <glyph glyph-name="guillemotleft" unicode="&#xab;" horiz-adv-x="1026" 
d="M956 944l-28 -141l-307 -268l204 -269l-24 -125l-307 402zM553 944l-29 -141l-305 -268l203 -269l-25 -125l-305 402z" />
    <glyph glyph-name="logicalnot" unicode="&#xac;" 
d="M915 588l-73 -369h-90l55 279h-703l19 90h792z" />
    <glyph glyph-name="uni00AD" unicode="&#xad;" horiz-adv-x="829" 
d="M688 586l-18 -92h-510l18 92h510z" />
    <glyph glyph-name="registered" unicode="&#xae;" horiz-adv-x="1738" 
d="M928 743q72 1 117 43t45 106t-46 106t-116 42h-154v-297h154zM774 666v-326h-86v780h248q98 0 170 -66t72 -156q0 -91 -48 -147t-129 -79l197 -332h-102l-193 326h-129zM1522 729q0 252 -180 436q-180 185 -433 185q-252 0 -432 -184t-180 -437q0 -252 180 -436t432 -184
q253 0 433 184t180 436zM1614 729q0 -291 -207 -498t-498 -207t-497 208q-206 206 -207 497q0 291 207 498q208 207 498 207t497 -207t207 -498z" />
    <glyph glyph-name="macron" unicode="&#xaf;" horiz-adv-x="972" 
d="M971 1337l-19 -88h-575l18 88h576z" />
    <glyph glyph-name="degree" unicode="&#xb0;" horiz-adv-x="929" 
d="M821 1151q0 100 -66 168q-67 67 -165 67t-163 -66t-65 -168q0 -101 66 -169t164 -68t164 68q65 68 65 168zM909 1151q0 -133 -92 -225t-225 -92t-225 92t-93 225q0 133 92 225t226 92q133 0 225 -92t92 -225z" />
    <glyph glyph-name="plusminus" unicode="&#xb1;" 
d="M819 90l-18 -90h-795l19 90h794zM924 639l-19 -90h-348l-74 -377h-92l76 377h-354l18 90h354l74 373h92l-76 -373h349z" />
    <glyph glyph-name="twosuperior" unicode="&#xb2;" horiz-adv-x="612" 
d="M688 1272q0 -123 -119 -246l-350 -364h359l-17 -78h-465l17 78l395 415q92 94 92 191q0 121 -121 121q-143 0 -174 -156h-86q43 233 266 233q99 0 151 -55t52 -139z" />
    <glyph glyph-name="threesuperior" unicode="&#xb3;" horiz-adv-x="612" 
d="M670 1266q0 -180 -154 -238q49 -24 71 -64t21 -114q0 -113 -72 -195t-200 -82q-127 -1 -179 59t-53 130q0 33 2 43h89q-9 -74 27 -114t110 -40t132 50q58 51 58 135t-30 120t-107 35h-16l16 76h14q94 0 140 56q45 55 45 131t-34 106t-85 29q-141 0 -180 -148h-86
q55 225 268 225q91 0 147 -54t56 -146z" />
    <glyph glyph-name="acute" unicode="&#xb4;" horiz-adv-x="972" 
d="M932 1493l-260 -297h-119l246 297h133z" />
    <glyph glyph-name="mu" unicode="&#xb5;" horiz-adv-x="1087" 
d="M416 -12q-145 0 -223 102l-113 -561h-98l290 1458h101l-123 -612q-12 -70 -12 -105q0 -96 56 -146t162 -50t196 77t122 230l121 606h100l-196 -987h-101l23 117q-109 -129 -305 -129z" />
    <glyph glyph-name="paragraph" unicode="&#xb6;" horiz-adv-x="1126" 
d="M201 1044q0 168 125 291t350 123h430l-385 -1929h-100l366 1837h-237l-369 -1837h-98l235 1184q-147 6 -232 104t-85 227z" />
    <glyph glyph-name="periodcentered" unicode="&#xb7;" horiz-adv-x="514" 
d="M352 612l-28 -143h-144l29 143h143z" />
    <glyph glyph-name="cedilla" unicode="&#xb8;" horiz-adv-x="1017" 
d="M475 -139l-182 -303h-125l199 303h108z" />
    <glyph glyph-name="onesuperior" unicode="&#xb9;" horiz-adv-x="612" 
d="M582 1458l-176 -874h-84l153 770l-188 -144l20 109l189 139h86z" />
    <glyph glyph-name="ordmasculine" unicode="&#xba;" horiz-adv-x="878" 
d="M778 1204q0 100 -50 144t-135 43q-85 0 -160 -74t-109 -254q-16 -88 -17 -141q0 -100 50 -144t135 -43q85 0 160 74t110 254q16 88 16 141zM858 1210q0 -60 -14 -147q-44 -225 -146 -313t-220 -88t-183 65q-66 65 -68 195q0 55 15 141q43 225 145 313t219 88t184 -65
q68 -65 68 -189z" />
    <glyph glyph-name="guillemotright" unicode="&#xbb;" horiz-adv-x="1026" 
d="M954 543l-460 -402l28 142l305 268l-202 268l24 125zM553 543l-463 -402l29 142l307 268l-205 268l25 125z" />
    <glyph glyph-name="onequarter" unicode="&#xbc;" horiz-adv-x="1572" 
d="M1477 217l-15 -78h-104l-27 -139h-86l29 139h-336l16 78l424 657h97l-426 -657h239l49 248h86l-49 -248h103zM1348 1458l-938 -1458h-91l938 1458h91zM582 1458l-176 -874h-84l153 770l-188 -144l20 109l189 139h86z" />
    <glyph glyph-name="onehalf" unicode="&#xbd;" horiz-adv-x="1572" 
d="M1534 688q0 -121 -121 -246l-350 -364h358l-16 -78h-465l16 78l396 416q92 96 92 190q0 121 -121 121q-143 0 -174 -156h-86q43 233 266 234q101 1 153 -55t52 -140zM1348 1458l-938 -1458h-91l938 1458h91zM582 1458l-176 -874h-84l153 770l-188 -144l20 109l189 139h86
z" />
    <glyph glyph-name="threequarters" unicode="&#xbe;" horiz-adv-x="1572" 
d="M1477 217l-15 -78h-104l-27 -139h-86l29 139h-336l16 78l424 657h97l-426 -657h239l49 248h86l-49 -248h103zM1348 1458l-938 -1458h-91l938 1458h91zM670 1266q0 -178 -154 -236q49 -24 71 -64t21 -114q0 -113 -72 -195t-200 -82q-127 -1 -179 59t-53 130q0 33 2 43h89
q-9 -74 27 -114t110 -40t132 50q58 51 58 135t-30 120t-107 35h-16l16 76h14q94 0 140 55q45 54 45 130t-34 106t-85 29q-141 0 -180 -148h-86q55 225 268 225q91 0 147 -54t56 -146z" />
    <glyph glyph-name="questiondown" unicode="&#xbf;" horiz-adv-x="952" 
d="M584 987l-27 -137h-129l25 137h131zM260 -483q-123 0 -207 79q-84 78 -84 218t140 309l217 256q47 57 61 125l21 102h100l-21 -102q-20 -98 -94 -187l-213 -254q-59 -71 -85 -125q-25 -54 -25 -135t54 -139t158 -59q104 1 186 71q81 70 107 193h103q-32 -160 -142 -256
t-276 -96z" />
    <glyph glyph-name="Agrave" unicode="&#xc0;" horiz-adv-x="1171" 
d="M834 1585h-107l-145 297h125zM874 446l-122 865l-463 -865h585zM1044 0h-108l-51 354h-643l-193 -354h-117l799 1458h94z" />
    <glyph glyph-name="Aacute" unicode="&#xc1;" horiz-adv-x="1171" 
d="M1063 1882l-260 -297h-119l246 297h133zM874 446l-122 865l-463 -865h585zM1044 0h-108l-51 354h-643l-193 -354h-117l799 1458h94z" />
    <glyph glyph-name="Acircumflex" unicode="&#xc2;" horiz-adv-x="1171" 
d="M1069 1585h-104l-138 227l-229 -227h-117l299 301h107zM874 446l-122 865l-463 -865h585zM1044 0h-108l-51 354h-643l-193 -354h-117l799 1458h94z" />
    <glyph glyph-name="Atilde" unicode="&#xc3;" horiz-adv-x="1171" 
d="M920 1616q-78 0 -138 46q-59 46 -109 46t-128 -72l-49 62q100 94 178 94t137 -46t109 -46t129 72l49 -62q-100 -94 -178 -94zM874 446l-122 865l-463 -865h585zM1044 0h-108l-51 354h-643l-193 -354h-117l799 1458h94z" />
    <glyph glyph-name="Adieresis" unicode="&#xc4;" horiz-adv-x="1171" 
d="M1077 1759l-30 -153h-113l31 153h112zM674 1759l-31 -153h-113l31 153h113zM874 446l-122 865l-463 -865h585zM1044 0h-108l-51 354h-643l-193 -354h-117l799 1458h94z" />
    <glyph glyph-name="Aring" unicode="&#xc5;" horiz-adv-x="1171" 
d="M950 1755q0 61 -46 107t-107 45q-61 0 -107 -45q-46 -44 -47 -106q0 -62 46 -108q45 -46 107 -46t108 46t46 107zM1030 1755q0 -96 -68 -166q-68 -69 -165 -69q-96 0 -165 70t-69 165q0 96 69 165t165 69q97 0 165 -69t68 -165zM874 446l-122 865l-463 -865h585zM1044 0
h-108l-51 354h-643l-193 -354h-117l799 1458h94z" />
    <glyph glyph-name="AE" unicode="&#xc6;" horiz-adv-x="1763" 
d="M987 1366l-635 -913h451zM1843 1458l-18 -92h-733l-119 -590h626l-18 -92h-627l-118 -592h743l-18 -92h-848l71 360h-491l-250 -360h-123l1024 1458h899z" />
    <glyph glyph-name="Ccedilla" unicode="&#xc7;" horiz-adv-x="1253" 
d="M594 -139l-182 -303h-125l198 303h109zM799 1378q-178 0 -307 -135q-62 -66 -98 -169t-86 -352q-50 -250 -50 -366t91 -196t233 -80t253 94q110 94 156 234h109q-58 -195 -204 -308q-146 -112 -326 -112t-300 100q-119 100 -118 285q0 113 54 375t92 370t122 195
q150 157 363 157t318 -114t107 -305h-106q-2 155 -82 241t-221 86z" />
    <glyph glyph-name="Egrave" unicode="&#xc8;" horiz-adv-x="1167" 
d="M883 1585h-107l-145 297h125zM1247 1458l-18 -92h-733l-117 -584h629l-19 -92h-629l-120 -598h747l-18 -92h-854l293 1458h839z" />
    <glyph glyph-name="Eacute" unicode="&#xc9;" horiz-adv-x="1167" 
d="M1112 1882l-260 -297h-119l246 297h133zM1247 1458l-18 -92h-733l-117 -584h629l-19 -92h-629l-120 -598h747l-18 -92h-854l293 1458h839z" />
    <glyph glyph-name="Ecircumflex" unicode="&#xca;" horiz-adv-x="1167" 
d="M1118 1585h-104l-137 227l-230 -227h-117l299 301h107zM1247 1458l-18 -92h-733l-117 -584h629l-19 -92h-629l-120 -598h747l-18 -92h-854l293 1458h839z" />
    <glyph glyph-name="Edieresis" unicode="&#xcb;" horiz-adv-x="1167" 
d="M1126 1759l-30 -153h-113l31 153h112zM723 1759l-31 -153h-112l30 153h113zM1247 1458l-18 -92h-733l-117 -584h629l-19 -92h-629l-120 -598h747l-18 -92h-854l293 1458h839z" />
    <glyph glyph-name="Igrave" unicode="&#xcc;" horiz-adv-x="532" 
d="M559 1585h-106l-146 297h125zM514 1458l-293 -1458h-106l293 1458h106z" />
    <glyph glyph-name="Iacute" unicode="&#xcd;" horiz-adv-x="532" 
d="M788 1882l-260 -297h-118l245 297h133zM514 1458l-293 -1458h-106l293 1458h106z" />
    <glyph glyph-name="Icircumflex" unicode="&#xce;" horiz-adv-x="532" 
d="M754 1585h-105l-137 227l-229 -227h-117l299 301h106zM514 1458l-293 -1458h-106l293 1458h106z" />
    <glyph glyph-name="Idieresis" unicode="&#xcf;" horiz-adv-x="532" 
d="M762 1759l-31 -153h-113l31 153h113zM358 1759l-30 -153h-113l31 153h112zM514 1458l-293 -1458h-106l293 1458h106z" />
    <glyph glyph-name="Eth" unicode="&#xd0;" horiz-adv-x="1341" 
d="M1171 1065q0 139 -76 220q-77 81 -241 81h-338l-119 -590h346l-16 -82h-346l-121 -602h334q195 0 321 113q72 65 120 189t92 356t44 315zM874 1458q298 0 378 -230q24 -70 24 -164q0 -92 -47 -336t-101 -378t-149 -221q-143 -129 -371 -129h-473l139 694h-155l16 82h156
l137 682h446z" />
    <glyph glyph-name="Ntilde" unicode="&#xd1;" horiz-adv-x="1437" 
d="M1075 1616q-78 0 -137 46q-60 46 -110 46t-128 -72l-49 62q101 94 179 94t137 -46t109 -46t128 72l49 -62q-100 -94 -178 -94zM1419 1458l-293 -1458h-106l-543 1276l-256 -1276h-106l293 1458h106l543 -1276l256 1276h106z" />
    <glyph glyph-name="Ograve" unicode="&#xd2;" horiz-adv-x="1267" 
d="M883 1585h-107l-145 297h125zM1096 1079q0 143 -86 221t-207 78q-182 0 -311 -135q-60 -63 -98 -169t-87 -353q-49 -248 -49 -342q0 -143 86 -221t207 -78q182 0 311 135q59 63 97 169q37 106 87 353q50 248 50 342zM1202 1085q0 -100 -53 -364t-93 -378t-120 -196
q-154 -160 -389 -159q-172 0 -284 103t-111 282q0 100 53 364t93 378t120 196q154 160 389 159q172 0 284 -103q111 -104 111 -282z" />
    <glyph glyph-name="Oacute" unicode="&#xd3;" horiz-adv-x="1267" 
d="M1112 1882l-260 -297h-119l246 297h133zM1096 1079q0 143 -86 221t-207 78q-182 0 -311 -135q-60 -63 -98 -169t-87 -353q-49 -248 -49 -342q0 -143 86 -221t207 -78q182 0 311 135q59 63 97 169q37 106 87 353q50 248 50 342zM1202 1085q0 -100 -53 -364t-93 -378
t-120 -196q-154 -160 -389 -159q-172 0 -284 103t-111 282q0 100 53 364t93 378t120 196q154 160 389 159q172 0 284 -103q111 -104 111 -282z" />
    <glyph glyph-name="Ocircumflex" unicode="&#xd4;" horiz-adv-x="1267" 
d="M1118 1585h-104l-137 227l-230 -227h-117l299 301h107zM1096 1079q0 143 -86 221t-207 78q-182 0 -311 -135q-60 -63 -98 -169t-87 -353q-49 -248 -49 -342q0 -143 86 -221t207 -78q182 0 311 135q59 63 97 169q37 106 87 353q50 248 50 342zM1202 1085q0 -100 -53 -364
t-93 -378t-120 -196q-154 -160 -389 -159q-172 0 -284 103t-111 282q0 100 53 364t93 378t120 196q154 160 389 159q172 0 284 -103q111 -104 111 -282z" />
    <glyph glyph-name="Otilde" unicode="&#xd5;" horiz-adv-x="1267" 
d="M969 1616q-77 0 -137 46t-110 46t-128 -72l-49 62q100 94 178 94t137 -46q60 -46 110 -46t128 72l49 -62q-100 -94 -178 -94zM1096 1079q0 143 -86 221t-207 78q-182 0 -311 -135q-60 -63 -98 -169t-87 -353q-49 -248 -49 -342q0 -143 86 -221t207 -78q182 0 311 135
q59 63 97 169q37 106 87 353q50 248 50 342zM1202 1085q0 -100 -53 -364t-93 -378t-120 -196q-154 -160 -389 -159q-172 0 -284 103t-111 282q0 100 53 364t93 378t120 196q154 160 389 159q172 0 284 -103q111 -104 111 -282z" />
    <glyph glyph-name="Odieresis" unicode="&#xd6;" horiz-adv-x="1267" 
d="M1126 1759l-30 -153h-113l31 153h112zM723 1759l-31 -153h-112l30 153h113zM1096 1079q0 143 -86 221t-207 78q-182 0 -311 -135q-60 -63 -98 -169t-87 -353q-49 -248 -49 -342q0 -143 86 -221t207 -78q182 0 311 135q59 63 97 169q37 106 87 353q50 248 50 342z
M1202 1085q0 -100 -53 -364t-93 -378t-120 -196q-154 -160 -389 -159q-172 0 -284 103t-111 282q0 100 53 364t93 378t120 196q154 160 389 159q172 0 284 -103q111 -104 111 -282z" />
    <glyph glyph-name="multiply" unicode="&#xd7;" 
d="M930 848l-361 -313l242 -322l-68 -59l-241 321l-363 -313l-51 67l361 314l-242 321l69 60l242 -322l361 313z" />
    <glyph glyph-name="Oslash" unicode="&#xd8;" horiz-adv-x="1267" 
d="M258 380q0 -93 39 -161l700 1092q-80 68 -194 67q-182 0 -311 -135q-60 -63 -98 -169t-87 -353q-49 -248 -49 -341zM1096 1077q0 92 -39 160l-701 -1092q78 -66 195 -65q182 0 311 135q59 63 97 169q37 106 87 353q50 248 50 340zM1202 1085q0 -100 -53 -364t-93 -378
t-120 -196q-154 -160 -389 -159q-145 0 -246 71l-96 -149h-107l135 211q-82 102 -81 252q0 100 53 364t93 378t120 196q154 160 389 159q143 0 246 -73l98 151h106l-137 -213q82 -102 82 -250z" />
    <glyph glyph-name="Ugrave" unicode="&#xd9;" horiz-adv-x="1339" 
d="M926 1585h-107l-145 297h125zM575 -12q-153 0 -273 97t-120 292q0 49 15 125l190 956h107l-195 -971q-10 -55 -10 -108q0 -121 75 -210q74 -89 228 -89t280 106t168 310l191 962h106l-196 -985q-45 -229 -196 -357t-370 -128z" />
    <glyph glyph-name="Uacute" unicode="&#xda;" horiz-adv-x="1339" 
d="M1155 1882l-260 -297h-119l246 297h133zM575 -12q-153 0 -273 97t-120 292q0 49 15 125l190 956h107l-195 -971q-10 -55 -10 -108q0 -121 75 -210q74 -89 228 -89t280 106t168 310l191 962h106l-196 -985q-45 -229 -196 -357t-370 -128z" />
    <glyph glyph-name="Ucircumflex" unicode="&#xdb;" horiz-adv-x="1339" 
d="M1161 1585h-104l-137 227l-230 -227h-117l299 301h107zM575 -12q-153 0 -273 97t-120 292q0 49 15 125l190 956h107l-195 -971q-10 -55 -10 -108q0 -121 75 -210q74 -89 228 -89t280 106t168 310l191 962h106l-196 -985q-45 -229 -196 -357t-370 -128z" />
    <glyph glyph-name="Udieresis" unicode="&#xdc;" horiz-adv-x="1339" 
d="M1169 1759l-30 -153h-113l31 153h112zM766 1759l-31 -153h-112l30 153h113zM575 -12q-153 0 -273 97t-120 292q0 49 15 125l190 956h107l-195 -971q-10 -55 -10 -108q0 -121 75 -210q74 -89 228 -89t280 106t168 310l191 962h106l-196 -985q-45 -229 -196 -357t-370 -128
z" />
    <glyph glyph-name="Yacute" unicode="&#xdd;" horiz-adv-x="960" 
d="M963 1882l-261 -297h-118l245 297h134zM1135 1458l-576 -860l-121 -598h-106l123 608l-242 850h109l206 -741l488 741h119z" />
    <glyph glyph-name="Thorn" unicode="&#xde;" horiz-adv-x="1257" 
d="M1092 813q0 109 -65 179t-204 71h-389l-129 -649h389q174 0 286 110t112 289zM1198 815q0 -217 -137 -355t-371 -138h-403l-66 -322h-106l293 1458h106l-61 -303h381q192 1 278 -99t86 -241z" />
    <glyph glyph-name="germandbls" unicode="&#xdf;" horiz-adv-x="1073" 
d="M1055 1184q0 -94 -47 -174t-134 -127q90 -47 91 -160q0 -31 -11 -86l-71 -363q-25 -126 -108 -200t-202 -74h-116l16 86h94q70 0 133 46t86 155l74 366q6 35 6 58q0 67 -41 99t-100 32h-100l16 88h78q111 0 174 78t63 173t-55 150t-164 55q-268 0 -331 -311l-216 -1075
h-100l215 1075q78 397 440 398q137 0 223 -77t87 -212z" />
    <glyph glyph-name="agrave" unicode="&#xe0;" horiz-adv-x="1019" 
d="M674 1196h-107l-145 297h125zM451 473q-131 1 -210 -65t-79 -189q0 -73 53 -109t185 -36t223 86q68 68 88 174l26 139h-286zM885 776q0 -50 -8 -100l-136 -676h-98l23 102q-115 -115 -301 -114q-303 0 -304 231q-1 139 97 237t282 97h314l24 123q8 41 8 74q0 80 -58 120
t-158 41t-166 -29q-65 -30 -128 -100l-63 70q70 78 152 113t200 34q218 -1 289 -121q31 -52 31 -102z" />
    <glyph glyph-name="aacute" unicode="&#xe1;" horiz-adv-x="1019" 
d="M903 1493l-260 -297h-119l246 297h133zM451 473q-131 1 -210 -65t-79 -189q0 -73 53 -109t185 -36t223 86q68 68 88 174l26 139h-286zM885 776q0 -50 -8 -100l-136 -676h-98l23 102q-115 -115 -301 -114q-303 0 -304 231q-1 139 97 237t282 97h314l24 123q8 41 8 74
q0 80 -58 120t-158 41t-166 -29q-65 -30 -128 -100l-63 70q70 78 152 113t200 34q218 -1 289 -121q31 -52 31 -102z" />
    <glyph glyph-name="acircumflex" unicode="&#xe2;" horiz-adv-x="1019" 
d="M909 1196h-104l-137 227l-230 -227h-116l299 301h106zM451 473q-131 1 -210 -65t-79 -189q0 -73 53 -109t185 -36t223 86q68 68 88 174l26 139h-286zM885 776q0 -50 -8 -100l-136 -676h-98l23 102q-115 -115 -301 -114q-303 0 -304 231q-1 139 97 237t282 97h314l24 123
q8 41 8 74q0 80 -58 120t-158 41t-166 -29q-65 -30 -128 -100l-63 70q70 78 152 113t200 34q218 -1 289 -121q31 -52 31 -102z" />
    <glyph glyph-name="atilde" unicode="&#xe3;" horiz-adv-x="1019" 
d="M760 1227q-78 0 -138 46t-109 46q-50 0 -128 -72l-49 62q100 94 178 94t137 -46t109 -46t129 71l49 -61q-100 -94 -178 -94zM451 473q-131 1 -210 -65t-79 -189q0 -73 53 -109t185 -36t223 86q68 68 88 174l26 139h-286zM885 776q0 -50 -8 -100l-136 -676h-98l23 102
q-115 -115 -301 -114q-303 0 -304 231q-1 139 97 237t282 97h314l24 123q8 41 8 74q0 80 -58 120t-158 41t-166 -29q-65 -30 -128 -100l-63 70q70 78 152 113t200 34q218 -1 289 -121q31 -52 31 -102z" />
    <glyph glyph-name="adieresis" unicode="&#xe4;" horiz-adv-x="1019" 
d="M918 1370l-31 -153h-113l31 153h113zM514 1370l-31 -153h-112l30 153h113zM451 473q-131 1 -210 -65t-79 -189q0 -73 53 -109t185 -36t223 86q68 68 88 174l26 139h-286zM885 776q0 -50 -8 -100l-136 -676h-98l23 102q-115 -115 -301 -114q-303 0 -304 231q-1 139 97 237
t282 97h314l24 123q8 41 8 74q0 80 -58 120t-158 41t-166 -29q-65 -30 -128 -100l-63 70q70 78 152 113t200 34q218 -1 289 -121q31 -52 31 -102z" />
    <glyph glyph-name="aring" unicode="&#xe5;" horiz-adv-x="1019" 
d="M809 1386q0 60 -46 106q-45 46 -107 46t-108 -45t-46 -107t46 -107q46 -46 107 -46t108 46q46 46 46 107zM889 1386q0 -96 -69 -166t-165 -69q-96 0 -165 70q-68 69 -68 165t68 165q69 69 165 69t165 -69t69 -165zM451 473q-131 1 -210 -65t-79 -189q0 -73 53 -109
t185 -36t223 86q68 68 88 174l26 139h-286zM885 776q0 -50 -8 -100l-136 -676h-98l23 102q-115 -115 -301 -114q-303 0 -304 231q-1 139 97 237t282 97h314l24 123q8 41 8 74q0 80 -58 120t-158 41t-166 -29q-65 -30 -128 -100l-63 70q70 78 152 113t200 34q218 -1 289 -121
q31 -52 31 -102z" />
    <glyph glyph-name="ae" unicode="&#xe6;" horiz-adv-x="1634" 
d="M1415 668q0 123 -60 184t-151 61q-260 0 -352 -360h553q10 62 10 115zM451 473q-131 1 -210 -65t-79 -189q0 -73 53 -109t185 -36t223 86q68 68 88 174l26 139h-286zM1513 668q0 -76 -22 -195h-653q-14 -82 -15 -145q-1 -115 57 -184t175 -68q160 0 295 123l67 -68
q-156 -143 -366 -143q-109 0 -188 49t-111 137q-104 -186 -373 -186q-317 0 -318 231q-1 139 97 237t282 97h314l24 123q8 41 8 74q0 80 -58 120t-158 41t-166 -29q-65 -30 -128 -100l-63 70q70 78 152 113t200 34q244 0 307 -176q123 176 334 176q150 0 228 -95t79 -236z
" />
    <glyph glyph-name="ccedilla" unicode="&#xe7;" horiz-adv-x="960" 
d="M485 -139l-182 -303h-125l199 303h108zM614 913q-140 1 -245 -113q-106 -114 -142 -306q-16 -88 -16 -156q0 -133 72 -199t174 -65q145 0 268 129l61 -72q-141 -143 -323 -143t-266 102t-84 254q0 78 14 150q43 231 172 368q129 138 319 138t293 -152l-73 -60
q-84 125 -224 125z" />
    <glyph glyph-name="egrave" unicode="&#xe8;" horiz-adv-x="1021" 
d="M705 1196h-107l-145 297h125zM803 668q-1 123 -61 184t-150 61q-260 0 -352 -360h553q10 62 10 115zM901 668q0 -76 -22 -195h-654q-14 -82 -14 -145q0 -115 57 -184t174 -68q160 0 295 123l68 -68q-156 -143 -367 -143q-154 0 -240 89t-85 249q0 235 106 441
q53 103 151 168t236 65t216 -96q78 -95 79 -236z" />
    <glyph glyph-name="eacute" unicode="&#xe9;" horiz-adv-x="1021" 
d="M934 1493l-260 -297h-119l246 297h133zM803 668q-1 123 -61 184t-150 61q-260 0 -352 -360h553q10 62 10 115zM901 668q0 -76 -22 -195h-654q-14 -82 -14 -145q0 -115 57 -184t174 -68q160 0 295 123l68 -68q-156 -143 -367 -143q-154 0 -240 89t-85 249q0 235 106 441
q53 103 151 168t236 65t216 -96q78 -95 79 -236z" />
    <glyph glyph-name="ecircumflex" unicode="&#xea;" horiz-adv-x="1021" 
d="M940 1196h-104l-138 227l-229 -227h-117l299 301h107zM803 668q-1 123 -61 184t-150 61q-260 0 -352 -360h553q10 62 10 115zM901 668q0 -76 -22 -195h-654q-14 -82 -14 -145q0 -115 57 -184t174 -68q160 0 295 123l68 -68q-156 -143 -367 -143q-154 0 -240 89t-85 249
q0 235 106 441q53 103 151 168t236 65t216 -96q78 -95 79 -236z" />
    <glyph glyph-name="edieresis" unicode="&#xeb;" horiz-adv-x="1021" 
d="M948 1370l-30 -153h-113l31 153h112zM545 1370l-31 -153h-113l31 153h113zM803 668q-1 123 -61 184t-150 61q-260 0 -352 -360h553q10 62 10 115zM901 668q0 -76 -22 -195h-654q-14 -82 -14 -145q0 -115 57 -184t174 -68q160 0 295 123l68 -68q-156 -143 -367 -143
q-154 0 -240 89t-85 249q0 235 106 441q53 103 151 168t236 65t216 -96q78 -95 79 -236z" />
    <glyph glyph-name="igrave" unicode="&#xec;" horiz-adv-x="477" 
d="M416 1196h-107l-145 297h125zM387 987l-197 -987h-100l197 987h100z" />
    <glyph glyph-name="iacute" unicode="&#xed;" horiz-adv-x="477" 
d="M686 1493l-260 -297h-119l246 297h133zM387 987l-197 -987h-100l197 987h100z" />
    <glyph glyph-name="icircumflex" unicode="&#xee;" horiz-adv-x="477" 
d="M651 1196h-104l-137 227l-230 -227h-117l299 301h107zM387 987l-197 -987h-100l197 987h100z" />
    <glyph glyph-name="idieresis" unicode="&#xef;" horiz-adv-x="477" 
d="M659 1370l-30 -153h-113l31 153h112zM256 1370l-31 -153h-112l30 153h113zM387 987l-197 -987h-100l197 987h100z" />
    <glyph glyph-name="eth" unicode="&#xf0;" horiz-adv-x="1024" 
d="M807 676q1 123 -63 180t-170 57t-201 -96q-96 -96 -142 -323q-20 -109 -20 -183q0 -123 63 -180t169 -57t202 96t141 324q21 108 21 182zM905 691q0 -97 -18 -197q-55 -285 -191 -402q-119 -104 -272 -104q-95 0 -191 55q-53 31 -87 101q-56 117 -15 350q55 285 191 401
q119 104 272 104q100 0 156 -38l-91 237h-229l14 74h191l-70 186h97l67 -186h154l-13 -74h-116l94 -254q57 -156 57 -253z" />
    <glyph glyph-name="ntilde" unicode="&#xf1;" horiz-adv-x="1087" 
d="M823 1227q-78 0 -137 46q-60 46 -110 46t-127 -72l-50 62q101 94 179 94t137 -46t109 -46t128 71l49 -61q-100 -94 -178 -94zM948 719q0 -43 -10 -94l-125 -625h-100l123 612q12 70 12 105q0 96 -56 146t-162 50t-196 -76q-91 -76 -123 -231l-121 -606h-100l197 987h100
l-22 -117q109 129 305 129q126 -1 202 -77t76 -203z" />
    <glyph glyph-name="ograve" unicode="&#xf2;" horiz-adv-x="1017" 
d="M702 1196h-106l-145 297h124zM807 672q-1 123 -63 182t-170 59t-202 -95q-95 -95 -141 -324q-20 -109 -20 -179q0 -123 62 -182t170 -59t203 95t140 325q21 108 21 178zM905 676q0 -86 -18 -182q-55 -285 -191 -402q-119 -104 -261 -104t-232 79t-90 244q0 86 18 183
q55 285 191 401q119 104 261 104q142 -1 232 -79t90 -244z" />
    <glyph glyph-name="oacute" unicode="&#xf3;" horiz-adv-x="1017" 
d="M932 1493l-260 -297h-119l246 297h133zM807 672q-1 123 -63 182t-170 59t-202 -95q-95 -95 -141 -324q-20 -109 -20 -179q0 -123 62 -182t170 -59t203 95t140 325q21 108 21 178zM905 676q0 -86 -18 -182q-55 -285 -191 -402q-119 -104 -261 -104t-232 79t-90 244
q0 86 18 183q55 285 191 401q119 104 261 104q142 -1 232 -79t90 -244z" />
    <glyph glyph-name="ocircumflex" unicode="&#xf4;" horiz-adv-x="1017" 
d="M938 1196h-104l-138 227l-229 -227h-117l299 301h107zM807 672q-1 123 -63 182t-170 59t-202 -95q-95 -95 -141 -324q-20 -109 -20 -179q0 -123 62 -182t170 -59t203 95t140 325q21 108 21 178zM905 676q0 -86 -18 -182q-55 -285 -191 -402q-119 -104 -261 -104t-232 79
t-90 244q0 86 18 183q55 285 191 401q119 104 261 104q142 -1 232 -79t90 -244z" />
    <glyph glyph-name="otilde" unicode="&#xf5;" horiz-adv-x="1017" 
d="M788 1227q-78 0 -137 46t-109 46t-128 -72l-49 62q100 94 178 94t137 -46q60 -46 110 -46t128 71l49 -61q-101 -94 -179 -94zM807 672q-1 123 -63 182t-170 59t-202 -95q-95 -95 -141 -324q-20 -109 -20 -179q0 -123 62 -182t170 -59t203 95t140 325q21 108 21 178z
M905 676q0 -86 -18 -182q-55 -285 -191 -402q-119 -104 -261 -104t-232 79t-90 244q0 86 18 183q55 285 191 401q119 104 261 104q142 -1 232 -79t90 -244z" />
    <glyph glyph-name="odieresis" unicode="&#xf6;" horiz-adv-x="1017" 
d="M946 1370l-31 -153h-112l31 153h112zM543 1370l-31 -153h-113l31 153h113zM807 672q-1 123 -63 182t-170 59t-202 -95q-95 -95 -141 -324q-20 -109 -20 -179q0 -123 62 -182t170 -59t203 95t140 325q21 108 21 178zM905 676q0 -86 -18 -182q-55 -285 -191 -402
q-119 -104 -261 -104t-232 79t-90 244q0 86 18 183q55 285 191 401q119 104 261 104q142 -1 232 -79t90 -244z" />
    <glyph glyph-name="divide" unicode="&#xf7;" 
d="M653 942l-26 -137h-138l29 137h135zM915 586l-18 -90h-793l17 90h794zM528 276l-26 -137h-137l28 137h135z" />
    <glyph glyph-name="oslash" unicode="&#xf8;" horiz-adv-x="1017" 
d="M211 314q0 -71 22 -121l502 669q-59 51 -163 51t-200 -95q-95 -95 -141 -324q-20 -109 -20 -180zM807 675q0 73 -25 122l-503 -670q55 -53 163 -53t204 95q95 95 140 325q21 108 21 181zM905 694q0 -104 -18 -200q-55 -285 -191 -402q-119 -104 -256 -104t-219 61
l-104 -139h-97l148 196q-55 78 -55 184t18 204q55 285 191 401q119 104 255 104t216 -61l104 139h96l-145 -194q57 -85 57 -189z" />
    <glyph glyph-name="ugrave" unicode="&#xf9;" horiz-adv-x="1087" 
d="M729 1196h-106l-146 297h125zM422 -12q-127 0 -206 77t-79 203q0 43 10 94l125 625h101l-123 -612q-12 -61 -12 -105q0 -96 56 -146t162 -50t196 77t122 230l121 606h100l-196 -987h-101l23 117q-109 -129 -299 -129z" />
    <glyph glyph-name="uacute" unicode="&#xfa;" horiz-adv-x="1087" 
d="M958 1493l-260 -297h-118l245 297h133zM422 -12q-127 0 -206 77t-79 203q0 43 10 94l125 625h101l-123 -612q-12 -61 -12 -105q0 -96 56 -146t162 -50t196 77t122 230l121 606h100l-196 -987h-101l23 117q-109 -129 -299 -129z" />
    <glyph glyph-name="ucircumflex" unicode="&#xfb;" horiz-adv-x="1087" 
d="M965 1196h-105l-137 227l-229 -227h-117l299 301h106zM422 -12q-127 0 -206 77t-79 203q0 43 10 94l125 625h101l-123 -612q-12 -61 -12 -105q0 -96 56 -146t162 -50t196 77t122 230l121 606h100l-196 -987h-101l23 117q-109 -129 -299 -129z" />
    <glyph glyph-name="udieresis" unicode="&#xfc;" horiz-adv-x="1087" 
d="M973 1370l-31 -153h-113l31 153h113zM569 1370l-30 -153h-113l31 153h112zM422 -12q-127 0 -206 77t-79 203q0 43 10 94l125 625h101l-123 -612q-12 -61 -12 -105q0 -96 56 -146t162 -50t196 77t122 230l121 606h100l-196 -987h-101l23 117q-109 -129 -299 -129z" />
    <glyph glyph-name="yacute" unicode="&#xfd;" horiz-adv-x="835" 
d="M827 1493l-260 -297h-118l245 297h133zM-47 -446h-51l18 86h39q78 0 115 28t82 115l114 219l-145 985h102l115 -862l449 862h112l-674 -1257q-41 -78 -95 -127t-181 -49z" />
    <glyph glyph-name="thorn" unicode="&#xfe;" horiz-adv-x="1050" 
d="M840 676q0 238 -203 237q-154 -1 -233 -115t-115 -304q-23 -117 -23 -183q0 -238 203 -237q155 0 233 114t115 306q23 116 23 182zM938 676q0 -78 -20 -182q-55 -282 -167 -394t-289 -112t-243 149l-123 -608h-100l385 1929h100l-119 -596q102 137 287 137
q289 1 289 -323z" />
    <glyph glyph-name="ydieresis" unicode="&#xff;" horiz-adv-x="835" 
d="M842 1370l-31 -153h-113l31 153h113zM438 1370l-30 -153h-113l31 153h112zM-47 -446h-51l18 86h39q78 0 115 28t82 115l114 219l-145 985h102l115 -862l449 862h112l-674 -1257q-41 -78 -95 -127t-181 -49z" />
    <glyph glyph-name="Amacron" unicode="&#x100;" horiz-adv-x="1171" 
d="M1100 1726l-19 -88h-575l18 88h576zM874 446l-122 865l-463 -865h585zM1044 0h-108l-51 354h-643l-193 -354h-117l799 1458h94z" />
    <glyph glyph-name="amacron" unicode="&#x101;" horiz-adv-x="1019" 
d="M942 1337l-18 -88h-576l19 88h575zM451 473q-131 1 -210 -65t-79 -189q0 -73 53 -109t185 -36t223 86q68 68 88 174l26 139h-286zM885 776q0 -50 -8 -100l-136 -676h-98l23 102q-115 -115 -301 -114q-303 0 -304 231q-1 139 97 237t282 97h314l24 123q8 41 8 74
q0 80 -58 120t-158 41t-166 -29q-65 -30 -128 -100l-63 70q70 78 152 113t200 34q218 -1 289 -121q31 -52 31 -102z" />
    <glyph glyph-name="Abreve" unicode="&#x102;" horiz-adv-x="1171" 
d="M793 1583q-115 0 -181 50t-65 149q0 20 2 43h90q-2 -20 -2 -39q0 -55 43 -86t123 -31q170 0 209 156h90q-57 -242 -309 -242zM874 446l-122 865l-463 -865h585zM1044 0h-108l-51 354h-643l-193 -354h-117l799 1458h94z" />
    <glyph glyph-name="abreve" unicode="&#x103;" horiz-adv-x="1019" 
d="M387 1380q0 20 2 43h90q-2 -20 -2 -39q0 -55 43 -86t123 -30q170 0 209 155h90q-57 -242 -309 -241q-115 0 -181 50t-65 148zM451 473q-131 1 -210 -65t-79 -189q0 -73 53 -109t185 -36t223 86q68 68 88 174l26 139h-286zM885 776q0 -50 -8 -100l-136 -676h-98l23 102
q-115 -115 -301 -114q-303 0 -304 231q-1 139 97 237t282 97h314l24 123q8 41 8 74q0 80 -58 120t-158 41t-166 -29q-65 -30 -128 -100l-63 70q70 78 152 113t200 34q218 -1 289 -121q31 -52 31 -102z" />
    <glyph glyph-name="Aogonek" unicode="&#x104;" horiz-adv-x="1171" 
d="M1020 -139l-182 -303h-125l198 303h109zM874 446l-122 865l-463 -865h585zM1044 0h-108l-51 354h-643l-193 -354h-117l799 1458h94z" />
    <glyph glyph-name="aogonek" unicode="&#x105;" horiz-adv-x="1019" 
d="M717 -139l-182 -303h-125l198 303h109zM451 473q-131 1 -210 -65t-79 -189q0 -73 53 -109t185 -36t223 86q68 68 88 174l26 139h-286zM885 776q0 -50 -8 -100l-136 -676h-98l23 102q-115 -115 -301 -114q-303 0 -304 231q-1 139 97 237t282 97h314l24 123q8 41 8 74
q0 80 -58 120t-158 41t-166 -29q-65 -30 -128 -100l-63 70q70 78 152 113t200 34q218 -1 289 -121q31 -52 31 -102z" />
    <glyph glyph-name="Cacute" unicode="&#x106;" horiz-adv-x="1253" 
d="M1112 1882l-260 -297h-119l246 297h133zM799 1378q-178 0 -307 -135q-62 -66 -98 -169t-86 -352q-50 -250 -50 -366t91 -196t233 -80t253 94q110 94 156 234h109q-58 -195 -204 -308q-146 -112 -326 -112t-300 100q-119 100 -118 285q0 113 54 375t92 370t122 195
q150 157 363 157t318 -114t107 -305h-106q-2 155 -82 241t-221 86z" />
    <glyph glyph-name="cacute" unicode="&#x107;" horiz-adv-x="960" 
d="M967 1493l-260 -297h-119l246 297h133zM614 913q-140 1 -245 -113q-106 -114 -142 -306q-16 -88 -16 -156q0 -133 72 -199t174 -65q145 0 268 129l61 -72q-141 -143 -323 -143t-266 102t-84 254q0 78 14 150q43 231 172 368q129 138 319 138t293 -152l-73 -60
q-84 125 -224 125z" />
    <glyph glyph-name="Ccircumflex" unicode="&#x108;" horiz-adv-x="1253" 
d="M1118 1585h-104l-137 227l-230 -227h-117l299 301h107zM799 1378q-178 0 -307 -135q-62 -66 -98 -169t-86 -352q-50 -250 -50 -366t91 -196t233 -80t253 94q110 94 156 234h109q-58 -195 -204 -308q-146 -112 -326 -112t-300 100q-119 100 -118 285q0 113 54 375t92 370
t122 195q150 157 363 157t318 -114t107 -305h-106q-2 155 -82 241t-221 86z" />
    <glyph glyph-name="ccircumflex" unicode="&#x109;" horiz-adv-x="960" 
d="M973 1196h-105l-137 227l-229 -227h-117l299 301h107zM614 913q-140 1 -245 -113q-106 -114 -142 -306q-16 -88 -16 -156q0 -133 72 -199t174 -65q145 0 268 129l61 -72q-141 -143 -323 -143t-266 102t-84 254q0 78 14 150q43 231 172 368q129 138 319 138t293 -152
l-73 -60q-84 125 -224 125z" />
    <glyph glyph-name="Cdotaccent" unicode="&#x10a;" horiz-adv-x="1253" 
d="M928 1749l-25 -123h-123l25 123h123zM799 1378q-178 0 -307 -135q-62 -66 -98 -169t-86 -352q-50 -250 -50 -366t91 -196t233 -80t253 94q110 94 156 234h109q-58 -195 -204 -308q-146 -112 -326 -112t-300 100q-119 100 -118 285q0 113 54 375t92 370t122 195
q150 157 363 157t318 -114t107 -305h-106q-2 155 -82 241t-221 86z" />
    <glyph glyph-name="cdotaccent" unicode="&#x10b;" horiz-adv-x="960" 
d="M782 1360l-24 -123h-123l24 123h123zM614 913q-140 1 -245 -113q-106 -114 -142 -306q-16 -88 -16 -156q0 -133 72 -199t174 -65q145 0 268 129l61 -72q-141 -143 -323 -143t-266 102t-84 254q0 78 14 150q43 231 172 368q129 138 319 138t293 -152l-73 -60
q-84 125 -224 125z" />
    <glyph glyph-name="Ccaron" unicode="&#x10c;" horiz-adv-x="1253" 
d="M1182 1886l-299 -301h-107l-182 301h104l138 -227l229 227h117zM799 1378q-178 0 -307 -135q-62 -66 -98 -169t-86 -352q-50 -250 -50 -366t91 -196t233 -80t253 94q110 94 156 234h109q-58 -195 -204 -308q-146 -112 -326 -112t-300 100q-119 100 -118 285q0 113 54 375
t92 370t122 195q150 157 363 157t318 -114t107 -305h-106q-2 155 -82 241t-221 86z" />
    <glyph glyph-name="ccaron" unicode="&#x10d;" horiz-adv-x="960" 
d="M1016 1497l-299 -301h-107l-182 301h104l138 -227l229 227h117zM614 913q-140 1 -245 -113q-106 -114 -142 -306q-16 -88 -16 -156q0 -133 72 -199t174 -65q145 0 268 129l61 -72q-141 -143 -323 -143t-266 102t-84 254q0 78 14 150q43 231 172 368q129 138 319 138
t293 -152l-73 -60q-84 125 -224 125z" />
    <glyph glyph-name="Dcaron" unicode="&#x10e;" horiz-adv-x="1318" 
d="M1198 1886l-299 -301h-106l-183 301h105l137 -227l229 227h117zM1151 1065q0 139 -77 220t-240 81h-338l-256 -1274h333q195 0 322 113q72 65 120 189t92 356t44 315zM1255 1064q0 -92 -47 -336t-100 -378t-150 -221q-143 -129 -370 -129h-473l293 1458h446
q296 0 376 -230q24 -70 25 -164z" />
    <glyph glyph-name="dcaron" unicode="&#x10f;" horiz-adv-x="1050" 
d="M1366 1458l-158 -303h-96l141 303h113zM786 680q0 233 -202 233q-154 -1 -233 -115t-115 -304q-23 -117 -23 -187q0 -233 203 -233q154 0 232 114t108 268t30 224zM403 -12q-289 0 -288 323q0 80 20 183q55 281 167 393t288 112t244 -149l122 608h101l-291 -1458h-100
l26 127q-115 -139 -289 -139z" />
    <glyph glyph-name="Dcroat" unicode="&#x110;" horiz-adv-x="1341" 
d="M1171 1065q0 139 -76 220q-77 81 -241 81h-338l-119 -590h346l-16 -82h-346l-121 -602h334q195 0 321 113q72 65 120 189t92 356t44 315zM874 1458q298 0 378 -230q24 -70 24 -164q0 -92 -47 -336t-101 -378t-149 -221q-143 -129 -371 -129h-473l139 694h-155l16 82h156
l137 682h446z" />
    <glyph glyph-name="dcroat" unicode="&#x111;" horiz-adv-x="1050" 
d="M786 680q0 233 -202 233q-154 -1 -233 -115t-115 -304q-23 -117 -23 -187q0 -233 203 -233q154 0 232 114t108 268t30 224zM403 -12q-289 0 -288 323q0 80 20 183q55 281 167 393t288 112t244 -149l65 328h-276l14 73h278l41 207h101l-41 -207h131l-17 -73h-131
l-233 -1178h-100l26 127q-115 -139 -289 -139z" />
    <glyph glyph-name="Emacron" unicode="&#x112;" horiz-adv-x="1167" 
d="M1149 1726l-19 -88h-575l18 88h576zM1247 1458l-18 -92h-733l-117 -584h629l-19 -92h-629l-120 -598h747l-18 -92h-854l293 1458h839z" />
    <glyph glyph-name="emacron" unicode="&#x113;" horiz-adv-x="1021" 
d="M973 1337l-19 -88h-575l18 88h576zM803 668q-1 123 -61 184t-150 61q-260 0 -352 -360h553q10 62 10 115zM901 668q0 -76 -22 -195h-654q-14 -82 -14 -145q0 -115 57 -184t174 -68q160 0 295 123l68 -68q-156 -143 -367 -143q-154 0 -240 89t-85 249q0 235 106 441
q53 103 151 168t236 65t216 -96q78 -95 79 -236z" />
    <glyph glyph-name="Ebreve" unicode="&#x114;" horiz-adv-x="1167" 
d="M834 1583q-115 0 -181 50t-65 149q0 20 2 43h90q-2 -20 -2 -39q0 -55 43 -86t123 -31q170 0 209 156h90q-57 -242 -309 -242zM1247 1458l-18 -92h-733l-117 -584h629l-19 -92h-629l-120 -598h747l-18 -92h-854l293 1458h839z" />
    <glyph glyph-name="ebreve" unicode="&#x115;" horiz-adv-x="1021" 
d="M397 1380q0 20 2 43h90q-2 -20 -2 -39q0 -55 43 -86t123 -30q170 0 209 155h90q-57 -242 -309 -241q-115 0 -181 50t-65 148zM803 668q-1 123 -61 184t-150 61q-260 0 -352 -360h553q10 62 10 115zM901 668q0 -76 -22 -195h-654q-14 -82 -14 -145q0 -115 57 -184t174 -68
q160 0 295 123l68 -68q-156 -143 -367 -143q-154 0 -240 89t-85 249q0 235 106 441q53 103 151 168t236 65t216 -96q78 -95 79 -236z" />
    <glyph glyph-name="Edotaccent" unicode="&#x116;" horiz-adv-x="1167" 
d="M928 1749l-25 -123h-123l25 123h123zM1247 1458l-18 -92h-733l-117 -584h629l-19 -92h-629l-120 -598h747l-18 -92h-854l293 1458h839z" />
    <glyph glyph-name="edotaccent" unicode="&#x117;" horiz-adv-x="1021" 
d="M750 1360l-25 -123h-123l25 123h123zM803 668q-1 123 -61 184t-150 61q-260 0 -352 -360h553q10 62 10 115zM901 668q0 -76 -22 -195h-654q-14 -82 -14 -145q0 -115 57 -184t174 -68q160 0 295 123l68 -68q-156 -143 -367 -143q-154 0 -240 89t-85 249q0 235 106 441
q53 103 151 168t236 65t216 -96q78 -95 79 -236z" />
    <glyph glyph-name="Eogonek" unicode="&#x118;" horiz-adv-x="1167" 
d="M934 -139l-182 -303h-125l198 303h109zM1247 1458l-18 -92h-733l-117 -584h629l-19 -92h-629l-120 -598h747l-18 -92h-854l293 1458h839z" />
    <glyph glyph-name="eogonek" unicode="&#x119;" horiz-adv-x="1021" 
d="M606 -139l-182 -303h-125l199 303h108zM803 668q-1 123 -61 184t-150 61q-260 0 -352 -360h553q10 62 10 115zM901 668q0 -76 -22 -195h-654q-14 -82 -14 -145q0 -115 57 -184t174 -68q160 0 295 123l68 -68q-156 -143 -367 -143q-154 0 -240 89t-85 249q0 235 106 441
q53 103 151 168t236 65t216 -96q78 -95 79 -236z" />
    <glyph glyph-name="Ecaron" unicode="&#x11a;" horiz-adv-x="1167" 
d="M1161 1886l-299 -301h-106l-183 301h105l137 -227l229 227h117zM1247 1458l-18 -92h-733l-117 -584h629l-19 -92h-629l-120 -598h747l-18 -92h-854l293 1458h839z" />
    <glyph glyph-name="ecaron" unicode="&#x11b;" horiz-adv-x="1021" 
d="M983 1497l-299 -301h-106l-183 301h105l137 -227l229 227h117zM803 668q-1 123 -61 184t-150 61q-260 0 -352 -360h553q10 62 10 115zM901 668q0 -76 -22 -195h-654q-14 -82 -14 -145q0 -115 57 -184t174 -68q160 0 295 123l68 -68q-156 -143 -367 -143q-154 0 -240 89
t-85 249q0 235 106 441q53 103 151 168t236 65t216 -96q78 -95 79 -236z" />
    <glyph glyph-name="Gcircumflex" unicode="&#x11c;" horiz-adv-x="1269" 
d="M1118 1585h-104l-137 227l-230 -227h-117l299 301h107zM799 1378q-178 0 -307 -135q-62 -66 -98 -169t-86 -352q-50 -250 -50 -366t91 -196t225 -80t264 105q129 105 172 327l26 141h-370l16 92h477l-45 -239q-45 -231 -176 -363q-156 -156 -377 -155q-172 0 -291 100
t-118 285q0 113 54 375t92 370t122 195q150 157 363 157t318 -114t107 -305h-106q-2 155 -82 241t-221 86z" />
    <glyph glyph-name="gcircumflex" unicode="&#x11d;" horiz-adv-x="1050" 
d="M928 1196h-105l-137 227l-229 -227h-117l299 301h106zM786 682q0 231 -202 231q-270 0 -351 -419q-23 -117 -22 -189q0 -231 203 -231q270 0 350 420q22 116 22 188zM397 -12q-141 0 -213 83t-71 232q0 70 20 191q51 279 174 401q104 104 268 104q193 0 259 -149l26 137
h101l-207 -1036q-27 -135 -82 -227t-126 -134q-121 -73 -249 -73q-182 0 -291 131l74 63q84 -109 213 -109t226 83q97 82 136 266l37 174q-106 -137 -295 -137z" />
    <glyph glyph-name="Gbreve" unicode="&#x11e;" horiz-adv-x="1269" 
d="M842 1583q-114 0 -180 50t-66 149q0 20 2 43h90q-2 -20 -2 -39q0 -55 43 -86t123 -31q170 0 209 156h90q-57 -242 -309 -242zM799 1378q-178 0 -307 -135q-62 -66 -98 -169t-86 -352q-50 -250 -50 -366t91 -196t225 -80t264 105q129 105 172 327l26 141h-370l16 92h477
l-45 -239q-45 -231 -176 -363q-156 -156 -377 -155q-172 0 -291 100t-118 285q0 113 54 375t92 370t122 195q150 157 363 157t318 -114t107 -305h-106q-2 155 -82 241t-221 86z" />
    <glyph glyph-name="gbreve" unicode="&#x11f;" horiz-adv-x="1050" 
d="M496 1384q0 -55 43 -86t123 -30q170 0 208 155h91q-57 -242 -310 -241q-115 0 -181 50t-64 148q0 20 2 43h90q-2 -20 -2 -39zM786 682q0 231 -202 231q-270 0 -351 -419q-23 -117 -22 -189q0 -231 203 -231q270 0 350 420q22 116 22 188zM397 -12q-141 0 -213 83t-71 232
q0 70 20 191q51 279 174 401q104 104 268 104q193 0 259 -149l26 137h101l-207 -1036q-27 -135 -82 -227t-126 -134q-121 -73 -249 -73q-182 0 -291 131l74 63q84 -109 213 -109t226 83q97 82 136 266l37 174q-106 -137 -295 -137z" />
    <glyph glyph-name="Gdotaccent" unicode="&#x120;" horiz-adv-x="1269" 
d="M928 1749l-25 -123h-123l25 123h123zM799 1378q-178 0 -307 -135q-62 -66 -98 -169t-86 -352q-50 -250 -50 -366t91 -196t225 -80t264 105q129 105 172 327l26 141h-370l16 92h477l-45 -239q-45 -231 -176 -363q-156 -156 -377 -155q-172 0 -291 100t-118 285
q0 113 54 375t92 370t122 195q150 157 363 157t318 -114t107 -305h-106q-2 155 -82 241t-221 86z" />
    <glyph glyph-name="gdotaccent" unicode="&#x121;" horiz-adv-x="1050" 
d="M737 1360l-24 -123h-123l24 123h123zM786 682q0 231 -202 231q-270 0 -351 -419q-23 -117 -22 -189q0 -231 203 -231q270 0 350 420q22 116 22 188zM397 -12q-141 0 -213 83t-71 232q0 70 20 191q51 279 174 401q104 104 268 104q193 0 259 -149l26 137h101l-207 -1036
q-27 -135 -82 -227t-126 -134q-121 -73 -249 -73q-182 0 -291 131l74 63q84 -109 213 -109t226 83q97 82 136 266l37 174q-106 -137 -295 -137z" />
    <glyph glyph-name="Gcommaaccent" unicode="&#x122;" horiz-adv-x="1269" 
d="M594 -139l-182 -303h-125l198 303h109zM799 1378q-178 0 -307 -135q-62 -66 -98 -169t-86 -352q-50 -250 -50 -366t91 -196t225 -80t264 105q129 105 172 327l26 141h-370l16 92h477l-45 -239q-45 -231 -176 -363q-156 -156 -377 -155q-172 0 -291 100t-118 285
q0 113 54 375t92 370t122 195q150 157 363 157t318 -114t107 -305h-106q-2 155 -82 241t-221 86z" />
    <glyph glyph-name="gcommaaccent" unicode="&#x123;" horiz-adv-x="1050" 
d="M922 1493l-260 -297h-119l245 297h134zM786 682q0 231 -202 231q-270 0 -351 -419q-23 -117 -22 -189q0 -231 203 -231q270 0 350 420q22 116 22 188zM397 -12q-141 0 -213 83t-71 232q0 70 20 191q51 279 174 401q104 104 268 104q193 0 259 -149l26 137h101l-207 -1036
q-27 -135 -82 -227t-126 -134q-121 -73 -249 -73q-182 0 -291 131l74 63q84 -109 213 -109t226 83q97 82 136 266l37 174q-106 -137 -295 -137z" />
    <glyph glyph-name="Hcircumflex" unicode="&#x124;" horiz-adv-x="1359" 
d="M1184 1585h-105l-137 227l-229 -227h-117l299 301h106zM1341 1458l-292 -1458h-107l139 690h-721l-139 -690h-106l293 1458h106l-135 -676h721l135 676h106z" />
    <glyph glyph-name="hcircumflex" unicode="&#x125;" horiz-adv-x="1087" 
d="M752 1597h-105l-137 228l-229 -228h-117l299 301h106zM948 719q0 -43 -10 -94l-125 -625h-100l123 612q12 61 12 105q0 96 -56 146t-162 50t-196 -76q-91 -76 -123 -231l-121 -606h-100l291 1458h100l-116 -588q109 129 299 129q128 -1 206 -77t78 -203z" />
    <glyph glyph-name="Hbar" unicode="&#x126;" horiz-adv-x="1456" 
d="M1159 1059h-721l-55 -277h721zM1434 1143l-19 -84h-149l-213 -1059h-107l139 690h-720l-140 -690h-106l213 1059h-152l19 84h149l64 315h106l-63 -315h721l63 315h107l-64 -315h152z" />
    <glyph glyph-name="hbar" unicode="&#x127;" horiz-adv-x="1091" 
d="M952 719q0 -43 -10 -94l-125 -625h-100l123 612q12 70 12 105q0 96 -56 146t-162 50t-195 -75q-90 -75 -124 -232l-120 -606h-101l234 1178h-129l14 73h129l43 207h100l-41 -207h279l-14 -73h-279l-61 -308q109 129 305 129q125 0 202 -76q76 -77 76 -204z" />
    <glyph glyph-name="Itilde" unicode="&#x128;" horiz-adv-x="532" 
d="M631 1616q-77 0 -137 46t-110 46t-128 -72l-49 62q100 94 178 94t137 -46q60 -46 110 -46t128 72l49 -62q-100 -94 -178 -94zM514 1458l-293 -1458h-106l293 1458h106z" />
    <glyph glyph-name="itilde" unicode="&#x129;" horiz-adv-x="477" 
d="M512 1227q-78 0 -137 46t-109 46t-129 -72l-49 62q100 94 178 94t138 -46t109 -46q50 0 128 71l49 -61q-100 -94 -178 -94zM387 987l-197 -987h-100l197 987h100z" />
    <glyph glyph-name="Imacron" unicode="&#x12a;" horiz-adv-x="532" 
d="M784 1726l-18 -88h-576l19 88h575zM514 1458l-293 -1458h-106l293 1458h106z" />
    <glyph glyph-name="imacron" unicode="&#x12b;" horiz-adv-x="477" 
d="M684 1337l-18 -88h-576l19 88h575zM387 987l-197 -987h-100l197 987h100z" />
    <glyph glyph-name="Ibreve" unicode="&#x12c;" horiz-adv-x="532" 
d="M494 1583q-115 0 -181 50t-65 149q0 20 2 43h90q-2 -20 -2 -39q0 -55 43 -86t123 -31q170 0 209 156h90q-57 -242 -309 -242zM514 1458l-293 -1458h-106l293 1458h106z" />
    <glyph glyph-name="ibreve" unicode="&#x12d;" horiz-adv-x="477" 
d="M135 1380q0 20 2 43h90q-2 -20 -2 -39q0 -55 43 -86t123 -30q170 0 209 155h90q-57 -242 -309 -241q-115 0 -181 50t-65 148zM387 987l-197 -987h-100l197 987h100z" />
    <glyph glyph-name="Iogonek" unicode="&#x12e;" horiz-adv-x="532" 
d="M195 -139l-183 -303h-125l199 303h109zM514 1458l-293 -1458h-106l293 1458h106z" />
    <glyph glyph-name="iogonek" unicode="&#x12f;" horiz-adv-x="477" 
d="M168 -139l-182 -303h-125l198 303h109zM485 1442l-24 -123h-123l24 123h123zM387 987l-197 -987h-100l197 987h100z" />
    <glyph glyph-name="Idotaccent" unicode="&#x130;" horiz-adv-x="532" 
d="M584 1749l-25 -123h-123l25 123h123zM514 1458l-293 -1458h-106l293 1458h106z" />
    <glyph glyph-name="dotlessi" unicode="&#x131;" horiz-adv-x="477" 
d="M387 987l-197 -987h-100l197 987h100z" />
    <glyph glyph-name="IJ" unicode="&#x132;" horiz-adv-x="1501" 
d="M811 -12q-190 0 -291 127l78 67q84 -102 226 -102t239 97q96 97 131 278l201 1003h106l-207 -1030q-90 -440 -483 -440zM514 1458l-293 -1458h-106l293 1458h106z" />
    <glyph glyph-name="ij" unicode="&#x133;" horiz-adv-x="954" 
d="M963 1442l-25 -123h-123l25 123h123zM346 -471h-84l17 86h61q78 0 122 41t62 131l240 1200h100l-241 -1212q-51 -246 -277 -246zM485 1442l-24 -123h-123l24 123h123zM387 987l-197 -987h-100l197 987h100z" />
    <glyph glyph-name="Jcircumflex" unicode="&#x134;" horiz-adv-x="968" 
d="M1225 1585h-105l-137 227l-229 -227h-117l299 301h106zM279 -12q-190 0 -291 127l78 67q84 -102 226 -102t238 97t132 278l200 1003h107l-207 -1030q-90 -440 -483 -440z" />
    <glyph glyph-name="jcircumflex" unicode="&#x135;" horiz-adv-x="477" 
d="M651 1196h-104l-137 227l-230 -227h-117l299 301h107zM-131 -471h-84l16 86h62q78 0 122 41t62 131l240 1200h100l-242 -1212q-51 -246 -276 -246z" />
    <glyph glyph-name="Kcommaaccent" unicode="&#x136;" horiz-adv-x="1261" 
d="M616 -139l-182 -303h-125l199 303h108zM1341 1458l-540 -559l336 -899h-115l-301 823l-420 -426l-80 -397h-106l293 1458h106l-180 -899l872 899h135z" />
    <glyph glyph-name="kcommaaccent" unicode="&#x137;" horiz-adv-x="1032" 
d="M506 -139l-182 -303h-125l198 303h109zM983 987l-385 -373l266 -614h-114l-232 549l-270 -260l-58 -289h-100l291 1458h100l-202 -1020l569 549h135z" />
    <glyph glyph-name="kgreenlandic" unicode="&#x138;" horiz-adv-x="1032" 
d="M983 987l-385 -373l266 -614h-114l-232 549l-270 -260l-58 -289h-100l197 987h100l-108 -549l569 549h135z" />
    <glyph glyph-name="Lacute" unicode="&#x139;" horiz-adv-x="1116" 
d="M788 1882l-260 -297h-118l245 297h133zM979 92l-18 -92h-846l293 1458h106l-274 -1366h739z" />
    <glyph glyph-name="lacute" unicode="&#x13a;" horiz-adv-x="563" 
d="M764 1894l-260 -297h-119l246 297h133zM352 86h76l-18 -86h-93q-72 0 -130 39t-58 137q0 45 8 80l242 1202h100l-241 -1202q-10 -55 -11 -76q0 -94 125 -94z" />
    <glyph glyph-name="Lcommaaccent" unicode="&#x13b;" horiz-adv-x="1116" 
d="M602 -139l-182 -303h-125l199 303h108zM979 92l-18 -92h-846l293 1458h106l-274 -1366h739z" />
    <glyph glyph-name="lcommaaccent" unicode="&#x13c;" horiz-adv-x="563" 
d="M268 -139l-182 -303h-125l199 303h108zM352 86h76l-18 -86h-93q-72 0 -130 39t-58 137q0 45 8 80l242 1202h100l-241 -1202q-10 -55 -11 -76q0 -94 125 -94z" />
    <glyph glyph-name="Lcaron" unicode="&#x13d;" horiz-adv-x="1116" 
d="M918 1458l-158 -303h-96l141 303h113zM979 92l-18 -92h-846l293 1458h106l-274 -1366h739z" />
    <glyph glyph-name="lcaron" unicode="&#x13e;" horiz-adv-x="563" 
d="M793 1458l-158 -303h-96l141 303h113zM352 86h76l-18 -86h-93q-72 0 -130 39t-58 137q0 45 8 80l242 1202h100l-241 -1202q-10 -55 -11 -76q0 -94 125 -94z" />
    <glyph glyph-name="Ldot" unicode="&#x13f;" horiz-adv-x="1116" 
d="M944 797l-24 -123h-123l24 123h123zM979 92l-18 -92h-846l293 1458h106l-274 -1366h739z" />
    <glyph glyph-name="ldot" unicode="&#x140;" horiz-adv-x="563" 
d="M600 602l-25 -123h-122l24 123h123zM352 86h76l-18 -86h-93q-72 0 -130 39t-58 137q0 45 8 80l242 1202h100l-241 -1202q-10 -55 -11 -76q0 -94 125 -94z" />
    <glyph glyph-name="Lslash" unicode="&#x141;" horiz-adv-x="1128" 
d="M991 92l-16 -92h-846l125 629l-166 -99l18 99l168 98l146 731h106l-133 -665l363 213l-21 -99l-362 -213l-121 -602h739z" />
    <glyph glyph-name="lslash" unicode="&#x142;" horiz-adv-x="604" 
d="M248 180q0 -94 125 -94h76l-19 -86h-92q-72 0 -130 39t-58 137q0 45 8 80l96 475l-145 -82l18 92l145 82l127 635h101l-117 -575l192 110l-18 -92l-192 -110l-107 -535q-10 -55 -10 -76z" />
    <glyph glyph-name="Nacute" unicode="&#x143;" horiz-adv-x="1437" 
d="M1219 1882l-261 -297h-118l245 297h134zM1419 1458l-293 -1458h-106l-543 1276l-256 -1276h-106l293 1458h106l543 -1276l256 1276h106z" />
    <glyph glyph-name="nacute" unicode="&#x144;" horiz-adv-x="1087" 
d="M967 1493l-260 -297h-119l246 297h133zM948 719q0 -43 -10 -94l-125 -625h-100l123 612q12 70 12 105q0 96 -56 146t-162 50t-196 -76q-91 -76 -123 -231l-121 -606h-100l197 987h100l-22 -117q109 129 305 129q126 -1 202 -77t76 -203z" />
    <glyph glyph-name="Ncommaaccent" unicode="&#x145;" horiz-adv-x="1437" 
d="M694 -139l-182 -303h-125l199 303h108zM1419 1458l-293 -1458h-106l-543 1276l-256 -1276h-106l293 1458h106l543 -1276l256 1276h106z" />
    <glyph glyph-name="ncommaaccent" unicode="&#x146;" horiz-adv-x="1087" 
d="M541 -139l-183 -303h-125l199 303h109zM948 719q0 -43 -10 -94l-125 -625h-100l123 612q12 70 12 105q0 96 -56 146t-162 50t-196 -76q-91 -76 -123 -231l-121 -606h-100l197 987h100l-22 -117q109 129 305 129q126 -1 202 -77t76 -203z" />
    <glyph glyph-name="Ncaron" unicode="&#x147;" horiz-adv-x="1437" 
d="M1268 1886l-299 -301h-107l-182 301h104l138 -227l229 227h117zM1419 1458l-293 -1458h-106l-543 1276l-256 -1276h-106l293 1458h106l543 -1276l256 1276h106z" />
    <glyph glyph-name="ncaron" unicode="&#x148;" horiz-adv-x="1087" 
d="M1016 1497l-299 -301h-107l-182 301h104l138 -227l229 227h117zM948 719q0 -43 -10 -94l-125 -625h-100l123 612q12 70 12 105q0 96 -56 146t-162 50t-196 -76q-91 -76 -123 -231l-121 -606h-100l197 987h100l-22 -117q109 129 305 129q126 -1 202 -77t76 -203z" />
    <glyph glyph-name="napostrophe" unicode="&#x149;" horiz-adv-x="1087" 
d="M381 1458l-55 -262l-131 -115l77 377h109zM948 719q0 -43 -10 -94l-125 -625h-100l123 612q12 70 12 105q0 96 -56 146t-162 50t-196 -76q-91 -76 -123 -231l-121 -606h-100l197 987h100l-22 -117q109 129 305 129q126 -1 202 -77t76 -203z" />
    <glyph glyph-name="Eng" unicode="&#x14a;" horiz-adv-x="1437" 
d="M805 -356q78 0 122 41t62 131l35 176l-547 1284l-256 -1276h-106l293 1458h106l543 -1276l256 1276h106l-332 -1655q-51 -246 -276 -245h-84l16 86h62z" />
    <glyph glyph-name="eng" unicode="&#x14b;" horiz-adv-x="1087" 
d="M948 719q0 -43 -10 -94l-164 -822q-51 -246 -276 -245h-84l16 86h62q78 0 122 41t62 131l160 796q12 70 12 105q0 96 -56 146t-162 50t-196 -76q-91 -76 -123 -231l-121 -606h-100l197 987h100l-22 -117q109 129 305 129q126 -1 202 -77t76 -203z" />
    <glyph glyph-name="Omacron" unicode="&#x14c;" horiz-adv-x="1267" 
d="M1149 1726l-19 -88h-575l18 88h576zM1096 1079q0 143 -86 221t-207 78q-182 0 -311 -135q-60 -63 -98 -169t-87 -353q-49 -248 -49 -342q0 -143 86 -221t207 -78q182 0 311 135q59 63 97 169q37 106 87 353q50 248 50 342zM1202 1085q0 -100 -53 -364t-93 -378t-120 -196
q-154 -160 -389 -159q-172 0 -284 103t-111 282q0 100 53 364t93 378t120 196q154 160 389 159q172 0 284 -103q111 -104 111 -282z" />
    <glyph glyph-name="omacron" unicode="&#x14d;" horiz-adv-x="1017" 
d="M971 1337l-19 -88h-575l18 88h576zM807 672q-1 123 -63 182t-170 59t-202 -95q-95 -95 -141 -324q-20 -109 -20 -179q0 -123 62 -182t170 -59t203 95t140 325q21 108 21 178zM905 676q0 -86 -18 -182q-55 -285 -191 -402q-119 -104 -261 -104t-232 79t-90 244
q0 86 18 183q55 285 191 401q119 104 261 104q142 -1 232 -79t90 -244z" />
    <glyph glyph-name="Obreve" unicode="&#x14e;" horiz-adv-x="1267" 
d="M842 1583q-114 0 -180 50t-66 149q0 20 2 43h90q-2 -20 -2 -39q0 -55 43 -86t123 -31q170 0 209 156h90q-57 -242 -309 -242zM1096 1079q0 143 -86 221t-207 78q-182 0 -311 -135q-60 -63 -98 -169t-87 -353q-49 -248 -49 -342q0 -143 86 -221t207 -78q182 0 311 135
q59 63 97 169q37 106 87 353q50 248 50 342zM1202 1085q0 -100 -53 -364t-93 -378t-120 -196q-154 -160 -389 -159q-172 0 -284 103t-111 282q0 100 53 364t93 378t120 196q154 160 389 159q172 0 284 -103q111 -104 111 -282z" />
    <glyph glyph-name="obreve" unicode="&#x14f;" horiz-adv-x="1017" 
d="M397 1380q0 20 2 43h90q-2 -20 -2 -39q0 -55 43 -86t123 -30q170 0 209 155h90q-57 -242 -309 -241q-115 0 -181 50t-65 148zM807 672q-1 123 -63 182t-170 59t-202 -95q-95 -95 -141 -324q-20 -109 -20 -179q0 -123 62 -182t170 -59t203 95t140 325q21 108 21 178z
M905 676q0 -86 -18 -182q-55 -285 -191 -402q-119 -104 -261 -104t-232 79t-90 244q0 86 18 183q55 285 191 401q119 104 261 104q142 -1 232 -79t90 -244z" />
    <glyph glyph-name="Ohungarumlaut" unicode="&#x150;" horiz-adv-x="1267" 
d="M1284 1882l-262 -297h-117l246 297h133zM997 1882l-260 -297h-119l246 297h133zM1096 1079q0 143 -86 221t-207 78q-182 0 -311 -135q-60 -63 -98 -169t-87 -353q-49 -248 -49 -342q0 -143 86 -221t207 -78q182 0 311 135q59 63 97 169q37 106 87 353q50 248 50 342z
M1202 1085q0 -100 -53 -364t-93 -378t-120 -196q-154 -160 -389 -159q-172 0 -284 103t-111 282q0 100 53 364t93 378t120 196q154 160 389 159q172 0 284 -103q111 -104 111 -282z" />
    <glyph glyph-name="ohungarumlaut" unicode="&#x151;" horiz-adv-x="1017" 
d="M1104 1493l-262 -297h-117l246 297h133zM817 1493l-262 -297h-117l246 297h133zM807 672q-1 123 -63 182t-170 59t-202 -95q-95 -95 -141 -324q-20 -109 -20 -179q0 -123 62 -182t170 -59t203 95t140 325q21 108 21 178zM905 676q0 -86 -18 -182q-55 -285 -191 -402
q-119 -104 -261 -104t-232 79t-90 244q0 86 18 183q55 285 191 401q119 104 261 104q142 -1 232 -79t90 -244z" />
    <glyph glyph-name="OE" unicode="&#x152;" horiz-adv-x="1931" 
d="M1096 1079q0 143 -86 221t-207 78q-182 0 -311 -135q-60 -63 -98 -169t-87 -353q-49 -248 -49 -342q0 -143 86 -221t207 -78q182 0 311 135q59 63 97 169q37 106 87 353q50 248 50 342zM2011 1458l-18 -92h-719l-117 -584h617l-19 -92h-616l-121 -598h737l-18 -92h-840
l29 147q-139 -160 -379 -159q-172 0 -284 103t-111 282q0 100 53 364t93 378t120 196q154 159 398 159t337 -198l37 186h821z" />
    <glyph glyph-name="oe" unicode="&#x153;" horiz-adv-x="1679" 
d="M1460 668q0 123 -60 184t-151 61q-260 0 -352 -360h553q10 62 10 115zM807 672q-1 123 -63 182t-170 59t-202 -95q-95 -95 -141 -324q-20 -109 -20 -179q0 -123 62 -182t170 -59t203 95t140 325q21 108 21 178zM1559 668q0 -76 -23 -195h-653q-14 -82 -15 -145
q0 -115 58 -184t174 -68q160 0 295 123l67 -68q-156 -143 -366 -143q-248 0 -308 225q-125 -225 -364 -225q-131 0 -221 79t-90 244q0 86 18 183q55 285 191 401q119 104 272 104q110 0 188 -55t107 -166q127 221 362 221q150 0 229 -95t79 -236z" />
    <glyph glyph-name="Racute" unicode="&#x154;" horiz-adv-x="1284" 
d="M1104 1882l-260 -297h-119l246 297h133zM1151 1137q0 105 -65 167t-189 62h-401l-121 -596h407q168 0 269 110q100 110 100 257zM905 1458q186 0 269 -91t83 -245q1 -154 -107 -285q-108 -130 -294 -157l217 -680h-117l-213 678h-385l-137 -678h-106l293 1458h497z" />
    <glyph glyph-name="racute" unicode="&#x155;" horiz-adv-x="792" 
d="M754 1493l-260 -297h-119l246 297h133zM649 999q135 0 215 -92l-76 -67q-56 74 -164 74t-198 -88q-90 -87 -115 -218l-121 -608h-100l197 987h100l-27 -131q100 143 289 143z" />
    <glyph glyph-name="Rcommaaccent" unicode="&#x156;" horiz-adv-x="1284" 
d="M618 -139l-182 -303h-125l199 303h108zM1151 1137q0 105 -65 167t-189 62h-401l-121 -596h407q168 0 269 110q100 110 100 257zM905 1458q186 0 269 -91t83 -245q1 -154 -107 -285q-108 -130 -294 -157l217 -680h-117l-213 678h-385l-137 -678h-106l293 1458h497z" />
    <glyph glyph-name="rcommaaccent" unicode="&#x157;" horiz-adv-x="792" 
d="M168 -139l-182 -303h-125l198 303h109zM649 999q135 0 215 -92l-76 -67q-56 74 -164 74t-198 -88q-90 -87 -115 -218l-121 -608h-100l197 987h100l-27 -131q100 143 289 143z" />
    <glyph glyph-name="Rcaron" unicode="&#x158;" horiz-adv-x="1284" 
d="M1153 1886l-299 -301h-106l-183 301h105l137 -227l229 227h117zM1151 1137q0 105 -65 167t-189 62h-401l-121 -596h407q168 0 269 110q100 110 100 257zM905 1458q186 0 269 -91t83 -245q1 -154 -107 -285q-108 -130 -294 -157l217 -680h-117l-213 678h-385l-137 -678
h-106l293 1458h497z" />
    <glyph glyph-name="rcaron" unicode="&#x159;" horiz-adv-x="792" 
d="M803 1497l-299 -301h-107l-182 301h104l138 -227l229 227h117zM649 999q135 0 215 -92l-76 -67q-56 74 -164 74t-198 -88q-90 -87 -115 -218l-121 -608h-100l197 987h100l-27 -131q100 143 289 143z" />
    <glyph glyph-name="Sacute" unicode="&#x15a;" horiz-adv-x="1142" 
d="M1057 1882l-260 -297h-119l246 297h133zM1018 420q0 -199 -153 -316t-382 -116q-145 0 -246 47t-190 153l82 72q137 -180 365 -180q176 0 297 95t120 245q0 117 -58 170t-167 78l-143 32q-309 70 -310 320q0 150 112 292q57 70 159 114t235 44q232 1 373 -163l-76 -66
q-59 70 -128 105t-179 34q-176 0 -284 -108t-107 -256q0 -166 227 -219l144 -33q161 -37 235 -117t74 -227z" />
    <glyph glyph-name="sacute" unicode="&#x15b;" horiz-adv-x="960" 
d="M901 1493l-260 -297h-119l246 297h133zM556 915q-140 -1 -214 -71t-74 -162q0 -106 170 -129l133 -18q131 -17 187 -71t55 -165q0 -111 -94 -203q-115 -108 -342 -108t-352 139l75 66q100 -119 293 -119q154 0 237 70t83 151q0 80 -39 111t-119 40l-135 19
q-250 35 -250 211q0 127 88 215q109 109 299 109t311 -105l-73 -64q-99 84 -239 84z" />
    <glyph glyph-name="Scircumflex" unicode="&#x15c;" horiz-adv-x="1142" 
d="M1063 1585h-105l-137 227l-229 -227h-117l299 301h107zM1018 420q0 -199 -153 -316t-382 -116q-145 0 -246 47t-190 153l82 72q137 -180 365 -180q176 0 297 95t120 245q0 117 -58 170t-167 78l-143 32q-309 70 -310 320q0 150 112 292q57 70 159 114t235 44
q232 1 373 -163l-76 -66q-59 70 -128 105t-179 34q-176 0 -284 -108t-107 -256q0 -166 227 -219l144 -33q161 -37 235 -117t74 -227z" />
    <glyph glyph-name="scircumflex" unicode="&#x15d;" horiz-adv-x="960" 
d="M907 1196h-104l-137 227l-230 -227h-117l299 301h107zM556 915q-140 -1 -214 -71t-74 -162q0 -106 170 -129l133 -18q131 -17 187 -71t55 -165q0 -111 -94 -203q-115 -108 -342 -108t-352 139l75 66q100 -119 293 -119q154 0 237 70t83 151q0 80 -39 111t-119 40l-135 19
q-250 35 -250 211q0 127 88 215q109 109 299 109t311 -105l-73 -64q-99 84 -239 84z" />
    <glyph glyph-name="Scedilla" unicode="&#x15e;" horiz-adv-x="1142" 
d="M539 -139l-183 -303h-125l199 303h109zM1018 420q0 -199 -153 -316t-382 -116q-145 0 -246 47t-190 153l82 72q137 -180 365 -180q176 0 297 95t120 245q0 117 -58 170t-167 78l-143 32q-309 70 -310 320q0 150 112 292q57 70 159 114t235 44q232 1 373 -163l-76 -66
q-59 70 -128 105t-179 34q-176 0 -284 -108t-107 -256q0 -166 227 -219l144 -33q161 -37 235 -117t74 -227z" />
    <glyph glyph-name="scedilla" unicode="&#x15f;" horiz-adv-x="960" 
d="M432 -139l-182 -303h-125l199 303h108zM556 915q-140 -1 -214 -71t-74 -162q0 -106 170 -129l133 -18q131 -17 187 -71t55 -165q0 -111 -94 -203q-115 -108 -342 -108t-352 139l75 66q100 -119 293 -119q154 0 237 70t83 151q0 80 -39 111t-119 40l-135 19
q-250 35 -250 211q0 127 88 215q109 109 299 109t311 -105l-73 -64q-99 84 -239 84z" />
    <glyph glyph-name="Scaron" unicode="&#x160;" horiz-adv-x="1142" 
d="M1106 1886l-299 -301h-107l-182 301h105l137 -227l229 227h117zM1018 420q0 -199 -153 -316t-382 -116q-145 0 -246 47t-190 153l82 72q137 -180 365 -180q176 0 297 95t120 245q0 117 -58 170t-167 78l-143 32q-309 70 -310 320q0 150 112 292q57 70 159 114t235 44
q232 1 373 -163l-76 -66q-59 70 -128 105t-179 34q-176 0 -284 -108t-107 -256q0 -166 227 -219l144 -33q161 -37 235 -117t74 -227z" />
    <glyph glyph-name="scaron" unicode="&#x161;" horiz-adv-x="960" 
d="M950 1497l-299 -301h-106l-183 301h105l137 -227l230 227h116zM556 915q-140 -1 -214 -71t-74 -162q0 -106 170 -129l133 -18q131 -17 187 -71t55 -165q0 -111 -94 -203q-115 -108 -342 -108t-352 139l75 66q100 -119 293 -119q154 0 237 70t83 151q0 80 -39 111t-119 40
l-135 19q-250 35 -250 211q0 127 88 215q109 109 299 109t311 -105l-73 -64q-99 84 -239 84z" />
    <glyph glyph-name="Tcommaaccent" unicode="&#x162;" horiz-adv-x="1048" 
d="M453 -139l-183 -303h-125l199 303h109zM1184 1458l-19 -92h-411l-275 -1366h-106l274 1366h-414l19 92h932z" />
    <glyph glyph-name="tcommaaccent" unicode="&#x163;" horiz-adv-x="638" 
d="M309 -139l-182 -303h-125l199 303h108zM258 180q0 -94 125 -94h76l-19 -86h-92q-72 0 -130 39t-58 137q0 45 8 80l131 657h-133l14 74h133l64 316h100l-63 -316h207l-15 -74h-207l-131 -657q-10 -55 -10 -76z" />
    <glyph glyph-name="Tcaron" unicode="&#x164;" horiz-adv-x="1048" 
d="M1096 1886l-299 -301h-107l-182 301h104l138 -227l229 227h117zM1184 1458l-19 -92h-411l-275 -1366h-106l274 1366h-414l19 92h932z" />
    <glyph glyph-name="tcaron" unicode="&#x165;" horiz-adv-x="638" 
d="M819 1458l-157 -303h-97l142 303h112zM258 180q0 -94 125 -94h76l-19 -86h-92q-72 0 -130 39t-58 137q0 45 8 80l131 657h-133l14 74h133l64 316h100l-63 -316h207l-15 -74h-207l-131 -657q-10 -55 -10 -76z" />
    <glyph glyph-name="Tbar" unicode="&#x166;" horiz-adv-x="1048" 
d="M1184 1458l-19 -92h-411l-119 -590h254l-17 -82h-254l-139 -694h-106l139 694h-248l17 82h247l119 590h-414l19 92h932z" />
    <glyph glyph-name="tbar" unicode="&#x167;" horiz-adv-x="638" 
d="M258 180q0 -94 125 -94h76l-19 -86h-92q-72 0 -130 39t-58 137q0 45 8 80l49 248h-133l14 74h133l68 335h-133l14 74h133l64 316h100l-63 -316h207l-15 -74h-207l-67 -335h207l-15 -74h-207l-49 -248q-10 -55 -10 -76z" />
    <glyph glyph-name="Utilde" unicode="&#x168;" horiz-adv-x="1339" 
d="M1024 1616q-78 0 -137 46t-109 46t-129 -72l-49 62q100 94 178 94t138 -46t109 -46q50 0 128 72l49 -62q-100 -94 -178 -94zM575 -12q-153 0 -273 97t-120 292q0 49 15 125l190 956h107l-195 -971q-10 -55 -10 -108q0 -121 75 -210q74 -89 228 -89t280 106t168 310
l191 962h106l-196 -985q-45 -229 -196 -357t-370 -128z" />
    <glyph glyph-name="utilde" unicode="&#x169;" horiz-adv-x="1087" 
d="M786 1227q-78 0 -137 46t-109 46t-128 -72l-50 62q100 94 178 94t138 -46q59 -46 109 -46t128 71l50 -61q-101 -94 -179 -94zM424 -12q-127 0 -206 77t-79 203q0 43 11 94l124 625h101l-123 -612q-12 -61 -12 -105q0 -96 56 -146t164 -50t197 80q87 73 119 227l121 606
h100l-196 -987h-101l23 117q-109 -129 -299 -129z" />
    <glyph glyph-name="Umacron" unicode="&#x16a;" horiz-adv-x="1339" 
d="M1192 1726l-18 -88h-576l18 88h576zM575 -12q-153 0 -273 97t-120 292q0 49 15 125l190 956h107l-195 -971q-10 -55 -10 -108q0 -121 75 -210q74 -89 228 -89t280 106t168 310l191 962h106l-196 -985q-45 -229 -196 -357t-370 -128z" />
    <glyph glyph-name="umacron" unicode="&#x16b;" horiz-adv-x="1087" 
d="M997 1337l-18 -88h-576l19 88h575zM422 -12q-127 0 -206 77t-79 203q0 43 10 94l125 625h101l-123 -612q-12 -61 -12 -105q0 -96 56 -146t162 -50t196 77t122 230l121 606h100l-196 -987h-101l23 117q-109 -129 -299 -129z" />
    <glyph glyph-name="Ubreve" unicode="&#x16c;" horiz-adv-x="1339" 
d="M885 1583q-115 0 -181 50t-65 149q0 20 2 43h90q-2 -20 -2 -39q0 -55 43 -86t123 -31q170 0 209 156h90q-57 -242 -309 -242zM575 -12q-153 0 -273 97t-120 292q0 49 15 125l190 956h107l-195 -971q-10 -55 -10 -108q0 -121 75 -210q74 -89 228 -89t280 106t168 310
l191 962h106l-196 -985q-45 -229 -196 -357t-370 -128z" />
    <glyph glyph-name="ubreve" unicode="&#x16d;" horiz-adv-x="1087" 
d="M442 1380q0 20 2 43h91q-2 -20 -3 -39q0 -55 43 -86t123 -30q170 0 209 155h90q-57 -242 -309 -241q-114 0 -180 50t-66 148zM422 -12q-127 0 -206 77t-79 203q0 43 10 94l125 625h101l-123 -612q-12 -61 -12 -105q0 -96 56 -146t162 -50t196 77t122 230l121 606h100
l-196 -987h-101l23 117q-109 -129 -299 -129z" />
    <glyph glyph-name="Uring" unicode="&#x16e;" horiz-adv-x="1339" 
d="M1042 1755q0 61 -46 107t-107 45q-61 0 -107 -45q-46 -44 -47 -106q0 -62 46 -108q45 -46 107 -46t108 46t46 107zM1122 1755q0 -96 -68 -166q-68 -69 -165 -69q-96 0 -165 70t-69 165q0 96 69 165t165 69q97 0 165 -69t68 -165zM575 -12q-153 0 -273 97t-120 292
q0 49 15 125l190 956h107l-195 -971q-10 -55 -10 -108q0 -121 75 -210q74 -89 228 -89t280 106t168 310l191 962h106l-196 -985q-45 -229 -196 -357t-370 -128z" />
    <glyph glyph-name="uring" unicode="&#x16f;" horiz-adv-x="1087" 
d="M850 1386q0 60 -46 106t-108 46t-107 -45q-46 -45 -46 -107t46 -107q46 -46 107 -46t108 46q46 46 46 107zM930 1386q0 -96 -69 -166t-165 -69q-96 0 -165 70q-69 69 -69 165t69 165t165 69t165 -69t69 -165zM422 -12q-127 0 -206 77t-79 203q0 43 10 94l125 625h101
l-123 -612q-12 -61 -12 -105q0 -96 56 -146t162 -50t196 77t122 230l121 606h100l-196 -987h-101l23 117q-109 -129 -299 -129z" />
    <glyph glyph-name="Uhungarumlaut" unicode="&#x170;" horiz-adv-x="1339" 
d="M1327 1882l-262 -297h-117l246 297h133zM1040 1882l-260 -297h-118l245 297h133zM575 -12q-153 0 -273 97t-120 292q0 49 15 125l190 956h107l-195 -971q-10 -55 -10 -108q0 -121 75 -210q74 -89 228 -89t280 106t168 310l191 962h106l-196 -985q-45 -229 -196 -357
t-370 -128z" />
    <glyph glyph-name="uhungarumlaut" unicode="&#x171;" horiz-adv-x="1087" 
d="M1130 1493l-262 -297h-116l245 297h133zM844 1493l-262 -297h-117l246 297h133zM422 -12q-127 0 -206 77t-79 203q0 43 10 94l125 625h101l-123 -612q-12 -61 -12 -105q0 -96 56 -146t162 -50t196 77t122 230l121 606h100l-196 -987h-101l23 117q-109 -129 -299 -129z
" />
    <glyph glyph-name="Uogonek" unicode="&#x172;" horiz-adv-x="1339" 
d="M827 -139l-182 -303h-125l199 303h108zM575 -12q-153 0 -273 97t-120 292q0 49 15 125l190 956h107l-195 -971q-10 -55 -10 -108q0 -121 75 -210q74 -89 228 -89t280 106t168 310l191 962h106l-196 -985q-45 -229 -196 -357t-370 -128z" />
    <glyph glyph-name="uogonek" unicode="&#x173;" horiz-adv-x="1087" 
d="M780 -139l-182 -303h-125l199 303h108zM422 -12q-127 0 -206 77t-79 203q0 43 10 94l125 625h101l-123 -612q-12 -61 -12 -105q0 -96 56 -146t162 -50t196 77t122 230l121 606h100l-196 -987h-101l23 117q-109 -129 -299 -129z" />
    <glyph glyph-name="Wcircumflex" unicode="&#x174;" horiz-adv-x="1646" 
d="M1323 1585h-104l-138 227l-229 -227h-117l299 301h107zM1794 1458l-627 -1458h-106l-80 1270l-584 -1270h-106l-60 1458h109l43 -1268l575 1268h109l78 -1268l534 1268h115z" />
    <glyph glyph-name="wcircumflex" unicode="&#x175;" horiz-adv-x="1384" 
d="M1120 1196h-104l-137 227l-230 -227h-117l299 301h107zM1450 987l-483 -987h-103l-102 823l-426 -823h-103l-106 987h104l74 -864l438 864h91l102 -864l407 864h107z" />
    <glyph glyph-name="Ycircumflex" unicode="&#x176;" horiz-adv-x="960" 
d="M985 1585h-104l-138 227l-229 -227h-117l299 301h107zM1135 1458l-576 -860l-121 -598h-106l123 608l-242 850h109l206 -741l488 741h119z" />
    <glyph glyph-name="ycircumflex" unicode="&#x177;" horiz-adv-x="835" 
d="M834 1196h-105l-137 227l-230 -227h-116l299 301h106zM-47 -446h-51l18 86h39q78 0 115 28t82 115l114 219l-145 985h102l115 -862l449 862h112l-674 -1257q-41 -78 -95 -127t-181 -49z" />
    <glyph glyph-name="Ydieresis" unicode="&#x178;" horiz-adv-x="960" 
d="M977 1759l-31 -153h-112l30 153h113zM573 1759l-30 -153h-113l31 153h112zM1135 1458l-576 -860l-121 -598h-106l123 608l-242 850h109l206 -741l488 741h119z" />
    <glyph glyph-name="Zacute" unicode="&#x179;" horiz-adv-x="1093" 
d="M1047 1882l-261 -297h-118l245 297h134zM1151 1458l-18 -92l-977 -1274h735l-19 -92h-847l22 111l967 1255h-701l19 92h819z" />
    <glyph glyph-name="zacute" unicode="&#x17a;" horiz-adv-x="884" 
d="M879 1493l-261 -297h-118l245 297h134zM872 987l-18 -92l-717 -809h570l-17 -86h-680l19 92l716 809h-538l18 86h647z" />
    <glyph glyph-name="Zdotaccent" unicode="&#x17b;" horiz-adv-x="1093" 
d="M862 1749l-24 -123h-123l24 123h123zM1151 1458l-18 -92l-977 -1274h735l-19 -92h-847l22 111l967 1255h-701l19 92h819z" />
    <glyph glyph-name="zdotaccent" unicode="&#x17c;" horiz-adv-x="884" 
d="M694 1360l-24 -123h-123l24 123h123zM872 987l-18 -92l-717 -809h570l-17 -86h-680l19 92l716 809h-538l18 86h647z" />
    <glyph glyph-name="Zcaron" unicode="&#x17d;" horiz-adv-x="1093" 
d="M1096 1886l-299 -301h-107l-182 301h104l138 -227l229 227h117zM1151 1458l-18 -92l-977 -1274h735l-19 -92h-847l22 111l967 1255h-701l19 92h819z" />
    <glyph glyph-name="zcaron" unicode="&#x17e;" horiz-adv-x="884" 
d="M928 1497l-299 -301h-107l-182 301h104l138 -227l229 227h117zM872 987l-18 -92l-717 -809h570l-17 -86h-680l19 92l716 809h-538l18 86h647z" />
    <glyph glyph-name="longs" unicode="&#x17f;" horiz-adv-x="477" 
d="M610 1372q-145 0 -178 -160l-242 -1212h-100l242 1212q49 246 270 246h92l-18 -86h-66z" />
    <glyph glyph-name="uni018F" unicode="&#x18f;" horiz-adv-x="1269" 
d="M258 379q0 -141 89 -220t210 -79q182 0 311 135q55 57 91 150t75 288h-741q-35 -182 -35 -274zM1208 1085q0 -100 -53 -364t-93 -378t-120 -196q-154 -160 -389 -159q-172 0 -287 103t-114 282q0 111 53 372h848q49 242 49 334q0 143 -86 221t-207 78q-188 0 -317 -135
q-66 -70 -107 -192h-109q51 168 142 260q154 160 395 159q172 0 284 -103q111 -104 111 -282z" />
    <glyph glyph-name="florin" unicode="&#x192;" horiz-adv-x="765" 
d="M811 1370q-154 0 -215 -168l-156 -424h215l-16 -73h-225l-432 -1176h-101l432 1176h-211l15 73h223l156 422q31 80 59 129q29 49 97 89t167 40h82l-18 -88h-72z" />
    <glyph glyph-name="uni01B5" unicode="&#x1b5;" horiz-adv-x="1093" 
d="M1151 1458l-18 -92l-453 -590h219l-16 -82h-267l-460 -602h735l-19 -92h-847l22 111l449 583h-222l17 82h268l455 590h-701l19 92h819z" />
    <glyph glyph-name="uni01B6" unicode="&#x1b6;" horiz-adv-x="884" 
d="M872 987l-18 -92l-326 -367h172l-16 -73h-221l-326 -369h570l-17 -86h-680l19 92l321 363h-172l15 73h223l329 373h-538l18 86h647z" />
    <glyph glyph-name="uni01C4" unicode="&#x1c4;" horiz-adv-x="2412" 
d="M2415 1886l-299 -301h-107l-182 301h104l137 -227l230 227h117zM2470 1458l-19 -92l-976 -1274h735l-19 -92h-848l23 111l967 1255h-701l19 92h819zM1151 1065q0 139 -77 220t-240 81h-338l-256 -1274h333q195 0 322 113q72 65 120 189t92 356t44 315zM1255 1064
q0 -92 -47 -336t-100 -378t-150 -221q-143 -129 -370 -129h-473l293 1458h446q296 0 376 -230q24 -70 25 -164z" />
    <glyph glyph-name="uni01C5" unicode="&#x1c5;" horiz-adv-x="2203" 
d="M2247 1497l-299 -301h-107l-182 301h104l138 -227l229 227h117zM2191 987l-18 -92l-717 -809h569l-16 -86h-680l19 92l716 809h-538l18 86h647zM1151 1065q0 139 -77 220t-240 81h-338l-256 -1274h333q195 0 322 113q72 65 120 189t92 356t44 315zM1255 1064
q0 -92 -47 -336t-100 -378t-150 -221q-143 -129 -370 -129h-473l293 1458h446q296 0 376 -230q24 -70 25 -164z" />
    <glyph glyph-name="uni01C6" unicode="&#x1c6;" horiz-adv-x="1935" 
d="M1978 1497l-299 -301h-106l-182 301h104l137 -227l230 227h116zM1923 987l-18 -92l-717 -809h569l-16 -86h-680l18 92l717 809h-539l19 86h647zM786 680q0 233 -202 233q-154 -1 -233 -115t-115 -304q-23 -117 -23 -187q0 -233 203 -233q154 0 232 114t108 268t30 224z
M403 -12q-289 0 -288 323q0 80 20 183q55 281 167 393t288 112t244 -149l122 608h101l-291 -1458h-100l26 127q-115 -139 -289 -139z" />
    <glyph glyph-name="uni01C7" unicode="&#x1c7;" horiz-adv-x="2084" 
d="M1395 -12q-190 0 -291 127l78 67q84 -102 226 -102t239 97q96 97 131 278l200 1003h107l-207 -1030q-90 -440 -483 -440zM979 92l-18 -92h-846l293 1458h106l-274 -1366h739z" />
    <glyph glyph-name="uni01C8" unicode="&#x1c8;" horiz-adv-x="1593" 
d="M1602 1442l-25 -123h-123l25 123h123zM985 -471h-84l17 86h61q78 0 122 41t62 131l240 1200h100l-241 -1212q-51 -246 -277 -246zM979 92l-18 -92h-846l293 1458h106l-274 -1366h739z" />
    <glyph glyph-name="uni01C9" unicode="&#x1c9;" horiz-adv-x="1040" 
d="M1049 1442l-25 -123h-123l25 123h123zM432 -471h-84l17 86h61q78 0 122 41t62 131l240 1200h100l-241 -1212q-51 -246 -277 -246zM352 86h76l-18 -86h-93q-72 0 -130 39t-58 137q0 45 8 80l242 1202h100l-241 -1202q-10 -55 -11 -76q0 -94 125 -94z" />
    <glyph glyph-name="uni01CA" unicode="&#x1ca;" horiz-adv-x="2406" 
d="M1716 -12q-190 0 -291 127l78 67q85 -102 227 -102t238 97t131 278l201 1003h106l-206 -1030q-90 -440 -484 -440zM1419 1458l-293 -1458h-106l-543 1276l-256 -1276h-106l293 1458h106l543 -1276l256 1276h106z" />
    <glyph glyph-name="uni01CB" unicode="&#x1cb;" horiz-adv-x="1914" 
d="M1923 1442l-25 -123h-122l24 123h123zM1307 -471h-84l16 86h61q78 0 122 41t63 131l239 1200h101l-242 -1212q-51 -246 -276 -246zM1419 1458l-293 -1458h-106l-543 1276l-256 -1276h-106l293 1458h106l543 -1276l256 1276h106z" />
    <glyph glyph-name="uni01CC" unicode="&#x1cc;" horiz-adv-x="1564" 
d="M1573 1442l-25 -123h-123l25 123h123zM956 -471h-84l17 86h61q78 0 122 41t63 131l239 1200h101l-242 -1212q-51 -246 -277 -246zM948 719q0 -43 -10 -94l-125 -625h-100l123 612q12 70 12 105q0 96 -56 146t-162 50t-196 -76q-91 -76 -123 -231l-121 -606h-100l197 987
h100l-22 -117q109 129 305 129q126 -1 202 -77t76 -203z" />
    <glyph glyph-name="uni01F1" unicode="&#x1f1;" horiz-adv-x="2412" 
d="M2470 1458l-19 -92l-976 -1274h735l-19 -92h-848l23 111l967 1255h-701l19 92h819zM1151 1065q0 139 -77 220t-240 81h-338l-256 -1274h333q195 0 322 113q72 65 120 189t92 356t44 315zM1255 1064q0 -92 -47 -336t-100 -378t-150 -221q-143 -129 -370 -129h-473
l293 1458h446q296 0 376 -230q24 -70 25 -164z" />
    <glyph glyph-name="uni01F2" unicode="&#x1f2;" horiz-adv-x="2203" 
d="M2191 987l-18 -92l-717 -809h569l-16 -86h-680l19 92l716 809h-538l18 86h647zM1151 1065q0 139 -77 220t-240 81h-338l-256 -1274h333q195 0 322 113q72 65 120 189t92 356t44 315zM1255 1064q0 -92 -47 -336t-100 -378t-150 -221q-143 -129 -370 -129h-473l293 1458
h446q296 0 376 -230q24 -70 25 -164z" />
    <glyph glyph-name="uni01F3" unicode="&#x1f3;" horiz-adv-x="1935" 
d="M1923 987l-18 -92l-717 -809h569l-16 -86h-680l18 92l717 809h-539l19 86h647zM786 680q0 233 -202 233q-154 -1 -233 -115t-115 -304q-23 -117 -23 -187q0 -233 203 -233q154 0 232 114t108 268t30 224zM403 -12q-289 0 -288 323q0 80 20 183q55 281 167 393t288 112
t244 -149l122 608h101l-291 -1458h-100l26 127q-115 -139 -289 -139z" />
    <glyph glyph-name="Aringacute" unicode="&#x1fa;" horiz-adv-x="1171" 
d="M1147 2306l-260 -297h-119l246 297h133zM950 1755q0 61 -46 107t-107 45q-61 0 -107 -45q-46 -44 -47 -106q0 -62 46 -108q45 -46 107 -46t108 46t46 107zM1030 1755q0 -96 -68 -166q-68 -69 -165 -69q-96 0 -165 70t-69 165q0 96 69 165t165 69q97 0 165 -69t68 -165z
M874 446l-122 865l-463 -865h585zM1044 0h-108l-51 354h-643l-193 -354h-117l799 1458h94z" />
    <glyph glyph-name="aringacute" unicode="&#x1fb;" horiz-adv-x="1019" 
d="M993 1937l-260 -297h-119l246 297h133zM809 1386q0 60 -46 106q-45 46 -107 46t-108 -45t-46 -107t46 -107q46 -46 107 -46t108 46q46 46 46 107zM889 1386q0 -96 -69 -166t-165 -69q-96 0 -165 70q-68 69 -68 165t68 165q69 69 165 69t165 -69t69 -165zM451 473
q-131 1 -210 -65t-79 -189q0 -73 53 -109t185 -36t223 86q68 68 88 174l26 139h-286zM885 776q0 -50 -8 -100l-136 -676h-98l23 102q-115 -115 -301 -114q-303 0 -304 231q-1 139 97 237t282 97h314l24 123q8 41 8 74q0 80 -58 120t-158 41t-166 -29q-65 -30 -128 -100
l-63 70q70 78 152 113t200 34q218 -1 289 -121q31 -52 31 -102z" />
    <glyph glyph-name="AEacute" unicode="&#x1fc;" horiz-adv-x="1763" 
d="M1386 1882l-260 -297h-118l245 297h133zM987 1366l-635 -913h451zM1843 1458l-18 -92h-733l-119 -590h626l-18 -92h-627l-118 -592h743l-18 -92h-848l71 360h-491l-250 -360h-123l1024 1458h899z" />
    <glyph glyph-name="aeacute" unicode="&#x1fd;" horiz-adv-x="1634" 
d="M1239 1493l-260 -297h-119l246 297h133zM1415 668q0 123 -60 184t-151 61q-260 0 -352 -360h553q10 62 10 115zM451 473q-131 1 -210 -65t-79 -189q0 -73 53 -109t185 -36t223 86q68 68 88 174l26 139h-286zM1513 668q0 -76 -22 -195h-653q-14 -82 -15 -145
q-1 -115 57 -184t175 -68q160 0 295 123l67 -68q-156 -143 -366 -143q-109 0 -188 49t-111 137q-104 -186 -373 -186q-317 0 -318 231q-1 139 97 237t282 97h314l24 123q8 41 8 74q0 80 -58 120t-158 41t-166 -29q-65 -30 -128 -100l-63 70q70 78 152 113t200 34
q244 0 307 -176q123 176 334 176q150 0 228 -95t79 -236z" />
    <glyph glyph-name="Oslashacute" unicode="&#x1fe;" horiz-adv-x="1267" 
d="M1112 1882l-260 -297h-119l246 297h133zM258 380q0 -93 39 -161l700 1092q-80 68 -194 67q-182 0 -311 -135q-60 -63 -98 -169t-87 -353q-49 -248 -49 -341zM1096 1077q0 92 -39 160l-701 -1092q78 -66 195 -65q182 0 311 135q59 63 97 169q37 106 87 353q50 248 50 340z
M1202 1085q0 -100 -53 -364t-93 -378t-120 -196q-154 -160 -389 -159q-145 0 -246 71l-96 -149h-107l135 211q-82 102 -81 252q0 100 53 364t93 378t120 196q154 160 389 159q143 0 246 -73l98 151h106l-137 -213q82 -102 82 -250z" />
    <glyph glyph-name="oslashacute" unicode="&#x1ff;" horiz-adv-x="1017" 
d="M932 1493l-260 -297h-119l246 297h133zM211 314q0 -71 22 -121l502 669q-59 51 -163 51t-200 -95q-95 -95 -141 -324q-20 -109 -20 -180zM807 675q0 73 -25 122l-503 -670q55 -53 163 -53t204 95q95 95 140 325q21 108 21 181zM905 694q0 -104 -18 -200
q-55 -285 -191 -402q-119 -104 -256 -104t-219 61l-104 -139h-97l148 196q-55 78 -55 184t18 204q55 285 191 401q119 104 255 104t216 -61l104 139h96l-145 -194q57 -85 57 -189z" />
    <glyph glyph-name="Scommaaccent" unicode="&#x218;" horiz-adv-x="1142" 
d="M539 -139l-183 -303h-125l199 303h109zM1018 420q0 -199 -153 -316t-382 -116q-145 0 -246 47t-190 153l82 72q137 -180 365 -180q176 0 297 95t120 245q0 117 -58 170t-167 78l-143 32q-309 70 -310 320q0 150 112 292q57 70 159 114t235 44q232 1 373 -163l-76 -66
q-59 70 -128 105t-179 34q-176 0 -284 -108t-107 -256q0 -166 227 -219l144 -33q161 -37 235 -117t74 -227z" />
    <glyph glyph-name="scommaaccent" unicode="&#x219;" horiz-adv-x="960" 
d="M432 -139l-182 -303h-125l199 303h108zM556 915q-140 -1 -214 -71t-74 -162q0 -106 170 -129l133 -18q131 -17 187 -71t55 -165q0 -111 -94 -203q-115 -108 -342 -108t-352 139l75 66q100 -119 293 -119q154 0 237 70t83 151q0 80 -39 111t-119 40l-135 19
q-250 35 -250 211q0 127 88 215q109 109 299 109t311 -105l-73 -64q-99 84 -239 84z" />
    <glyph glyph-name="uni021A" unicode="&#x21a;" horiz-adv-x="1048" 
d="M453 -139l-183 -303h-125l199 303h109zM1184 1458l-19 -92h-411l-275 -1366h-106l274 1366h-414l19 92h932z" />
    <glyph glyph-name="uni021B" unicode="&#x21b;" horiz-adv-x="638" 
d="M309 -139l-182 -303h-125l199 303h108zM258 180q0 -94 125 -94h76l-19 -86h-92q-72 0 -130 39t-58 137q0 45 8 80l131 657h-133l14 74h133l64 316h100l-63 -316h207l-15 -74h-207l-131 -657q-10 -55 -10 -76z" />
    <glyph glyph-name="uni0237" unicode="&#x237;" horiz-adv-x="477" 
d="M-131 -471h-84l16 86h62q78 0 122 41t62 131l240 1200h100l-242 -1212q-51 -246 -276 -246z" />
    <glyph glyph-name="uni0259" unicode="&#x259;" horiz-adv-x="1021" 
d="M219 319q1 -123 61 -184t150 -61q260 0 352 360h-553q-10 -62 -10 -115zM121 319q0 76 22 195h654q14 82 14 145q0 115 -57 184t-174 68q-160 0 -295 -123l-68 68q156 143 367 143q154 0 240 -89t85 -248q0 -236 -106 -442q-53 -103 -151 -168q-98 -64 -236 -64t-216 95
t-79 236z" />
    <glyph glyph-name="uni02BB" unicode="&#x2bb;" horiz-adv-x="505" 
d="M543 1602l-58 -287h-135l29 143z" />
    <glyph glyph-name="afii57929" unicode="&#x2bc;" horiz-adv-x="505" 
d="M514 1458l-29 -143l-163 -144l57 287h135z" />
    <glyph glyph-name="circumflex" unicode="&#x2c6;" horiz-adv-x="1017" 
d="M938 1196h-104l-138 227l-229 -227h-117l299 301h107z" />
    <glyph glyph-name="caron" unicode="&#x2c7;" horiz-adv-x="1017" 
d="M981 1497l-299 -301h-107l-182 301h105l137 -227l229 227h117z" />
    <glyph glyph-name="breve" unicode="&#x2d8;" horiz-adv-x="1017" 
d="M506 1384q0 -55 43 -86t123 -30q170 0 209 155h90q-57 -242 -309 -241q-115 0 -181 50t-65 148q0 20 2 43h90q-2 -20 -2 -39z" />
    <glyph glyph-name="dotaccent" unicode="&#x2d9;" horiz-adv-x="1017" 
d="M748 1360l-25 -123h-123l25 123h123z" />
    <glyph glyph-name="ring" unicode="&#x2da;" horiz-adv-x="1017" 
d="M823 1386q0 60 -46 106t-107 46q-62 0 -108 -45t-46 -107t46 -107q46 -46 108 -46t107 46q46 46 46 107zM903 1386q-1 -96 -69 -166t-164 -69q-96 0 -165 70q-69 69 -69 165t69 165t165 69t164 -69t69 -165z" />
    <glyph glyph-name="ogonek" unicode="&#x2db;" horiz-adv-x="1017" 
d="M475 -139l-182 -303h-125l199 303h108z" />
    <glyph glyph-name="tilde" unicode="&#x2dc;" horiz-adv-x="1017" 
d="M788 1227q-78 0 -137 46t-109 46t-128 -72l-49 62q100 94 178 94t137 -46q60 -46 110 -46t128 71l49 -61q-101 -94 -179 -94z" />
    <glyph glyph-name="hungarumlaut" unicode="&#x2dd;" horiz-adv-x="1017" 
d="M1104 1493l-262 -297h-117l246 297h133zM817 1493l-262 -297h-117l246 297h133z" />
    <glyph glyph-name="uni0394" unicode="&#x394;" horiz-adv-x="1148" 
d="M920 92l-177 1223l-663 -1223h840zM1032 0h-1112l803 1458h90z" />
    <glyph glyph-name="uni03A9" unicode="&#x3a9;" horiz-adv-x="1267" 
d="M1202 1085q0 -76 -51 -353t-91 -388t-126 -197q-35 -35 -74 -55h180l-18 -92h-369l19 92q98 31 194 127q58 59 96 165t86 363q48 256 48 334q0 139 -85 218t-200 79q-184 0 -319 -135q-62 -61 -100 -167t-86 -364q-48 -257 -48 -348t51 -168t137 -104l-18 -92h-354l18 92
h178q-119 96 -118 281q0 76 51 353t91 389t124 196q160 160 391 159q168 0 281 -105q112 -106 112 -280z" />
    <glyph glyph-name="uni03BC" unicode="&#x3bc;" horiz-adv-x="1087" 
d="M416 -12q-145 0 -223 102l-113 -561h-98l290 1458h101l-123 -612q-12 -70 -12 -105q0 -96 56 -146t162 -50t196 77t122 230l121 606h100l-196 -987h-101l23 117q-109 -129 -305 -129z" />
    <glyph glyph-name="pi" unicode="&#x3c0;" horiz-adv-x="1148" 
d="M1010 987l-197 -987h-100l180 901h-522l-181 -901h-100l197 987h723z" />
    <glyph glyph-name="uni0400" unicode="&#x400;" horiz-adv-x="1167" 
d="M883 1585h-107l-145 297h125zM1247 1458l-18 -92h-733l-117 -584h629l-19 -92h-629l-120 -598h747l-18 -92h-854l293 1458h839z" />
    <glyph glyph-name="afii10023" unicode="&#x401;" horiz-adv-x="1167" 
d="M1126 1759l-30 -153h-113l31 153h112zM723 1759l-31 -153h-112l30 153h113zM1247 1458l-18 -92h-733l-117 -584h629l-19 -92h-629l-120 -598h747l-18 -92h-854l293 1458h839z" />
    <glyph glyph-name="afii10051" unicode="&#x402;" horiz-adv-x="1372" 
d="M1257 518q0 -226 -138 -372t-371 -146h-84l18 92h68q172 0 286 117t115 307q0 266 -291 266h-287l-155 -782h-107l275 1366h-353l19 92h932l-19 -92h-473l-98 -492h280q201 0 292 -96t91 -260z" />
    <glyph glyph-name="afii10052" unicode="&#x403;" horiz-adv-x="1077" 
d="M1073 1882l-260 -297h-119l246 297h133zM1233 1458l-19 -92h-718l-275 -1366h-106l293 1458h825z" />
    <glyph glyph-name="afii10053" unicode="&#x404;" horiz-adv-x="1253" 
d="M799 1378q-178 0 -307 -135q-60 -63 -96 -159t-77 -302h558l-19 -92h-557q-43 -218 -43 -334t91 -196t233 -80t253 94q110 94 156 234h109q-58 -195 -204 -308q-146 -112 -326 -112t-300 100q-119 100 -118 285q0 113 54 375t92 370t122 195q150 157 363 157t318 -114
t107 -305h-106q-2 155 -82 241t-221 86z" />
    <glyph glyph-name="afii10054" unicode="&#x405;" horiz-adv-x="1142" 
d="M1018 420q0 -199 -153 -316t-382 -116q-145 0 -246 47t-190 153l82 72q137 -180 365 -180q176 0 297 95t120 245q0 117 -58 170t-167 78l-143 32q-309 70 -310 320q0 150 112 292q57 70 159 114t235 44q232 1 373 -163l-76 -66q-59 70 -128 105t-179 34q-176 0 -284 -108
t-107 -256q0 -166 227 -219l144 -33q161 -37 235 -117t74 -227z" />
    <glyph glyph-name="afii10055" unicode="&#x406;" horiz-adv-x="532" 
d="M514 1458l-293 -1458h-106l293 1458h106z" />
    <glyph glyph-name="afii10056" unicode="&#x407;" horiz-adv-x="532" 
d="M762 1759l-31 -153h-113l31 153h113zM358 1759l-30 -153h-113l31 153h112zM514 1458l-293 -1458h-106l293 1458h106z" />
    <glyph glyph-name="afii10057" unicode="&#x408;" horiz-adv-x="968" 
d="M279 -12q-190 0 -291 127l78 67q84 -102 226 -102t238 97t132 278l200 1003h107l-207 -1030q-90 -440 -483 -440z" />
    <glyph glyph-name="afii10058" unicode="&#x409;" horiz-adv-x="2019" 
d="M1821 492q0 110 -65 180t-204 69h-391l-129 -649h391q174 0 286 110t112 290zM1927 494q0 -218 -137 -356t-371 -138h-512l275 1366h-533l-104 -522q-126 -621 -332 -771q-100 -73 -242 -73h-59l18 92h37q105 0 185 60t158 240q79 181 143 499l112 567h742l-125 -624h381
q193 0 279 -100t85 -240z" />
    <glyph glyph-name="afii10059" unicode="&#x40a;" horiz-adv-x="2054" 
d="M1855 492q-1 110 -65 180t-203 69h-391l-129 -649h391q174 0 286 110q111 110 111 290zM1962 494q0 -218 -137 -356t-371 -138h-512l150 741h-721l-150 -741h-106l293 1458h106l-125 -624h721l125 624h106l-124 -624h380q193 0 279 -100t86 -240z" />
    <glyph glyph-name="afii10060" unicode="&#x40b;" horiz-adv-x="1413" 
d="M1257 539q0 -51 -14 -117l-86 -422h-106l90 440q10 47 10 92q0 109 -65 180t-203 70h-310l-155 -782h-107l275 1366h-353l19 92h932l-19 -92h-473l-98 -492h291q188 0 280 -92t92 -243z" />
    <glyph glyph-name="afii10061" unicode="&#x40c;" horiz-adv-x="1114" 
d="M1083 1882l-260 -297h-118l245 297h133zM514 1458l-293 -1458h-106l293 1458h106zM375 758l727 700h149l-745 -704l508 -754h-146z" />
    <glyph glyph-name="uni040D" unicode="&#x40d;" horiz-adv-x="1437" 
d="M991 1585h-106l-146 297h125zM1419 1458l-293 -1458h-106l254 1266l-1053 -1266h-106l293 1458h106l-254 -1265l1053 1265h106z" />
    <glyph glyph-name="afii10062" unicode="&#x40e;" horiz-adv-x="1122" 
d="M188 0h-110l18 92h78q78 0 130 38t110 126l96 147l-301 1055h108l267 -946l604 946h119l-801 -1237q-76 -117 -147 -169t-171 -52zM764 1544q-114 0 -180 53t-66 152q0 18 2 41h96q-2 -23 -2 -43q0 -57 41 -92t115 -35q164 0 207 170h96q-59 -246 -309 -246z" />
    <glyph glyph-name="afii10145" unicode="&#x40f;" horiz-adv-x="1318" 
d="M1300 1458l-292 -1458h-394l-65 -348h-107l66 348h-393l293 1458h106l-274 -1366h680l274 1366h106z" />
    <glyph glyph-name="afii10017" unicode="&#x410;" horiz-adv-x="1171" 
d="M874 446l-122 865l-463 -865h585zM1044 0h-108l-51 354h-643l-193 -354h-117l799 1458h94z" />
    <glyph glyph-name="afii10018" unicode="&#x411;" horiz-adv-x="1267" 
d="M1028 492q0 110 -64 180t-204 69h-391l-129 -649h391q173 0 285 110t112 290zM770 834q193 0 279 -100t86 -240q1 -218 -137 -356t-371 -138h-512l293 1458h809l-19 -92h-702l-107 -532h381z" />
    <glyph glyph-name="afii10019" unicode="&#x412;" horiz-adv-x="1308" 
d="M1139 1137q0 229 -265 229h-378l-115 -573h401q160 1 258 99t99 245zM1036 461q0 115 -69 176q-70 61 -189 61h-418l-120 -606h436q158 0 259 104t101 265zM1143 462q0 -204 -130 -333t-333 -129h-565l293 1458h477q94 0 164 -24q71 -24 107 -59q36 -34 62 -93t27 -163
q-1 -103 -65 -212t-217 -162q180 -79 180 -283z" />
    <glyph glyph-name="afii10020" unicode="&#x413;" horiz-adv-x="1077" 
d="M1233 1458l-19 -92h-718l-275 -1366h-106l293 1458h825z" />
    <glyph glyph-name="afii10021" unicode="&#x414;" horiz-adv-x="1329" 
d="M1169 1366h-530l-104 -522q-92 -465 -320 -752h698zM1294 1458l-274 -1366h166l-88 -440h-107l70 348h-1008l-67 -348h-107l82 440h135q133 162 216 359t139 475l106 532h737z" />
    <glyph glyph-name="afii10022" unicode="&#x415;" horiz-adv-x="1167" 
d="M1247 1458l-18 -92h-733l-117 -584h629l-19 -92h-629l-120 -598h747l-18 -92h-854l293 1458h839z" />
    <glyph glyph-name="afii10024" unicode="&#x416;" horiz-adv-x="1697" 
d="M1104 1458l-293 -1458h-106l292 1458h107zM965 758l718 700h150l-737 -704l499 -754h-145zM856 760l-788 -760h-162l821 770l-465 688h135z" />
    <glyph glyph-name="afii10025" unicode="&#x417;" horiz-adv-x="1189" 
d="M1126 1140q0 -290 -290 -395q190 -83 190 -289t-134 -337t-356 -131t-330 114q-110 114 -112 306h107q0 -154 87 -241q86 -87 254 -87t273 105q104 105 105 276q0 115 -73 176t-196 61h-174l19 95h159q166 0 266 93q99 93 99 238q0 92 -61 174t-224 81t-271 -95
t-153 -233h-108q61 199 200 309t339 110t292 -99t92 -231z" />
    <glyph glyph-name="afii10026" unicode="&#x418;" horiz-adv-x="1437" 
d="M1419 1458l-293 -1458h-106l254 1266l-1053 -1266h-106l293 1458h106l-254 -1265l1053 1265h106z" />
    <glyph glyph-name="afii10027" unicode="&#x419;" horiz-adv-x="1437" 
d="M938 1544q-114 0 -180 53t-66 152q0 18 2 41h97q-2 -23 -3 -43q0 -57 41 -92t115 -35q164 0 207 170h96q-59 -246 -309 -246zM1419 1458l-293 -1458h-106l254 1266l-1053 -1266h-106l293 1458h106l-254 -1265l1053 1265h106z" />
    <glyph glyph-name="afii10028" unicode="&#x41a;" horiz-adv-x="1114" 
d="M514 1458l-293 -1458h-106l293 1458h106zM375 758l727 700h149l-745 -704l508 -754h-146z" />
    <glyph glyph-name="afii10029" unicode="&#x41b;" horiz-adv-x="1325" 
d="M-29 0h-59l18 92h37q105 0 185 60t158 240q79 181 143 499l112 567h742l-293 -1458h-107l275 1366h-533l-104 -522q-126 -621 -332 -771q-100 -73 -242 -73z" />
    <glyph glyph-name="afii10030" unicode="&#x41c;" horiz-adv-x="1591" 
d="M1573 1458l-293 -1458h-106l243 1198l-614 -956h-107l-231 970l-242 -1212h-108l293 1458h104l258 -1096l698 1096h105z" />
    <glyph glyph-name="afii10031" unicode="&#x41d;" horiz-adv-x="1359" 
d="M1341 1458l-292 -1458h-107l139 690h-721l-139 -690h-106l293 1458h106l-135 -676h721l135 676h106z" />
    <glyph glyph-name="afii10032" unicode="&#x41e;" horiz-adv-x="1267" 
d="M1096 1079q0 143 -86 221t-207 78q-182 0 -311 -135q-60 -63 -98 -169t-87 -353q-49 -248 -49 -342q0 -143 86 -221t207 -78q182 0 311 135q59 63 97 169q37 106 87 353q50 248 50 342zM1202 1085q0 -100 -53 -364t-93 -378t-120 -196q-154 -160 -389 -159
q-172 0 -284 103t-111 282q0 100 53 364t93 378t120 196q154 160 389 159q172 0 284 -103q111 -104 111 -282z" />
    <glyph glyph-name="afii10033" unicode="&#x41f;" horiz-adv-x="1318" 
d="M1300 1458l-292 -1458h-107l275 1366h-680l-275 -1366h-106l293 1458h892z" />
    <glyph glyph-name="afii10034" unicode="&#x420;" horiz-adv-x="1226" 
d="M1153 1116q-1 110 -65 180t-203 70h-391l-129 -649h391q174 -1 286 109t111 290zM1260 1118q0 -217 -138 -355t-370 -138h-406l-125 -625h-106l293 1458h487q193 0 279 -100t86 -240z" />
    <glyph glyph-name="afii10035" unicode="&#x421;" horiz-adv-x="1253" 
d="M799 1378q-178 0 -307 -135q-62 -66 -98 -169t-86 -352q-50 -250 -50 -366t91 -196t233 -80t253 94q110 94 156 234h109q-58 -195 -204 -308q-146 -112 -326 -112t-300 100q-119 100 -118 285q0 113 54 375t92 370t122 195q150 157 363 157t318 -114t107 -305h-106
q-2 155 -82 241t-221 86z" />
    <glyph glyph-name="afii10036" unicode="&#x422;" horiz-adv-x="1048" 
d="M1184 1458l-19 -92h-411l-275 -1366h-106l274 1366h-414l19 92h932z" />
    <glyph glyph-name="afii10037" unicode="&#x423;" horiz-adv-x="1122" 
d="M188 0h-110l18 92h78q78 0 130 38t110 126l96 147l-301 1055h108l267 -946l604 946h119l-801 -1237q-76 -117 -147 -169t-171 -52z" />
    <glyph glyph-name="afii10038" unicode="&#x424;" horiz-adv-x="1523" 
d="M868 1280q-256 0 -385 -100q-75 -58 -117 -138t-68 -208t-26 -220q0 -158 102 -246t290 -89zM1364 944q0 158 -102 247t-289 89l-205 -1001q256 0 385 100q74 57 117 137q42 80 68 209t26 219zM1470 950q0 -96 -28 -240t-78 -234q-156 -290 -612 -290l-37 -192h-107
l37 192q-223 2 -351 111t-128 311q0 96 28 240t78 234q49 90 144 165q158 125 469 125l24 133h107l-25 -133q223 -2 351 -110t128 -312z" />
    <glyph glyph-name="afii10039" unicode="&#x425;" horiz-adv-x="1038" 
d="M1159 1458l-536 -719l288 -739h-116l-248 655l-488 -655h-125l572 760l-264 698h116l224 -616l450 616h127z" />
    <glyph glyph-name="afii10040" unicode="&#x426;" horiz-adv-x="1335" 
d="M1300 1458l-274 -1366h166l-88 -440h-107l70 348h-952l293 1458h106l-274 -1366h680l274 1366h106z" />
    <glyph glyph-name="afii10041" unicode="&#x427;" horiz-adv-x="1267" 
d="M600 553q-170 0 -264 77t-94 220q0 49 10 104l98 504h107l-99 -493q-10 -51 -10 -101q0 -219 256 -219q182 0 387 57l152 756h106l-293 -1458h-106l123 610q-203 -57 -373 -57z" />
    <glyph glyph-name="afii10042" unicode="&#x428;" horiz-adv-x="1880" 
d="M1862 1458l-293 -1458h-1454l293 1458h106l-274 -1366h567l274 1366h107l-275 -1366h568l274 1366h107z" />
    <glyph glyph-name="afii10043" unicode="&#x429;" horiz-adv-x="1896" 
d="M1862 1458l-275 -1366h166l-88 -440h-106l69 348h-1513l293 1458h106l-274 -1366h567l274 1366h107l-275 -1366h568l274 1366h107z" />
    <glyph glyph-name="afii10044" unicode="&#x42a;" horiz-adv-x="1423" 
d="M1225 492q0 110 -65 180t-204 69h-391l-129 -649h391q174 0 286 110t112 290zM1331 494q0 -218 -137 -356t-371 -138h-512l275 1366h-353l19 92h459l-125 -624h381q193 0 279 -100t85 -240z" />
    <glyph glyph-name="afii10045" unicode="&#x42b;" horiz-adv-x="1667" 
d="M1649 1458l-293 -1458h-107l293 1458h107zM1028 492q0 110 -64 180t-204 69h-391l-129 -649h391q173 0 285 110t112 290zM1135 494q1 -218 -137 -356t-371 -138h-512l293 1458h106l-125 -624h381q193 0 279 -100t86 -240z" />
    <glyph glyph-name="afii10046" unicode="&#x42c;" horiz-adv-x="1226" 
d="M1028 492q0 110 -64 180t-204 69h-391l-129 -649h391q173 0 285 110t112 290zM1135 494q1 -218 -137 -356t-371 -138h-512l293 1458h106l-125 -624h381q193 0 279 -100t86 -240z" />
    <glyph glyph-name="afii10047" unicode="&#x42d;" horiz-adv-x="1253" 
d="M1190 1085q0 -113 -54 -375t-92 -370t-122 -195q-152 -158 -381 -157q-190 0 -298 108t-110 312h107q2 -154 82 -241t221 -87q178 0 307 135q61 63 96 161t78 314h-557l18 92h557q41 205 41 303q0 133 -91 213q-92 80 -232 80t-250 -95t-152 -232h-106q55 184 194 302
q140 117 322 117t302 -100t120 -285z" />
    <glyph glyph-name="afii10048" unicode="&#x42e;" horiz-adv-x="1751" 
d="M1579 1079q0 143 -86 221t-207 78q-182 0 -311 -135q-59 -63 -97 -169t-87 -353q-49 -248 -50 -342q0 -143 86 -221t207 -78q182 0 312 135q59 63 97 169t87 353q49 248 49 342zM1686 1085q0 -100 -54 -364t-93 -378q-40 -114 -120 -196q-154 -160 -389 -159
q-172 0 -284 103t-111 282q0 100 43 317h-320l-137 -690h-106l293 1458h106l-137 -676h319q47 236 88 342t117 187q154 160 389 159q172 0 284 -104t112 -281z" />
    <glyph glyph-name="afii10049" unicode="&#x42f;" horiz-adv-x="1284" 
d="M735 1366q-176 0 -272 -113t-96 -237q0 -246 254 -246h399l121 596h-406zM260 979q0 96 28 174q109 305 470 305h508l-293 -1458h-107l135 678h-385l-485 -678h-129l500 688q-129 27 -186 111q-56 84 -56 180z" />
    <glyph glyph-name="afii10065" unicode="&#x430;" horiz-adv-x="1019" 
d="M451 473q-131 1 -210 -65t-79 -189q0 -73 53 -109t185 -36t223 86q68 68 88 174l26 139h-286zM885 776q0 -50 -8 -100l-136 -676h-98l23 102q-115 -115 -301 -114q-303 0 -304 231q-1 139 97 237t282 97h314l24 123q8 41 8 74q0 80 -58 120t-158 41t-166 -29
q-65 -30 -128 -100l-63 70q70 78 152 113t200 34q218 -1 289 -121q31 -52 31 -102z" />
    <glyph glyph-name="afii10066" unicode="&#x431;" horiz-adv-x="1013" 
d="M807 676q1 123 -63 180t-170 57t-201 -96q-96 -96 -142 -323q-20 -109 -20 -183q0 -123 63 -180t169 -57t202 96t141 324q21 108 21 182zM594 999q96 0 190 -55q53 -32 87 -102t34 -159t-18 -189q-55 -285 -191 -402q-119 -104 -272 -104q-95 0 -191 55q-53 31 -87 101
t-34 165q0 94 58 382q57 288 113 424q55 136 142 206q87 71 221 103t370 38l-19 -92q-381 -8 -508 -115q-71 -61 -111 -151t-75 -250q102 145 291 145z" />
    <glyph glyph-name="afii10067" unicode="&#x432;" horiz-adv-x="1040" 
d="M836 748q0 154 -207 153h-258l-72 -354h293q128 1 186 57t58 144zM764 293q0 170 -207 170h-274l-76 -377h282q275 0 275 207zM936 754q0 -188 -195 -252q125 -56 125 -202t-101 -223t-280 -77h-395l199 987h350q297 0 297 -233z" />
    <glyph glyph-name="afii10068" unicode="&#x433;" horiz-adv-x="776" 
d="M854 987l-16 -86h-467l-181 -901h-100l199 987h565z" />
    <glyph glyph-name="afii10069" unicode="&#x434;" horiz-adv-x="1085" 
d="M846 901h-371l-45 -227q-78 -410 -233 -588h485zM963 987l-181 -901h148l-74 -373h-98l57 287h-762l-57 -287h-98l73 373h115q82 92 142 227t110 387l57 287h568z" />
    <glyph glyph-name="afii10070" unicode="&#x435;" horiz-adv-x="1021" 
d="M803 668q-1 123 -61 184t-150 61q-260 0 -352 -360h553q10 62 10 115zM901 668q0 -76 -22 -195h-654q-14 -82 -14 -145q0 -115 57 -184t174 -68q160 0 295 123l68 -68q-156 -143 -367 -143q-154 0 -240 89t-85 249q0 235 106 441q53 103 151 168t236 65t216 -96
q78 -95 79 -236z" />
    <glyph glyph-name="afii10072" unicode="&#x436;" horiz-adv-x="1265" 
d="M778 987l-196 -987h-101l197 987h100zM580 506l-529 -506h-137l555 520l-324 467h115zM684 506l496 481h131l-514 -483l346 -504h-125z" />
    <glyph glyph-name="afii10073" unicode="&#x437;" horiz-adv-x="976" 
d="M872 752q0 -186 -204 -250q135 -60 135 -206t-108 -227t-292 -81q-248 0 -366 155l74 62q106 -131 297 -131q150 0 222 61t72 156q0 174 -219 174h-127l17 82h145q133 0 195 56q61 56 61 136t-59 127t-170 47q-158 0 -299 -133l-62 64q166 156 367 155q157 0 239 -68
t82 -179z" />
    <glyph glyph-name="afii10074" unicode="&#x438;" horiz-adv-x="1101" 
d="M1012 987l-197 -987h-100l164 819l-689 -819h-100l197 987h100l-164 -819l688 819h101z" />
    <glyph glyph-name="afii10075" unicode="&#x439;" horiz-adv-x="1101" 
d="M440 1382q0 18 2 41h97q-2 -23 -2 -43q0 -57 41 -92t114 -35q164 0 207 170h96q-59 -246 -309 -245q-114 0 -180 53t-66 151zM1012 987l-197 -987h-100l164 819l-689 -819h-100l197 987h100l-164 -819l688 819h101z" />
    <glyph glyph-name="afii10076" unicode="&#x43a;" horiz-adv-x="892" 
d="M387 987l-197 -987h-100l197 987h100zM293 506l522 481h129l-538 -483l368 -504h-121z" />
    <glyph glyph-name="afii10077" unicode="&#x43b;" horiz-adv-x="1034" 
d="M-16 0h-41l16 86h31q38 0 72 14t78 58q93 94 155 399l86 430h563l-196 -987h-101l180 901h-366l-78 -389q-57 -292 -159 -402t-240 -110z" />
    <glyph glyph-name="afii10078" unicode="&#x43c;" horiz-adv-x="1255" 
d="M1165 987l-190 -987h-101l150 774l-412 -614h-94l-176 624l-152 -784h-100l191 987h100l203 -723l481 723h100z" />
    <glyph glyph-name="afii10079" unicode="&#x43d;" horiz-adv-x="1093" 
d="M1004 987l-197 -987h-100l92 463h-516l-93 -463h-100l197 987h100l-88 -438h516l88 438h101z" />
    <glyph glyph-name="afii10080" unicode="&#x43e;" horiz-adv-x="1017" 
d="M807 672q-1 123 -63 182t-170 59t-202 -95q-95 -95 -141 -324q-20 -109 -20 -179q0 -123 62 -182t170 -59t203 95t140 325q21 108 21 178zM905 676q0 -86 -18 -182q-55 -285 -191 -402q-119 -104 -261 -104t-232 79t-90 244q0 86 18 183q55 285 191 401q119 104 261 104
q142 -1 232 -79t90 -244z" />
    <glyph glyph-name="afii10081" unicode="&#x43f;" horiz-adv-x="1142" 
d="M1004 987l-197 -987h-100l180 901h-516l-181 -901h-100l197 987h717z" />
    <glyph glyph-name="afii10082" unicode="&#x440;" horiz-adv-x="1050" 
d="M840 680q0 233 -203 233q-154 -1 -233 -115t-115 -304q-23 -117 -23 -187q0 -233 203 -233q155 0 233 114t115 306q23 116 23 186zM938 676q0 -80 -20 -182q-55 -282 -168 -394t-288 -112t-243 149l-123 -608h-100l291 1458h100l-27 -127q115 139 289 139q289 1 289 -323
z" />
    <glyph glyph-name="afii10083" unicode="&#x441;" horiz-adv-x="960" 
d="M614 913q-140 1 -245 -113q-106 -114 -142 -306q-16 -88 -16 -156q0 -133 72 -199t174 -65q145 0 268 129l61 -72q-141 -143 -323 -143t-266 102t-84 254q0 78 14 150q43 231 172 368q129 138 319 138t293 -152l-73 -60q-84 125 -224 125z" />
    <glyph glyph-name="afii10084" unicode="&#x442;" horiz-adv-x="808" 
d="M887 987l-17 -86h-335l-181 -901h-100l180 901h-334l17 86h770z" />
    <glyph glyph-name="afii10085" unicode="&#x443;" horiz-adv-x="835" 
d="M-47 -446h-51l18 86h39q78 0 115 28t82 115l114 219l-145 985h102l115 -862l449 862h112l-674 -1257q-41 -78 -95 -127t-181 -49z" />
    <glyph glyph-name="afii10086" unicode="&#x444;" horiz-adv-x="1292" 
d="M1087 610q0 283 -307 301l-168 -837q276 6 397 210q42 71 60 168t18 158zM205 377q0 -283 307 -301l168 837q-278 -6 -396 -210q-42 -71 -60 -168t-19 -158zM1188 612q0 -70 -22 -180q-45 -219 -218 -344q-133 -96 -354 -100l-90 -459h-101l91 461q-176 14 -283 112
q-106 98 -107 273q0 69 23 181q45 218 215 343q133 96 354 100l92 459h101l-92 -461q175 -15 283 -113t108 -272z" />
    <glyph glyph-name="afii10087" unicode="&#x445;" horiz-adv-x="903" 
d="M905 987l-393 -487l225 -500h-116l-181 428l-336 -428h-122l411 514l-215 473h117l172 -403l315 403h123z" />
    <glyph glyph-name="afii10088" unicode="&#x446;" horiz-adv-x="1124" 
d="M1001 987l-180 -901h148l-74 -373h-98l57 287h-764l197 987h100l-180 -901h514l180 901h100z" />
    <glyph glyph-name="afii10089" unicode="&#x447;" horiz-adv-x="1042" 
d="M454 356q-132 0 -200 58t-68 168q0 37 11 92l61 313h100l-61 -309q-10 -49 -10 -90q0 -139 180 -139q139 0 285 40l100 498h100l-196 -987h-101l80 403q-150 -47 -281 -47z" />
    <glyph glyph-name="afii10090" unicode="&#x448;" horiz-adv-x="1550" 
d="M1460 987l-196 -987h-1174l197 987h100l-180 -901h436l180 901h101l-181 -901h437l180 901h100z" />
    <glyph glyph-name="afii10091" unicode="&#x449;" horiz-adv-x="1583" 
d="M1460 987l-180 -901h147l-73 -373h-99l58 287h-1223l197 987h100l-180 -901h436l180 901h101l-181 -901h437l180 901h100z" />
    <glyph glyph-name="afii10092" unicode="&#x44a;" horiz-adv-x="1026" 
d="M803 332q0 164 -191 164h-237l-82 -410h242q101 0 165 45t84 97t19 104zM903 344q0 -158 -98 -251t-273 -93h-356l180 901h-256l19 86h354l-82 -405h248q137 0 201 -70t63 -168z" />
    <glyph glyph-name="afii10093" unicode="&#x44b;" horiz-adv-x="1304" 
d="M1214 987l-196 -987h-100l196 987h100zM717 332q0 164 -191 164h-237l-82 -410h242q101 0 165 45t84 97t19 104zM817 344q0 -158 -98 -251t-273 -93h-356l197 987h100l-82 -405h248q137 0 201 -70t63 -168z" />
    <glyph glyph-name="afii10094" unicode="&#x44c;" horiz-adv-x="940" 
d="M717 332q0 164 -191 164h-237l-82 -410h242q101 0 165 45t84 97t19 104zM817 344q0 -158 -98 -251t-273 -93h-356l197 987h100l-82 -405h248q137 0 201 -70t63 -168z" />
    <glyph glyph-name="afii10095" unicode="&#x44d;" horiz-adv-x="960" 
d="M848 643q0 -326 -170 -516q-125 -139 -333 -139t-308 145l72 68q85 -127 239 -127t254 108q100 113 131 289h-444l16 82h440q4 43 5 96q0 129 -73 197t-160 68t-146 -30q-59 -28 -125 -98l-58 64q142 150 316 150t259 -106q85 -104 85 -251z" />
    <glyph glyph-name="afii10096" unicode="&#x44e;" horiz-adv-x="1384" 
d="M1174 672q0 123 -62 182t-171 59q-108 0 -203 -95t-140 -324q-20 -109 -20 -179q0 -123 62 -182t170 -59t203 95t140 325q21 108 21 178zM1272 676q0 -86 -19 -182q-55 -286 -182 -396t-269 -110t-233 79q-90 79 -90 244q0 84 13 152h-209l-93 -463h-100l197 987h100
l-88 -438h209q55 240 177 345q123 105 265 105q142 -1 232 -79t90 -244z" />
    <glyph glyph-name="afii10097" unicode="&#x44f;" horiz-adv-x="983" 
d="M535 901q-155 0 -220 -92q-53 -75 -53 -156q0 -166 195 -166h237l82 414h-241zM162 641q0 158 100 252t275 94h356l-197 -987h-100l82 401h-248l-283 -401h-118l299 414q-86 27 -126 88t-40 139z" />
    <glyph glyph-name="uni0450" unicode="&#x450;" horiz-adv-x="1021" 
d="M705 1196h-107l-145 297h125zM803 668q-1 123 -61 184t-150 61q-260 0 -352 -360h553q10 62 10 115zM901 668q0 -76 -22 -195h-654q-14 -82 -14 -145q0 -115 57 -184t174 -68q160 0 295 123l68 -68q-156 -143 -367 -143q-154 0 -240 89t-85 249q0 235 106 441
q53 103 151 168t236 65t216 -96q78 -95 79 -236z" />
    <glyph glyph-name="afii10071" unicode="&#x451;" horiz-adv-x="1021" 
d="M948 1370l-30 -153h-113l31 153h112zM545 1370l-31 -153h-113l31 153h113zM803 668q-1 123 -61 184t-150 61q-260 0 -352 -360h553q10 62 10 115zM901 668q0 -76 -22 -195h-654q-14 -82 -14 -145q0 -115 57 -184t174 -68q160 0 295 123l68 -68q-156 -143 -367 -143
q-154 0 -240 89t-85 249q0 235 106 441q53 103 151 168t236 65t216 -96q78 -95 79 -236z" />
    <glyph glyph-name="afii10099" unicode="&#x452;" horiz-adv-x="1087" 
d="M948 719q0 -43 -10 -94l-141 -701q-59 -293 -326 -293h-82l17 86h57q99 1 157 53t80 167l136 675q12 61 12 105q0 96 -56 146t-162 50t-196 -76q-91 -76 -123 -231l-121 -606h-100l229 1155h-129l17 78h129l45 225h100l-45 -225h465l-16 -78h-465l-55 -285
q109 129 299 129q128 -1 206 -77t78 -203z" />
    <glyph glyph-name="afii10100" unicode="&#x453;" horiz-adv-x="776" 
d="M866 1493l-260 -297h-119l246 297h133zM854 987l-16 -86h-467l-181 -901h-100l199 987h565z" />
    <glyph glyph-name="afii10101" unicode="&#x454;" horiz-adv-x="960" 
d="M614 913q-140 0 -236 -103q-97 -103 -138 -257h446l-16 -82h-447q-12 -70 -12 -133q0 -133 72 -199t174 -65q145 0 268 129l61 -72q-141 -143 -323 -143t-266 102t-84 254q0 78 14 150q43 231 172 368q129 138 319 138t293 -152l-73 -60q-84 125 -224 125z" />
    <glyph glyph-name="afii10102" unicode="&#x455;" horiz-adv-x="960" 
d="M556 915q-140 -1 -214 -71t-74 -162q0 -106 170 -129l133 -18q131 -17 187 -71t55 -165q0 -111 -94 -203q-115 -108 -342 -108t-352 139l75 66q100 -119 293 -119q154 0 237 70t83 151q0 80 -39 111t-119 40l-135 19q-250 35 -250 211q0 127 88 215q109 109 299 109
t311 -105l-73 -64q-99 84 -239 84z" />
    <glyph glyph-name="afii10103" unicode="&#x456;" horiz-adv-x="477" 
d="M485 1442l-24 -123h-123l24 123h123zM387 987l-197 -987h-100l197 987h100z" />
    <glyph glyph-name="afii10104" unicode="&#x457;" horiz-adv-x="477" 
d="M659 1370l-30 -153h-113l31 153h112zM256 1370l-31 -153h-112l30 153h113zM387 987l-197 -987h-100l197 987h100z" />
    <glyph glyph-name="afii10105" unicode="&#x458;" horiz-adv-x="477" 
d="M485 1442l-24 -123h-123l24 123h123zM-131 -471h-84l16 86h62q78 0 122 41t62 131l240 1200h100l-242 -1212q-51 -246 -276 -246z" />
    <glyph glyph-name="afii10106" unicode="&#x459;" horiz-adv-x="1517" 
d="M1294 332q0 164 -190 164h-238l-82 -410h242q100 0 165 45t84 97t19 104zM1395 344q-1 -158 -99 -251t-272 -93h-356l180 901h-387l-78 -389q-57 -292 -159 -402t-240 -110h-41l16 86h31q38 0 72 14t78 58q93 94 155 399l86 430h584l-80 -405h245q137 0 201 -70t64 -168z
" />
    <glyph glyph-name="afii10107" unicode="&#x45a;" horiz-adv-x="1556" 
d="M1333 332q0 164 -190 164h-238l-82 -410h242q100 0 165 45t84 97t19 104zM1434 344q0 -158 -98 -251t-273 -93h-356l98 496h-516l-99 -496h-100l197 987h100l-82 -405h516l82 405h101l-82 -405h247q137 0 201 -70t64 -168z" />
    <glyph glyph-name="afii10108" unicode="&#x45b;" horiz-adv-x="1087" 
d="M948 719q0 -43 -10 -94l-125 -625h-100l123 612q12 61 12 105q0 96 -56 146t-162 50t-196 -76q-91 -76 -123 -231l-121 -606h-100l229 1155h-129l17 78h129l45 225h100l-45 -225h465l-16 -78h-465l-55 -285q109 129 299 129q128 -1 206 -77t78 -203z" />
    <glyph glyph-name="afii10109" unicode="&#x45c;" horiz-adv-x="892" 
d="M920 1493l-261 -297h-118l245 297h134zM387 987l-197 -987h-100l197 987h100zM293 506l522 481h129l-538 -483l368 -504h-121z" />
    <glyph glyph-name="uni045D" unicode="&#x45d;" horiz-adv-x="1101" 
d="M750 1196h-107l-145 297h125zM1012 987l-197 -987h-100l164 819l-689 -819h-100l197 987h100l-164 -819l688 819h101z" />
    <glyph glyph-name="afii10110" unicode="&#x45e;" horiz-adv-x="835" 
d="M-47 -446h-51l18 86h39q78 0 115 28t82 115l114 219l-145 985h102l115 -862l449 862h112l-674 -1257q-41 -78 -95 -127t-181 -49zM385 1380q0 -57 41 -92t115 -35q164 0 207 170h96q-59 -246 -309 -245q-115 0 -181 53t-65 151q0 18 2 41h96q-2 -23 -2 -43z" />
    <glyph glyph-name="afii10193" unicode="&#x45f;" horiz-adv-x="1091" 
d="M1001 987l-196 -987h-307l-58 -287h-98l57 287h-309l197 987h100l-180 -901h514l180 901h100z" />
    <glyph glyph-name="afii10146" unicode="&#x462;" horiz-adv-x="1230" 
d="M1032 492q0 110 -64 180t-204 69h-391l-129 -649h391q174 0 286 110q111 110 111 290zM774 834q193 0 279 -100t86 -240q1 -218 -137 -356t-371 -138h-512l229 1145h-155l16 82h156l47 231h106l-47 -231h346l-16 -82h-346l-62 -311h381z" />
    <glyph glyph-name="afii10194" unicode="&#x463;" horiz-adv-x="964" 
d="M741 332q0 164 -190 164h-238l-82 -410h242q100 0 165 45t84 97t19 104zM842 344q0 -158 -98 -251t-273 -93h-356l151 762h-133l17 74h131l30 151h101l-31 -151h276l-14 -74h-276l-37 -180h248q136 0 200 -70t64 -168z" />
    <glyph glyph-name="afii10147" unicode="&#x472;" horiz-adv-x="1267" 
d="M1096 1079q0 143 -86 221t-207 78q-182 0 -311 -135q-58 -61 -94 -157t-79 -304h736q41 205 41 297zM258 379q0 -143 86 -221t207 -78q182 0 311 135q57 59 93 159t81 316h-735q-43 -215 -43 -311zM1202 1085q0 -100 -53 -364t-93 -378t-120 -196q-154 -160 -389 -159
q-172 0 -284 103t-111 282q0 100 53 364t93 378t120 196q154 160 389 159q172 0 284 -103q111 -104 111 -282z" />
    <glyph glyph-name="afii10195" unicode="&#x473;" horiz-adv-x="1017" 
d="M807 672q-1 123 -63 182t-170 59t-198 -91q-91 -91 -136 -285h555q12 74 12 135zM211 315q0 -123 62 -182t170 -59t199 91t136 290h-555q-12 -80 -12 -140zM905 676q0 -86 -18 -182q-55 -285 -191 -402q-119 -104 -261 -104t-232 79t-90 244q0 86 18 183q55 285 191 401
q119 104 261 104q142 -1 232 -79t90 -244z" />
    <glyph glyph-name="afii10148" unicode="&#x474;" horiz-adv-x="1038" 
d="M1321 1366q-82 0 -138 -37t-102 -127l-610 -1202h-90l-172 1458h108l144 -1270l522 1049q111 221 317 221h111l-18 -92h-72z" />
    <glyph glyph-name="afii10196" unicode="&#x475;" horiz-adv-x="835" 
d="M977 901q-78 0 -114 -29t-83 -114l-409 -758h-101l-145 987h102l115 -862l356 686q41 78 95 127t182 49h51l-18 -86h-31z" />
    <glyph glyph-name="afii10050" unicode="&#x490;" horiz-adv-x="1077" 
d="M1298 1786l-84 -420h-718l-275 -1366h-106l293 1458h718l66 328h106z" />
    <glyph glyph-name="afii10098" unicode="&#x491;" horiz-adv-x="780" 
d="M918 1294l-80 -393h-467l-181 -901h-100l199 987h467l61 307h101z" />
    <glyph glyph-name="uni0492" unicode="&#x492;" horiz-adv-x="1097" 
d="M1253 1458l-18 -92h-719l-119 -590h346l-16 -82h-346l-139 -694h-107l139 694h-155l16 82h156l137 682h825z" />
    <glyph glyph-name="uni0493" unicode="&#x493;" horiz-adv-x="827" 
d="M905 987l-16 -86h-467l-66 -323h279l-14 -74h-279l-100 -504h-101l101 504h-131l16 74h131l82 409h565z" />
    <glyph glyph-name="uni0496" unicode="&#x496;" horiz-adv-x="1691" 
d="M1104 1458l-293 -1458h-106l292 1458h107zM856 760l-788 -760h-162l821 770l-465 688h135zM1614 92l-88 -440h-107l70 348h-39l-485 758l718 700h150l-737 -704l438 -662h80z" />
    <glyph glyph-name="uni0497" unicode="&#x497;" horiz-adv-x="1265" 
d="M778 987l-196 -987h-101l197 987h100zM580 506l-529 -506h-137l555 520l-324 467h115zM1161 92l-88 -440h-106l69 348h-18l-334 506l496 481h131l-514 -483l282 -412h82z" />
    <glyph glyph-name="uni049A" unicode="&#x49a;" horiz-adv-x="1114" 
d="M514 1458l-293 -1458h-106l293 1458h106zM1032 92l-88 -440h-106l69 348h-39l-493 758l727 700h149l-745 -704l446 -662h80z" />
    <glyph glyph-name="uni049B" unicode="&#x49b;" horiz-adv-x="890" 
d="M387 987l-197 -987h-100l197 987h100zM793 92l-88 -440h-107l70 348h-15l-360 506l522 481h129l-538 -483l301 -412h86z" />
    <glyph glyph-name="uni049C" unicode="&#x49c;" horiz-adv-x="1245" 
d="M522 711l-65 -316h-97l66 316h-64l-141 -711h-106l293 1458h106l-133 -655h63l66 315h98l-67 -315h53l639 655h149l-704 -704l467 -754h-146l-421 711h-56z" />
    <glyph glyph-name="uni049D" unicode="&#x49d;" horiz-adv-x="1021" 
d="M346 461h-63l-93 -461h-100l197 987h100l-88 -444h63l52 270h92l-51 -270h49l442 444h129l-497 -483l327 -504h-121l-288 461h-58l-53 -271h-92z" />
    <glyph glyph-name="uni04A2" unicode="&#x4a2;" horiz-adv-x="1359" 
d="M1120 92l-88 -440h-106l69 348h-53l139 690h-721l-139 -690h-106l293 1458h106l-135 -676h721l135 676h106l-274 -1366h53z" />
    <glyph glyph-name="uni04A3" unicode="&#x4a3;" horiz-adv-x="1093" 
d="M870 86l-73 -373h-99l56 287h-47l92 463h-516l-93 -463h-100l197 987h100l-88 -438h516l88 438h101l-181 -901h47z" />
    <glyph glyph-name="uni04AE" unicode="&#x4ae;" horiz-adv-x="960" 
d="M1135 1458l-576 -860l-121 -598h-106l123 608l-242 850h109l206 -741l488 741h119z" />
    <glyph glyph-name="uni04AF" unicode="&#x4af;" horiz-adv-x="835" 
d="M905 987l-534 -987l-95 -471h-100l94 471l-145 987h102l115 -862l449 862h114z" />
    <glyph glyph-name="uni04B0" unicode="&#x4b0;" horiz-adv-x="960" 
d="M1135 1458l-570 -850h250l-16 -82h-254l-107 -526h-106l106 526h-248l17 82h248l-242 850h109l206 -741l488 741h119z" />
    <glyph glyph-name="uni04B1" unicode="&#x4b1;" horiz-adv-x="835" 
d="M905 987l-534 -987h202l-16 -74h-201l-80 -397h-100l80 397h-207l14 74h207l-145 987h102l115 -862l449 862h114z" />
    <glyph glyph-name="uni04B2" unicode="&#x4b2;" horiz-adv-x="1038" 
d="M930 92l-88 -440h-107l70 348h-10l-248 655l-488 -655h-125l572 760l-264 698h116l224 -616l450 616h127l-536 -719l251 -647h56z" />
    <glyph glyph-name="uni04B3" unicode="&#x4b3;" horiz-adv-x="903" 
d="M754 86l-74 -373h-98l57 287h-18l-181 428l-336 -428h-122l411 514l-215 473h117l172 -403l315 403h123l-393 -487l186 -414h56z" />
    <glyph glyph-name="uni04B6" unicode="&#x4b6;" horiz-adv-x="1267" 
d="M600 553q-170 0 -264 77t-94 220q0 49 10 104l98 504h107l-99 -493q-10 -51 -10 -101q0 -219 256 -219q182 0 387 57l152 756h106l-274 -1366h53l-88 -440h-106l69 348h-53l123 610q-203 -57 -373 -57z" />
    <glyph glyph-name="uni04B7" unicode="&#x4b7;" horiz-adv-x="1042" 
d="M454 356q-132 0 -200 58t-68 168q0 37 11 92l61 313h100l-61 -309q-10 -49 -10 -90q0 -139 180 -139q139 0 285 40l100 498h100l-180 -901h47l-74 -373h-98l58 287h-50l80 403q-150 -47 -281 -47z" />
    <glyph glyph-name="uni04B8" unicode="&#x4b8;" horiz-adv-x="1267" 
d="M242 850q0 49 10 104l98 504h107l-99 -493q-10 -51 -10 -101q0 -211 240 -219l65 316h99l-66 -312q166 12 305 53l152 756h106l-293 -1458h-106l123 610q-158 -43 -307 -55l-66 -319h-96l65 317q-151 4 -239 81t-88 216z" />
    <glyph glyph-name="uni04B9" unicode="&#x4b9;" horiz-adv-x="1042" 
d="M186 582q0 37 11 92l61 313h100l-61 -309q-10 -49 -10 -90q0 -133 166 -139l51 262h92l-51 -260q94 8 207 38l100 498h100l-196 -987h-101l80 403q-96 -31 -209 -43l-53 -270h-92l53 266q-116 2 -182 60t-66 166z" />
    <glyph glyph-name="uni04BA" unicode="&#x4ba;" horiz-adv-x="1267" 
d="M764 905q170 0 264 -77t94 -220q0 -49 -10 -104l-98 -504h-107l99 494q10 51 10 100q0 219 -256 219q-182 0 -387 -57l-152 -756h-106l293 1458h106l-123 -610q203 57 373 57z" />
    <glyph glyph-name="uni04BB" unicode="&#x4bb;" horiz-adv-x="1042" 
d="M588 631q132 1 200 -57t68 -168q0 -37 -10 -93l-62 -313h-100l61 309q10 49 11 90q0 139 -181 140q-139 0 -284 -41l-101 -498h-100l197 987h100l-80 -403q150 47 281 47z" />
    <glyph glyph-name="uni04C0" unicode="&#x4c0;" horiz-adv-x="532" 
d="M514 1458l-293 -1458h-106l293 1458h106z" />
    <glyph glyph-name="uni04CF" unicode="&#x4cf;" horiz-adv-x="477" 
d="M483 1458l-293 -1458h-100l293 1458h100z" />
    <glyph glyph-name="uni04D8" unicode="&#x4d8;" horiz-adv-x="1269" 
d="M258 379q0 -141 89 -220t210 -79q182 0 311 135q55 57 91 150t75 288h-741q-35 -182 -35 -274zM1208 1085q0 -100 -53 -364t-93 -378t-120 -196q-154 -160 -389 -159q-172 0 -287 103t-114 282q0 111 53 372h848q49 242 49 334q0 143 -86 221t-207 78q-188 0 -317 -135
q-66 -70 -107 -192h-109q51 168 142 260q154 160 395 159q172 0 284 -103q111 -104 111 -282z" />
    <glyph glyph-name="afii10846" unicode="&#x4d9;" horiz-adv-x="1021" 
d="M219 319q1 -123 61 -184t150 -61q260 0 352 360h-553q-10 -62 -10 -115zM121 319q0 76 22 195h654q14 82 14 145q0 115 -57 184t-174 68q-160 0 -295 -123l-68 68q156 143 367 143q154 0 240 -89t85 -248q0 -236 -106 -442q-53 -103 -151 -168q-98 -64 -236 -64t-216 95
t-79 236z" />
    <glyph glyph-name="uni04E2" unicode="&#x4e2;" horiz-adv-x="1437" 
d="M1253 1726l-18 -88h-576l19 88h575zM1419 1458l-293 -1458h-106l254 1266l-1053 -1266h-106l293 1458h106l-254 -1265l1053 1265h106z" />
    <glyph glyph-name="uni04E3" unicode="&#x4e3;" horiz-adv-x="1101" 
d="M1010 1337l-19 -88h-575l18 88h576zM1012 987l-197 -987h-100l164 819l-689 -819h-100l197 987h100l-164 -819l688 819h101z" />
    <glyph glyph-name="uni04E8" unicode="&#x4e8;" horiz-adv-x="1267" 
d="M1096 1079q0 143 -86 221t-207 78q-182 0 -311 -135q-58 -61 -94 -157t-79 -304h736q41 205 41 297zM258 379q0 -143 86 -221t207 -78q182 0 311 135q57 59 93 159t81 316h-735q-43 -215 -43 -311zM1202 1085q0 -100 -53 -364t-93 -378t-120 -196q-154 -160 -389 -159
q-172 0 -284 103t-111 282q0 100 53 364t93 378t120 196q154 160 389 159q172 0 284 -103q111 -104 111 -282z" />
    <glyph glyph-name="uni04E9" unicode="&#x4e9;" horiz-adv-x="1017" 
d="M807 672q-1 123 -63 182t-170 59t-198 -91q-91 -91 -136 -285h555q12 74 12 135zM211 315q0 -123 62 -182t170 -59t199 91t136 290h-555q-12 -80 -12 -140zM905 676q0 -86 -18 -182q-55 -285 -191 -402q-119 -104 -261 -104t-232 79t-90 244q0 86 18 183q55 285 191 401
q119 104 261 104q142 -1 232 -79t90 -244z" />
    <glyph glyph-name="uni04EE" unicode="&#x4ee;" horiz-adv-x="1122" 
d="M1112 1726l-18 -88h-576l19 88h575zM188 0h-110l18 92h78q78 0 130 38t110 126l96 147l-301 1055h108l267 -946l604 946h119l-801 -1237q-76 -117 -147 -169t-171 -52z" />
    <glyph glyph-name="uni04EF" unicode="&#x4ef;" horiz-adv-x="835" 
d="M864 1337l-18 -88h-576l19 88h575zM-47 -446h-51l18 86h39q78 0 115 28t82 115l114 219l-145 985h102l115 -862l449 862h112l-674 -1257q-41 -78 -95 -127t-181 -49z" />
    <glyph glyph-name="Wgrave" unicode="&#x1e80;" horiz-adv-x="1646" 
d="M1087 1585h-106l-145 297h125zM1794 1458l-627 -1458h-106l-80 1270l-584 -1270h-106l-60 1458h109l43 -1268l575 1268h109l78 -1268l534 1268h115z" />
    <glyph glyph-name="wgrave" unicode="&#x1e81;" horiz-adv-x="1384" 
d="M885 1196h-107l-145 297h125zM1450 987l-483 -987h-103l-102 823l-426 -823h-103l-106 987h104l74 -864l438 864h91l102 -864l407 864h107z" />
    <glyph glyph-name="Wacute" unicode="&#x1e82;" horiz-adv-x="1646" 
d="M1317 1882l-260 -297h-119l246 297h133zM1794 1458l-627 -1458h-106l-80 1270l-584 -1270h-106l-60 1458h109l43 -1268l575 1268h109l78 -1268l534 1268h115z" />
    <glyph glyph-name="wacute" unicode="&#x1e83;" horiz-adv-x="1384" 
d="M1149 1493l-260 -297h-119l246 297h133zM1450 987l-483 -987h-103l-102 823l-426 -823h-103l-106 987h104l74 -864l438 864h91l102 -864l407 864h107z" />
    <glyph glyph-name="Wdieresis" unicode="&#x1e84;" horiz-adv-x="1646" 
d="M1286 1759l-31 -153h-112l31 153h112zM883 1759l-31 -153h-113l31 153h113zM1794 1458l-627 -1458h-106l-80 1270l-584 -1270h-106l-60 1458h109l43 -1268l575 1268h109l78 -1268l534 1268h115z" />
    <glyph glyph-name="wdieresis" unicode="&#x1e85;" horiz-adv-x="1384" 
d="M1128 1370l-30 -153h-113l31 153h112zM725 1370l-31 -153h-112l30 153h113zM1450 987l-483 -987h-103l-102 823l-426 -823h-103l-106 987h104l74 -864l438 864h91l102 -864l407 864h107z" />
    <glyph glyph-name="uni1E8A" unicode="&#x1e8a;" horiz-adv-x="1038" 
d="M764 1749l-25 -123h-123l25 123h123zM1159 1458l-536 -719l288 -739h-116l-248 655l-488 -655h-125l572 760l-264 698h116l224 -616l450 616h127z" />
    <glyph glyph-name="uni1E8B" unicode="&#x1e8b;" horiz-adv-x="903" 
d="M682 1360l-25 -123h-122l24 123h123zM905 987l-393 -487l225 -500h-116l-181 428l-336 -428h-122l411 514l-215 473h117l172 -403l315 403h123z" />
    <glyph glyph-name="Ygrave" unicode="&#x1ef2;" horiz-adv-x="960" 
d="M750 1585h-107l-145 297h125zM1135 1458l-576 -860l-121 -598h-106l123 608l-242 850h109l206 -741l488 741h119z" />
    <glyph glyph-name="ygrave" unicode="&#x1ef3;" horiz-adv-x="835" 
d="M594 1196h-107l-145 297h125zM-47 -446h-51l18 86h39q78 0 115 28t82 115l114 219l-145 985h102l115 -862l449 862h112l-674 -1257q-41 -78 -95 -127t-181 -49z" />
    <glyph glyph-name="uni2007" unicode="&#x2007;" 
 />
    <glyph glyph-name="uni2008" unicode="&#x2008;" horiz-adv-x="514" 
 />
    <glyph glyph-name="uni200B" unicode="&#x200b;" horiz-adv-x="0" 
 />
    <glyph glyph-name="endash" unicode="&#x2013;" 
d="M915 586l-18 -90h-793l17 90h794z" />
    <glyph glyph-name="emdash" unicode="&#x2014;" horiz-adv-x="1697" 
d="M1559 586l-19 -90h-1380l18 90h1381z" />
    <glyph glyph-name="afii00208" unicode="&#x2015;" horiz-adv-x="1697" 
d="M1559 586l-19 -90h-1380l18 90h1381z" />
    <glyph glyph-name="quoteleft" unicode="&#x2018;" horiz-adv-x="505" 
d="M543 1602l-58 -287h-135l29 143z" />
    <glyph glyph-name="quoteright" unicode="&#x2019;" horiz-adv-x="505" 
d="M514 1458l-29 -143l-163 -144l57 287h135z" />
    <glyph glyph-name="quotesinglbase" unicode="&#x201a;" horiz-adv-x="505" 
d="M252 143l-29 -143l-166 -143l58 286h137z" />
    <glyph glyph-name="quotedblleft" unicode="&#x201c;" horiz-adv-x="808" 
d="M846 1602l-58 -287h-135l29 143zM543 1602l-58 -287h-135l29 143z" />
    <glyph glyph-name="quotedblright" unicode="&#x201d;" horiz-adv-x="808" 
d="M817 1458l-29 -143l-163 -144l57 287h135zM514 1458l-29 -143l-163 -144l57 287h135z" />
    <glyph glyph-name="quotedblbase" unicode="&#x201e;" horiz-adv-x="808" 
d="M555 143l-29 -143l-166 -143l58 286h137zM252 143l-29 -143l-166 -143l58 286h137z" />
    <glyph glyph-name="dagger" unicode="&#x2020;" horiz-adv-x="1193" 
d="M1143 1022l-17 -86h-393l-188 -936h-99l187 936h-391l18 86h391l86 436h101l-88 -436h393z" />
    <glyph glyph-name="daggerdbl" unicode="&#x2021;" horiz-adv-x="1193" 
d="M1143 1022l-17 -86h-393l-178 -885h397l-16 -86h-397l-88 -436h-99l88 436h-387l17 86h387l176 885h-391l18 86h391l86 436h101l-88 -436h393z" />
    <glyph glyph-name="bullet" unicode="&#x2022;" horiz-adv-x="1062" 
d="M887 684q0 -139 -89 -228q-88 -89 -228 -89t-229 89t-89 228t89 228t228 89t229 -89t89 -228z" />
    <glyph glyph-name="ellipsis" unicode="&#x2026;" horiz-adv-x="1409" 
d="M1155 152l-29 -152h-145l31 152h143zM709 152l-31 -152h-143l30 152h144zM260 152l-29 -152h-145l31 152h143z" />
    <glyph glyph-name="perthousand" unicode="&#x2030;" horiz-adv-x="2285" 
d="M709 1262q0 137 -142 137q-168 0 -209 -205l-41 -205q-6 -31 -6 -71q0 -137 142 -138q168 0 209 205l40 205q7 31 7 72zM795 1266q0 -41 -7 -72l-43 -215q-55 -272 -303 -272q-106 0 -161 56t-56 150q0 41 6 72l43 215q55 272 304 273q106 -1 162 -57t55 -150zM1372 1458
l-936 -1458h-90l936 1458h90zM1407 543q0 137 -141 137q-168 0 -209 -205l-41 -205q-6 -31 -6 -71q0 -137 141 -138q168 0 209 205l41 205q6 31 6 72zM1493 547q0 -41 -6 -72l-43 -215q-55 -272 -303 -272q-106 0 -162 56q-55 56 -55 151q0 41 6 71l43 215q55 272 303 273
q106 0 162 -56t55 -151zM2068 543q0 137 -141 137q-168 0 -209 -205l-41 -205q-6 -31 -6 -71q0 -137 141 -138q168 0 209 205l41 205q6 31 6 72zM2154 547q0 -41 -6 -72l-43 -215q-55 -272 -303 -272q-106 0 -162 56q-55 56 -55 151q0 41 6 71l43 215q55 272 303 273
q105 0 161 -56t56 -151z" />
    <glyph glyph-name="guilsinglleft" unicode="&#x2039;" horiz-adv-x="622" 
d="M553 944l-29 -141l-305 -268l203 -269l-25 -125l-305 402z" />
    <glyph glyph-name="guilsinglright" unicode="&#x203a;" horiz-adv-x="622" 
d="M551 543l-461 -402l29 142l305 268l-203 268l25 125z" />
    <glyph glyph-name="fraction" unicode="&#x2044;" horiz-adv-x="348" 
d="M735 1458l-938 -1458h-90l938 1458h90z" />
    <glyph glyph-name="uni2070" unicode="&#x2070;" horiz-adv-x="612" 
d="M598 1289q0 42 -33 71t-88 29t-105 -40t-67 -128l-78 -396q-6 -27 -6 -53q0 -119 111 -119q63 0 114 40t68 130l78 396q6 28 6 70zM684 1274q0 -33 -6 -57l-78 -394q-26 -133 -104 -190t-164 -57t-142 50t-55 142q0 33 6 57l78 394q27 133 105 190t162 57t142 -49
q56 -49 56 -143z" />
    <glyph glyph-name="uni2074" unicode="&#x2074;" horiz-adv-x="612" 
d="M633 801l-15 -78h-104l-27 -139h-86l29 139h-336l17 78l424 657h96l-426 -657h239l50 248h86l-50 -248h103z" />
    <glyph glyph-name="uni2075" unicode="&#x2075;" horiz-adv-x="612" 
d="M225 766q1 -113 131 -113q136 0 181 219q10 55 10 95q0 119 -111 118q-113 0 -164 -88h-73l92 461h424l-17 -78h-344l-53 -274q57 55 149 55t138 -52q45 -51 45 -115t-10 -122q-33 -164 -100 -230t-175 -67q-108 1 -158 53t-49 132q0 18 2 33h82v-27z" />
    <glyph glyph-name="uni2076" unicode="&#x2076;" horiz-adv-x="612" 
d="M221 806q1 -154 139 -153q70 -1 116 61t46 137q0 157 -140 157q-72 0 -117 -65q-44 -65 -44 -137zM412 1079q92 -1 144 -61t52 -170t-74 -191q-74 -82 -182 -82q-109 0 -163 66t-54 161t92 232l283 424h98l-262 -391q41 12 66 12z" />
    <glyph glyph-name="uni2077" unicode="&#x2077;" horiz-adv-x="612" 
d="M748 1458l-15 -80l-438 -794h-100l438 794h-287l-29 -145h-88l45 225h474z" />
    <glyph glyph-name="uni2078" unicode="&#x2078;" horiz-adv-x="612" 
d="M301 1206q1 -136 135 -135q68 1 116 59t48 124q0 136 -134 135q-68 -1 -117 -59q-48 -58 -48 -124zM535 846q0 156 -150 154q-74 0 -127 -60q-53 -58 -53 -134q-1 -152 147 -153q74 1 128 59t55 134zM686 1273q0 -85 -41 -149t-108 -94q84 -61 84 -174t-75 -197t-210 -84
q-90 1 -154 55t-63 156q0 182 170 256q-74 55 -74 161t76 185q76 78 178 78q101 0 159 -54t58 -139z" />
    <glyph glyph-name="uni2079" unicode="&#x2079;" horiz-adv-x="612" 
d="M596 1230q0 154 -140 154q-72 0 -117 -59q-44 -59 -44 -131q1 -156 141 -156q72 0 116 60t44 132zM209 1193q0 109 74 191q75 82 183 82t162 -64t54 -161q0 -96 -92 -233l-283 -424h-98l262 393q-37 -14 -65 -14q-92 0 -145 60q-52 60 -52 170z" />
    <glyph glyph-name="uni2080" unicode="&#x2080;" horiz-adv-x="612" 
d="M496 397q0 43 -33 72t-88 29t-105 -40t-67 -128l-78 -396q-6 -29 -6 -53q0 -119 110 -119q63 0 115 40q51 40 68 130l77 396q7 26 7 69zM582 383q0 -33 -7 -57l-77 -394q-27 -133 -105 -190t-164 -57t-141 50t-55 142q0 33 6 57l78 394q27 133 104 190q78 57 163 57
q86 0 142 -49t56 -143z" />
    <glyph glyph-name="uni2081" unicode="&#x2081;" horiz-adv-x="612" 
d="M403 567l-176 -874h-84l154 770l-188 -144l20 109l188 139h86z" />
    <glyph glyph-name="uni2082" unicode="&#x2082;" horiz-adv-x="612" 
d="M512 381q0 -121 -121 -246l-350 -364h358l-16 -78h-465l16 78l396 415q92 96 92 191q0 121 -121 121q-143 0 -174 -156h-86q43 233 266 233q101 0 153 -55t52 -139z" />
    <glyph glyph-name="uni2083" unicode="&#x2083;" horiz-adv-x="612" 
d="M494 375q0 -178 -154 -236q49 -25 71 -65t21 -113q0 -113 -73 -195t-200 -81q-127 0 -179 59t-52 129q0 33 2 43h88q-8 -74 28 -114t110 -40t132 50t58 135q0 84 -30 120t-107 35h-16l16 76h14q94 0 139 55q46 55 46 131t-34 104q-34 30 -85 30q-141 0 -180 -148h-86
q55 225 268 225q91 0 147 -54t56 -146z" />
    <glyph glyph-name="uni2084" unicode="&#x2084;" horiz-adv-x="612" 
d="M455 -90l-15 -78h-104l-27 -139h-86l29 139h-336l16 78l424 657h97l-426 -657h239l49 248h86l-49 -248h103z" />
    <glyph glyph-name="uni2085" unicode="&#x2085;" horiz-adv-x="612" 
d="M45 -125q1 -113 131 -113q138 0 180 220q10 55 11 94q0 119 -112 119t-163 -89h-74l93 461h424l-17 -78h-344l-53 -274q57 55 149 55t138 -52t45 -116q0 -64 -11 -120q-34 -164 -100 -231t-174 -67t-158 53q-49 52 -49 132q0 18 2 33h82v-27z" />
    <glyph glyph-name="uni2086" unicode="&#x2086;" horiz-adv-x="612" 
d="M43 -84q1 -154 139 -154q70 0 116 62t46 136q0 157 -140 157q-72 0 -117 -65q-44 -64 -44 -136zM430 -42q0 -110 -74 -192t-182 -81q-108 -1 -163 65q-54 66 -54 161t92 232l283 424h98l-262 -391q41 12 65 12q92 0 145 -60q52 -60 52 -170z" />
    <glyph glyph-name="uni2087" unicode="&#x2087;" horiz-adv-x="612" 
d="M569 567l-14 -80l-438 -794h-101l439 794h-287l-29 -145h-88l45 225h473z" />
    <glyph glyph-name="uni2088" unicode="&#x2088;" horiz-adv-x="612" 
d="M123 316q1 -136 135 -136q68 0 116 58t48 124q0 136 -134 136q-68 0 -117 -58q-48 -58 -48 -124zM356 -46q0 154 -150 155q-74 1 -126 -59q-53 -60 -53 -136q0 -152 147 -152q74 0 128 58t54 134zM508 382q0 -84 -41 -148t-109 -95q84 -61 84 -174t-74 -197t-210 -83
q-90 0 -154 54q-63 54 -63 157q0 182 170 256q-74 54 -74 160t76 185t178 79q101 0 159 -55q58 -54 58 -139z" />
    <glyph glyph-name="uni2089" unicode="&#x2089;" horiz-adv-x="612" 
d="M117 302q1 -156 141 -155q72 -1 116 59t44 132q0 156 -140 156q-72 0 -117 -60q-44 -60 -44 -132zM504 350q0 -96 -92 -233l-283 -424h-98l262 393q-35 -14 -66 -14q-92 0 -144 60t-52 170t73 192q74 82 183 82t163 -66q54 -64 54 -160z" />
    <glyph glyph-name="Euro" unicode="&#x20ac;" horiz-adv-x="1312" 
d="M858 1378q-178 0 -307 -135q-51 -53 -83 -125t-62 -200h475l-15 -74h-475l-43 -217h475l-14 -74h-473q-18 -104 -19 -180q-1 -133 91 -213t234 -80t252 94t157 234h108q-59 -195 -205 -308q-146 -112 -325 -112q-180 0 -299 100t-119 285q0 61 18 180h-125l15 74h123
l43 217h-123l14 74h123q35 156 73 240t107 155q152 157 364 157q211 0 317 -114t108 -305h-107q-2 155 -82 241t-221 86z" />
    <glyph glyph-name="uni20B4" unicode="&#x20b4;" horiz-adv-x="1296" 
d="M620 80q146 0 241 41t198 141l69 -74q-118 -108 -230 -154t-265 -46q-211 0 -334 108t-123 262q0 113 47 195h-119l15 74h162q98 94 301 145l215 55q25 4 59 17h-694l14 74h842q100 70 100 194t-81 197q-81 72 -232 71q-197 0 -371 -155l-67 71q111 94 207 134t235 40
q201 0 307 -96t106 -235t-61 -221h103l-15 -74h-162q-82 -61 -251 -105l-213 -55q-100 -25 -168 -57h751l-14 -74h-844q-66 -71 -66 -189t96 -201t242 -83z" />
    <glyph glyph-name="afii61352" unicode="&#x2116;" horiz-adv-x="1759" 
d="M1722 664l-16 -78h-496l17 78h495zM1831 1238q0 -68 -12 -130q-43 -215 -120 -286t-188 -70q-70 0 -120 31q-97 60 -97 200q0 63 13 125q43 215 119 286t188 70q140 0 194 -110q24 -48 23 -116zM1743 1240q0 70 -39 107q-40 37 -110 37t-118 -55t-82 -228
q-53 -270 137 -270q71 -1 119 55t81 222q12 62 12 132zM1237 1458l-293 -1458h-100l-426 1268l-254 -1268h-101l293 1458h101l426 -1268l254 1268h100z" />
    <glyph glyph-name="trademark" unicode="&#x2122;" horiz-adv-x="1574" 
d="M813 1458l-16 -80h-234l-160 -794h-86l160 794h-239l16 80h559zM1659 1458l-174 -874h-86l135 682l-301 -451h-88l-125 461l-139 -692h-86l174 874h84l149 -555l369 555h88z" />
    <glyph glyph-name="Omega" unicode="&#x2126;" horiz-adv-x="1267" 
d="M1202 1085q0 -76 -51 -353t-91 -388t-126 -197q-35 -35 -74 -55h180l-18 -92h-369l19 92q98 31 194 127q58 59 96 165t86 363q48 256 48 334q0 139 -85 218t-200 79q-184 0 -319 -135q-62 -61 -100 -167t-86 -364q-48 -257 -48 -348t51 -168t137 -104l-18 -92h-354l18 92
h178q-119 96 -118 281q0 76 51 353t91 389t124 196q160 160 391 159q168 0 281 -105q112 -106 112 -280z" />
    <glyph glyph-name="onethird" unicode="&#x2153;" horiz-adv-x="1572" 
d="M1516 682q0 -178 -154 -236q49 -24 71 -64t21 -114q0 -112 -73 -194t-200 -82t-179 59t-52 129q0 33 2 43h88q-8 -73 28 -113t110 -40t132 50t58 134t-30 120t-107 36h-17l17 75h14q94 -1 139 55q46 56 46 131t-34 105t-85 29q-141 0 -181 -148h-86q57 225 269 226
q91 -1 147 -55t56 -146zM1348 1458l-938 -1458h-91l938 1458h91zM582 1458l-176 -874h-84l153 770l-188 -144l20 109l189 139h86z" />
    <glyph glyph-name="twothirds" unicode="&#x2154;" horiz-adv-x="1572" 
d="M1516 682q0 -178 -154 -236q49 -24 71 -64t21 -114q0 -112 -73 -194t-200 -82t-179 59t-52 129q0 33 2 43h88q-8 -73 28 -113t110 -40t132 50t58 134t-30 120t-107 36h-17l17 75h14q94 -1 139 55q46 56 46 131t-34 105t-85 29q-141 0 -181 -148h-86q57 225 269 226
q91 -1 147 -55t56 -146zM1348 1458l-938 -1458h-91l938 1458h91zM690 1272q0 -121 -121 -246l-350 -364h359l-17 -78h-465l17 78l395 415q92 94 92 191q0 121 -121 121q-143 0 -174 -156h-86q43 233 266 233q101 0 153 -55t52 -139z" />
    <glyph glyph-name="uni2155" unicode="&#x2155;" horiz-adv-x="1572" 
d="M1475 410q0 -64 -11 -121q-34 -164 -100 -231q-66 -66 -174 -66t-158 52q-49 52 -49 132q0 18 2 33h82v-27q0 -51 29 -82t86 -30q88 0 132 58t59 137t16 118q0 119 -112 119t-163 -88h-74l93 460h423l-16 -77h-344l-53 -275q57 56 149 56t138 -52t45 -116zM1348 1458
l-938 -1458h-91l938 1458h91zM582 1458l-176 -874h-84l153 770l-188 -144l20 109l189 139h86z" />
    <glyph glyph-name="uni2156" unicode="&#x2156;" horiz-adv-x="1572" 
d="M1475 410q0 -64 -11 -121q-34 -164 -100 -231q-66 -66 -174 -66t-158 52q-49 52 -49 132q0 18 2 33h82v-27q0 -51 29 -82t86 -30q88 0 132 58t59 137t16 118q0 119 -112 119t-163 -88h-74l93 460h423l-16 -77h-344l-53 -275q57 56 149 56t138 -52t45 -116zM1348 1458
l-938 -1458h-91l938 1458h91zM690 1272q0 -121 -121 -246l-350 -364h359l-17 -78h-465l17 78l395 415q92 94 92 191q0 121 -121 121q-143 0 -174 -156h-86q43 233 266 233q101 0 153 -55t52 -139z" />
    <glyph glyph-name="uni2157" unicode="&#x2157;" horiz-adv-x="1572" 
d="M1475 410q0 -64 -11 -121q-34 -164 -100 -231q-66 -66 -174 -66t-158 52q-49 52 -49 132q0 18 2 33h82v-27q0 -51 29 -82t86 -30q88 0 132 58t59 137t16 118q0 119 -112 119t-163 -88h-74l93 460h423l-16 -77h-344l-53 -275q57 56 149 56t138 -52t45 -116zM1348 1458
l-938 -1458h-91l938 1458h91zM670 1266q0 -178 -154 -236q49 -24 71 -64t21 -114q0 -113 -72 -195t-200 -82q-127 -1 -179 59t-53 130q0 33 2 43h89q-9 -74 27 -114t110 -40t132 50q58 51 58 135t-30 120t-107 35h-16l16 76h14q94 0 140 55q45 54 45 130t-34 106t-85 29
q-141 0 -180 -148h-86q55 225 268 225q91 0 147 -54t56 -146z" />
    <glyph glyph-name="uni2158" unicode="&#x2158;" horiz-adv-x="1572" 
d="M1475 410q0 -64 -11 -121q-34 -164 -100 -231q-66 -66 -174 -66t-158 52q-49 52 -49 132q0 18 2 33h82v-27q0 -51 29 -82t86 -30q88 0 132 58t59 137t16 118q0 119 -112 119t-163 -88h-74l93 460h423l-16 -77h-344l-53 -275q57 56 149 56t138 -52t45 -116zM1348 1458
l-938 -1458h-91l938 1458h91zM633 801l-15 -78h-104l-27 -139h-86l29 139h-336l17 78l424 657h96l-426 -657h239l50 248h86l-50 -248h103z" />
    <glyph glyph-name="uni2159" unicode="&#x2159;" horiz-adv-x="1572" 
d="M1065 222q1 -152 139 -152q70 0 116 61t46 136q0 157 -140 157q-72 0 -117 -65q-44 -65 -44 -137zM1452 264q0 -110 -74 -190q-74 -82 -182 -82t-163 66q-54 66 -54 160q0 95 92 233l283 423h98l-262 -391q41 12 65 13q93 0 145 -61t52 -171zM1348 1458l-938 -1458h-91
l938 1458h91zM582 1458l-176 -874h-84l153 770l-188 -144l20 109l189 139h86z" />
    <glyph glyph-name="uni215A" unicode="&#x215a;" horiz-adv-x="1572" 
d="M1065 222q1 -152 139 -152q70 0 116 61t46 136q0 157 -140 157q-72 0 -117 -65q-44 -65 -44 -137zM1452 264q0 -110 -74 -190q-74 -82 -182 -82t-163 66q-54 66 -54 160q0 95 92 233l283 423h98l-262 -391q41 12 65 13q93 0 145 -61t52 -171zM1348 1458l-938 -1458h-91
l938 1458h91zM225 766q1 -113 131 -113q136 0 181 219q10 55 10 95q0 119 -111 118q-113 0 -164 -88h-73l92 461h424l-17 -78h-344l-53 -274q57 55 149 55t138 -52q45 -51 45 -115t-10 -122q-33 -164 -100 -230t-175 -67q-108 1 -158 53t-49 132q0 18 2 33h82v-27z" />
    <glyph glyph-name="oneeighth" unicode="&#x215b;" horiz-adv-x="1572" 
d="M1145 622q1 -136 135 -135q68 1 116 59t48 124q0 136 -134 135q-68 -1 -117 -59q-48 -58 -48 -124zM1049 222q0 -152 147 -152q74 0 128 58t54 134q0 154 -150 154q-74 0 -126 -60q-53 -58 -53 -134zM1313 883q101 -1 159 -55t58 -139t-41 -148t-109 -95q84 -61 84 -174
q0 -112 -74 -196t-210 -84q-90 0 -154 54q-63 54 -63 157q0 182 170 256q-74 55 -74 161t76 184q76 79 178 79zM1348 1458l-938 -1458h-91l938 1458h91zM582 1458l-176 -874h-84l153 770l-188 -144l20 109l189 139h86z" />
    <glyph glyph-name="threeeighths" unicode="&#x215c;" horiz-adv-x="1572" 
d="M1145 622q1 -136 135 -135q68 1 116 59t48 124q0 136 -134 135q-68 -1 -117 -59q-48 -58 -48 -124zM1049 222q0 -152 147 -152q74 0 128 58t54 134q0 154 -150 154q-74 0 -126 -60q-53 -58 -53 -134zM1313 883q101 -1 159 -55t58 -139t-41 -148t-109 -95q84 -61 84 -174
q0 -112 -74 -196t-210 -84q-90 0 -154 54q-63 54 -63 157q0 182 170 256q-74 55 -74 161t76 184q76 79 178 79zM1348 1458l-938 -1458h-91l938 1458h91zM670 1266q0 -178 -154 -236q49 -24 71 -64t21 -114q0 -113 -72 -195t-200 -82q-127 -1 -179 59t-53 130q0 33 2 43h89
q-9 -74 27 -114t110 -40t132 50q58 51 58 135t-30 120t-107 35h-16l16 76h14q94 0 140 55q45 54 45 130t-34 106t-85 29q-141 0 -180 -148h-86q55 225 268 225q91 0 147 -54t56 -146z" />
    <glyph glyph-name="fiveeighths" unicode="&#x215d;" horiz-adv-x="1572" 
d="M1145 622q1 -136 135 -135q68 1 116 59t48 124q0 136 -134 135q-68 -1 -117 -59q-48 -58 -48 -124zM1049 222q0 -152 147 -152q74 0 128 58t54 134q0 154 -150 154q-74 0 -126 -60q-53 -58 -53 -134zM1313 883q101 -1 159 -55t58 -139t-41 -148t-109 -95q84 -61 84 -174
q0 -112 -74 -196t-210 -84q-90 0 -154 54q-63 54 -63 157q0 182 170 256q-74 55 -74 161t76 184q76 79 178 79zM1348 1458l-938 -1458h-91l938 1458h91zM225 766q1 -113 131 -113q136 0 181 219q10 55 10 95q0 119 -111 118q-113 0 -164 -88h-73l92 461h424l-17 -78h-344
l-53 -274q57 55 149 55t138 -52q45 -51 45 -115t-10 -122q-33 -164 -100 -230t-175 -67q-108 1 -158 53t-49 132q0 18 2 33h82v-27z" />
    <glyph glyph-name="seveneighths" unicode="&#x215e;" horiz-adv-x="1572" 
d="M1145 622q1 -136 135 -135q68 1 116 59t48 124q0 136 -134 135q-68 -1 -117 -59q-48 -58 -48 -124zM1049 222q0 -152 147 -152q74 0 128 58t54 134q0 154 -150 154q-74 0 -126 -60q-53 -58 -53 -134zM1313 883q101 -1 159 -55t58 -139t-41 -148t-109 -95q84 -61 84 -174
q0 -112 -74 -196t-210 -84q-90 0 -154 54q-63 54 -63 157q0 182 170 256q-74 55 -74 161t76 184q76 79 178 79zM1348 1458l-938 -1458h-91l938 1458h91zM748 1458l-15 -80l-438 -794h-100l438 794h-287l-29 -145h-88l45 225h474z" />
    <glyph glyph-name="uni215F" unicode="&#x215f;" horiz-adv-x="960" 
d="M1348 1458l-938 -1458h-91l938 1458h91zM582 1458l-176 -874h-84l153 770l-188 -144l20 109l189 139h86z" />
    <glyph glyph-name="arrowleft" unicode="&#x2190;" horiz-adv-x="2103" 
d="M1989 487h-1678l776 -776h-141l-827 828l827 827h141l-776 -776h1678v-103z" />
    <glyph glyph-name="arrowup" unicode="&#x2191;" horiz-adv-x="2103" 
d="M1104 -395h-103v1677l-776 -776v141l828 828l827 -828v-141l-776 776v-1677z" />
    <glyph glyph-name="arrowright" unicode="&#x2192;" horiz-adv-x="2103" 
d="M119 487v103h1677l-776 776h141l828 -827l-828 -828h-141l776 776h-1677z" />
    <glyph glyph-name="arrowdown" unicode="&#x2193;" horiz-adv-x="2103" 
d="M1001 1475h103v-1678l776 776v-141l-827 -827l-828 827v141l776 -776v1678z" />
    <glyph glyph-name="uni2196" unicode="&#x2196;" horiz-adv-x="2103" 
d="M391 1200h1170l100 -100h-1098l1186 -1186l-72 -72l-1188 1186v-1098l-98 99v1171z" />
    <glyph glyph-name="uni2197" unicode="&#x2197;" horiz-adv-x="2103" 
d="M1712 1200v-1171l-98 -99v1098l-1188 -1186l-72 72l1186 1186h-1098l101 100h1169z" />
    <glyph glyph-name="uni2198" unicode="&#x2198;" horiz-adv-x="2103" 
d="M1712 -158h-1169l-101 99h1098l-1186 1185l72 74l1188 -1186v1098l98 -100v-1170z" />
    <glyph glyph-name="uni2199" unicode="&#x2199;" horiz-adv-x="2103" 
d="M391 -158v1170l98 100v-1098l1188 1186l72 -74l-1186 -1185h1098l-100 -99h-1170z" />
    <glyph glyph-name="partialdiff" unicode="&#x2202;" horiz-adv-x="1050" 
d="M784 680q0 123 -65 178q-66 55 -160 55t-185 -86t-141 -333q-23 -113 -22 -187q-1 -123 65 -178t160 -55t186 86t140 334q22 112 22 186zM975 1156q0 -66 -10 -114l-105 -548q-53 -286 -170 -396t-256 -110t-229 80t-90 247q0 86 18 179q53 293 186 411q104 94 261 94
q80 1 148 -37t103 -104l33 178q10 61 10 103q0 121 -59 183t-155 62t-155 -26q-58 -26 -128 -84l-53 69q150 127 329 127q89 0 173 -40t126 -146q24 -62 23 -128z" />
    <glyph glyph-name="Delta" unicode="&#x2206;" horiz-adv-x="1148" 
d="M920 92l-177 1223l-663 -1223h840zM1032 0h-1112l803 1458h90z" />
    <glyph glyph-name="product" unicode="&#x220f;" horiz-adv-x="1359" 
d="M1358 1556l-404 -2027h-106l387 1935h-721l-387 -1935h-104l403 2027h932z" />
    <glyph glyph-name="summation" unicode="&#x2211;" horiz-adv-x="1071" 
d="M1169 1556l-18 -92h-727l223 -864l-20 -98l-551 -881h719l-19 -92h-839l18 92l586 950l-230 893l19 92h839z" />
    <glyph glyph-name="minus" unicode="&#x2212;" 
d="M915 588l-18 -90h-793l19 90h792z" />
    <glyph glyph-name="uni2219" unicode="&#x2219;" 
d="M817 684q0 -139 -89 -228t-228 -89t-229 89q-89 89 -89 228t89 228t229 89t228 -89q89 -89 89 -228z" />
    <glyph glyph-name="radical" unicode="&#x221a;" horiz-adv-x="1069" 
d="M1204 1458l-18 -92h-168l-692 -1366h-88l-119 987h104l92 -799l637 1270h252z" />
    <glyph glyph-name="infinity" unicode="&#x221e;" horiz-adv-x="1540" 
d="M1319 533q0 89 -55 145q-54 56 -136 55q-82 0 -142 -47t-146 -154q86 -104 146 -151t141 -47t137 55q55 55 55 144zM438 737q-80 0 -136 -57q-56 -56 -56 -146t55 -145t136 -55t141 46q59 46 145 152q-89 111 -147 158t-138 47zM1413 532q0 -124 -81 -206
q-80 -82 -192 -82t-189 48t-169 163q-92 -115 -169 -164t-187 -49t-193 83q-81 83 -81 207t81 209q81 84 191 84t188 -50t170 -165q94 117 170 166t188 49t192 -84q81 -84 81 -209z" />
    <glyph glyph-name="integral" unicode="&#x222b;" horiz-adv-x="673" 
d="M690 1372q-145 0 -178 -164l-283 -1421q-34 -187 -152 -237q-52 -22 -126 -21h-84l16 86h68q145 0 178 164l283 1421q34 187 152 237q52 22 126 21h84l-16 -86h-68z" />
    <glyph glyph-name="approxequal" unicode="&#x2248;" 
d="M311 391q-47 0 -84 -18t-106 -74l-51 68q139 121 237 120q49 0 88 -12t118 -55t126 -43t84 18t106 74l52 -68q-139 -121 -238 -120q-49 0 -88 12t-118 55t-126 43zM713 602q-49 0 -88 12t-118 56t-126 43t-84 -19t-107 -73l-51 67q139 121 238 121q49 0 88 -12
q39 -11 118 -55t126 -44t84 18t106 75l51 -68q-139 -121 -237 -121z" />
    <glyph glyph-name="notequal" unicode="&#x2260;" 
d="M975 889l-172 -152h143l-18 -90h-230l-247 -217h436l-19 -90h-520l-250 -219l-53 67l172 152h-143l16 90h229l248 217h-436l19 90h522l248 219z" />
    <glyph glyph-name="lessequal" unicode="&#x2264;" 
d="M707 86l-21 -98l-514 325l21 99zM879 965l-21 -111l-530 -266l428 -266l-21 -99l-514 326l19 92z" />
    <glyph glyph-name="greaterequal" unicode="&#x2265;" 
d="M786 412l-20 -111l-639 -324l20 111zM829 645l-18 -92l-639 -324l21 111l530 266l-428 266l20 99z" />
    <glyph glyph-name="dotmath" unicode="&#x22c5;" 
d="M586 612l-29 -143h-143l28 143h144z" />
    <glyph glyph-name="lozenge" unicode="&#x25ca;" horiz-adv-x="1275" 
d="M1071 729l-272 588l-502 -588l270 -592zM1180 717l-637 -731l-355 755l635 732z" />
    <glyph glyph-name="fi" unicode="&#xfb01;" horiz-adv-x="1064" 
d="M1073 1442l-24 -123h-123l24 123h123zM975 987l-197 -987h-100l196 987h101zM639 1372q-145 0 -178 -160l-45 -225h217l-15 -74h-217l-182 -913h-100l182 913h-127l14 74h127l45 225q49 246 271 246h92l-18 -86h-66z" />
    <glyph glyph-name="fl" unicode="&#xfb02;" horiz-adv-x="1144" 
d="M809 180q0 -94 125 -94h76l-19 -86h-92q-72 0 -130 39t-58 137q0 45 8 80l242 1202h100l-242 -1202q-10 -55 -10 -76zM639 1372q-145 0 -178 -160l-45 -225h217l-15 -74h-217l-182 -913h-100l182 913h-127l14 74h127l45 225q49 246 271 246h92l-18 -86h-66z" />
    <glyph glyph-name="i.latn_TRK" horiz-adv-x="477" 
d="M485 1442l-24 -123h-123l24 123h123zM387 987l-197 -987h-100l197 987h100z" />
    <glyph glyph-name="Ldot.latn_CAT" horiz-adv-x="1116" 
d="M944 797l-24 -123h-123l24 123h123zM979 92l-18 -92h-846l293 1458h106l-274 -1366h739z" />
    <glyph glyph-name="ldot.latn_CAT" horiz-adv-x="563" 
d="M600 602l-25 -123h-122l24 123h123zM352 86h76l-18 -86h-93q-72 0 -130 39t-58 137q0 45 8 80l242 1202h100l-241 -1202q-10 -55 -11 -76q0 -94 125 -94z" />
    <glyph glyph-name="zero.numr" horiz-adv-x="612" 
d="M598 1289q0 42 -33 71t-88 29t-105 -40t-67 -128l-78 -396q-6 -27 -6 -53q0 -119 111 -119q63 0 114 40t68 130l78 396q6 28 6 70zM684 1274q0 -33 -6 -57l-78 -394q-26 -133 -104 -190t-164 -57t-142 50t-55 142q0 33 6 57l78 394q27 133 105 190t162 57t142 -49
q56 -49 56 -143z" />
    <glyph glyph-name="one.numr" horiz-adv-x="612" 
d="M582 1458l-176 -874h-84l153 770l-188 -144l20 109l189 139h86z" />
    <glyph glyph-name="two.numr" horiz-adv-x="612" 
d="M690 1272q0 -121 -121 -246l-350 -364h359l-17 -78h-465l17 78l395 415q92 94 92 191q0 121 -121 121q-143 0 -174 -156h-86q43 233 266 233q101 0 153 -55t52 -139z" />
    <glyph glyph-name="three.numr" horiz-adv-x="612" 
d="M670 1266q0 -178 -154 -236q49 -24 71 -64t21 -114q0 -113 -72 -195t-200 -82q-127 -1 -179 59t-53 130q0 33 2 43h89q-9 -74 27 -114t110 -40t132 50q58 51 58 135t-30 120t-107 35h-16l16 76h14q94 0 140 55q45 54 45 130t-34 106t-85 29q-141 0 -180 -148h-86
q55 225 268 225q91 0 147 -54t56 -146z" />
    <glyph glyph-name="four.numr" horiz-adv-x="612" 
d="M633 801l-15 -78h-104l-27 -139h-86l29 139h-336l17 78l424 657h96l-426 -657h239l50 248h86l-50 -248h103z" />
    <glyph glyph-name="five.numr" horiz-adv-x="612" 
d="M225 766q1 -113 131 -113q136 0 181 219q10 55 10 95q0 119 -111 118q-113 0 -164 -88h-73l92 461h424l-17 -78h-344l-53 -274q57 55 149 55t138 -52q45 -51 45 -115t-10 -122q-33 -164 -100 -230t-175 -67q-108 1 -158 53t-49 132q0 18 2 33h82v-27z" />
    <glyph glyph-name="six.numr" horiz-adv-x="612" 
d="M221 806q1 -154 139 -153q70 -1 116 61t46 137q0 157 -140 157q-72 0 -117 -65q-44 -65 -44 -137zM412 1079q92 -1 144 -61t52 -170t-74 -191q-74 -82 -182 -82q-109 0 -163 66t-54 161t92 232l283 424h98l-262 -391q41 12 66 12z" />
    <glyph glyph-name="seven.numr" horiz-adv-x="612" 
d="M748 1458l-15 -80l-438 -794h-100l438 794h-287l-29 -145h-88l45 225h474z" />
    <glyph glyph-name="eight.numr" horiz-adv-x="612" 
d="M301 1206q1 -136 135 -135q68 1 116 59t48 124q0 136 -134 135q-68 -1 -117 -59q-48 -58 -48 -124zM535 846q0 156 -150 154q-74 0 -127 -60q-53 -58 -53 -134q-1 -152 147 -153q74 1 128 59t55 134zM686 1273q0 -85 -41 -149t-108 -94q84 -61 84 -174t-75 -197t-210 -84
q-90 1 -154 55t-63 156q0 182 170 256q-74 55 -74 161t76 185q76 78 178 78q101 0 159 -54t58 -139z" />
    <glyph glyph-name="nine.numr" horiz-adv-x="612" 
d="M596 1230q0 154 -140 154q-72 0 -117 -59q-44 -59 -44 -131q1 -156 141 -156q72 0 116 60t44 132zM209 1193q0 109 74 191q75 82 183 82t162 -64t54 -161q0 -96 -92 -233l-283 -424h-98l262 393q-37 -14 -65 -14q-92 0 -145 60q-52 60 -52 170z" />
    <glyph glyph-name="zero.dnom" horiz-adv-x="612" 
d="M481 705q0 42 -32 71q-33 29 -88 29t-105 -40t-68 -128l-77 -395q-6 -29 -7 -54q0 -119 111 -118q63 0 115 40q51 40 67 130l78 395q6 28 6 70zM567 690q0 -33 -6 -57l-78 -393q-27 -133 -104 -191q-78 -57 -164 -57t-141 50t-56 142q0 33 7 58l77 393q27 133 105 190
t163 57t141 -48q56 -50 56 -144z" />
    <glyph glyph-name="one.dnom" horiz-adv-x="612" 
d="M465 874l-176 -874h-84l153 770l-188 -143l20 108l189 139h86z" />
    <glyph glyph-name="two.dnom" horiz-adv-x="612" 
d="M573 688q0 -121 -120 -246l-351 -364h359l-17 -78h-464l16 78l395 416q92 96 92 190q0 121 -121 121q-143 0 -174 -156h-86q43 233 267 234q102 1 153 -55t51 -140z" />
    <glyph glyph-name="three.dnom" horiz-adv-x="612" 
d="M555 682q0 -178 -154 -236q49 -24 71 -64t22 -114q0 -112 -73 -194t-200 -82t-179 59t-52 129q0 33 2 43h88q-8 -73 28 -113t110 -40t131 50q59 50 59 134t-30 120t-108 36h-16l16 75h15q94 -1 139 55t45 131t-34 105t-85 29q-141 0 -180 -148h-86q55 225 268 226
q92 -1 148 -55t55 -146z" />
    <glyph glyph-name="four.dnom" horiz-adv-x="612" 
d="M516 217l-14 -78h-105l-26 -139h-86l28 139h-336l17 78l424 657h96l-426 -657h240l49 248h86l-49 -248h102z" />
    <glyph glyph-name="five.dnom" horiz-adv-x="612" 
d="M514 410q0 -64 -10 -121q-34 -164 -100 -231q-66 -66 -174 -66t-158 52q-49 52 -49 132q0 18 2 33h81v-27q0 -51 29 -82t86 -30q153 0 191 195q16 79 16 118q0 119 -112 119t-162 -88h-74l92 460h424l-16 -77h-344l-54 -275q58 56 150 56t137 -52t45 -116z" />
    <glyph glyph-name="six.dnom" horiz-adv-x="612" 
d="M406 267q0 157 -141 157q-73 0 -117 -65t-44 -137q0 -152 138 -152q70 0 118 61q46 61 46 136zM492 264q0 -110 -74 -190q-74 -82 -182 -82t-163 66q-125 152 38 393l282 423h99l-263 -391q41 12 66 13q93 0 145 -61t52 -171z" />
    <glyph glyph-name="seven.dnom" horiz-adv-x="612" 
d="M629 874l-15 -79l-438 -795h-100l438 795h-287l-28 -146h-88l45 225h473z" />
    <glyph glyph-name="eight.dnom" horiz-adv-x="612" 
d="M184 622q0 -136 134 -135q68 1 117 59q48 58 48 124q0 136 -134 135q-69 -1 -117 -59t-48 -124zM88 222q0 -152 148 -152q74 0 128 58t54 134q0 154 -150 154q-74 0 -126 -60q-54 -58 -54 -134zM352 883q102 -1 160 -55q57 -54 57 -139t-41 -148t-108 -95q84 -61 84 -174
q0 -112 -75 -196t-210 -84q-90 0 -153 54t-64 157q0 182 170 256q-74 55 -74 161t76 184q76 79 178 79z" />
    <glyph glyph-name="nine.dnom" horiz-adv-x="612" 
d="M178 610q0 -154 140 -155q72 0 117 59q44 60 44 132q-1 156 -141 155q-72 1 -116 -59t-44 -132zM348 883q108 -1 163 -65q54 -64 54 -160t-92 -234l-283 -424h-98l262 393q-35 -14 -65 -14q-92 0 -145 60q-52 60 -52 170t74 192t182 82z" />
    <glyph glyph-name="space.frac" horiz-adv-x="98" 
 />
    <glyph glyph-name="zero.osf" 
d="M844 932q0 109 -60 163t-158 54q-100 0 -196 -76t-127 -237l-88 -449q-12 -61 -12 -96q0 -109 59 -163q58 -54 158 -54t196 76t127 237l88 449q13 61 13 96zM942 930q0 -47 -10 -94l-90 -449q-23 -115 -74 -199t-116 -125q-119 -75 -244 -75t-214 74t-90 231q0 47 11 94
l90 449q61 306 314 382q60 17 122 17q123 -1 212 -75t89 -230z" />
    <glyph glyph-name="one.osf" horiz-adv-x="681" 
d="M594 1223l-246 -1223h-98l221 1102l-303 -234l25 129l301 226h100z" />
    <glyph glyph-name="two.osf" horiz-adv-x="954" 
d="M895 963q0 -199 -221 -398l-541 -479h641l-18 -86h-776l16 86l602 532q104 92 150 172t47 186q0 108 -66 161t-147 53q-264 0 -322 -272h-102q44 194 158 276t260 82t233 -80q86 -80 86 -233z" />
    <glyph glyph-name="three.osf" horiz-adv-x="991" 
d="M913 929q-1 -146 -71 -260t-197 -157q168 -57 168 -259q0 -201 -127 -353t-346 -152q-170 0 -252 86t-82 225q0 31 2 50h96q-2 -14 -2 -43q0 -104 62 -168t176 -64q160 0 266 121t107 291q0 219 -248 219h-29l17 86h30q147 0 240 112q92 112 92 269q0 98 -58 158t-168 59
q-110 0 -197 -74t-120 -190h-104q49 174 164 262t264 88t233 -80t84 -226z" />
    <glyph glyph-name="four.osf" horiz-adv-x="1017" 
d="M883 154l-19 -86h-190l-64 -320h-98l63 320h-591l16 86l745 1126h109l-745 -1126h483l90 454h100l-90 -454h191z" />
    <glyph glyph-name="five.osf" horiz-adv-x="983" 
d="M359 -250q-171 0 -245 83t-73 208q0 25 2 45h98q-2 -16 -2 -45q-1 -93 53 -149t152 -56q166 0 247 108t116 298q18 102 18 174q0 221 -199 221t-295 -160h-84l150 746h666l-19 -86h-577l-105 -519q106 104 263 104t229 -82q72 -83 71 -212q0 -84 -20 -186
q-49 -266 -162 -379t-284 -113z" />
    <glyph glyph-name="six.osf" horiz-adv-x="1009" 
d="M801 478q0 148 -69 235q-69 88 -191 88q-168 0 -259 -135q-92 -134 -92 -276t69 -230t192 -88q162 0 256 129t94 277zM547 885q166 1 259 -109t93 -296t-121 -340q-121 -152 -311 -152t-283 111q-92 112 -92 276q0 104 35 198t127 220l514 698h113l-478 -635
q61 29 144 29z" />
    <glyph glyph-name="seven.osf" horiz-adv-x="940" 
d="M1014 1223l-17 -86l-856 -1393h-106l856 1393h-580l-43 -219h-98l59 305h785z" />
    <glyph glyph-name="eight.osf" horiz-adv-x="1024" 
d="M584 799q150 -1 238 111t87 232q0 120 -58 182q-58 60 -163 60q-150 0 -238 -112t-88 -232t58 -180t164 -61zM801 457q0 119 -69 187t-177 67q-162 0 -261 -111t-99 -272q1 -119 69 -187t176 -67q164 0 262 110t99 273zM694 1470q134 0 224 -84t90 -224t-70 -250
t-193 -160q154 -106 154 -290t-112 -325q-118 -149 -364 -149q-128 0 -227 86t-100 250q0 317 299 440q-131 90 -131 246q0 200 123 330t307 130z" />
    <glyph glyph-name="nine.osf" horiz-adv-x="1009" 
d="M868 834q0 142 -68 229q-69 88 -192 88q-162 0 -256 -129q-94 -128 -94 -276t69 -236t191 -88q168 0 259 135t91 277zM967 848q0 -104 -35 -198t-127 -220l-514 -698h-113l477 635q-61 -29 -143 -29q-166 0 -259 110t-93 296t121 338t311 153t282 -111t93 -276z" />
    <glyph glyph-name="zero.lf" 
d="M891 1167q1 109 -59 163t-158 54t-196 -76q-97 -76 -128 -237l-133 -684q-12 -61 -12 -96q0 -109 59 -163t158 -54q100 0 196 77t127 236l134 684q12 61 12 96zM989 1165q0 -47 -10 -94l-135 -684q-49 -258 -239 -351q-93 -48 -206 -48q-114 0 -203 74t-90 231
q0 47 11 94l135 684q49 257 238 351q93 48 207 48t203 -74t89 -231z" />
    <glyph glyph-name="one.lf" horiz-adv-x="727" 
d="M666 1458l-293 -1458h-99l269 1337l-303 -233l24 129l301 225h101z" />
    <glyph glyph-name="two.lf" horiz-adv-x="954" 
d="M969 1147q0 -113 -44 -195t-128 -174l-639 -692h618l-16 -86h-746l19 86l702 766q72 78 103 144q30 66 30 166q0 102 -57 162t-168 60t-198 -70t-119 -220h-103q37 184 150 280t269 96t242 -84q85 -84 85 -239z" />
    <glyph glyph-name="three.lf" horiz-adv-x="987" 
d="M952 1166q0 -146 -70 -260t-198 -156q168 -58 168 -260t-127 -354t-346 -150q-170 0 -252 86t-82 225q0 31 2 49h96q-2 -14 -2 -43q-1 -103 61 -167t177 -64q160 0 266 121t107 290q0 219 -248 219h-29l17 86h30q147 0 240 112q92 112 92 269q0 97 -58 157t-168 60
t-197 -74t-120 -190h-104q49 174 164 262t264 88t233 -80t84 -226z" />
    <glyph glyph-name="four.lf" horiz-adv-x="1011" 
d="M907 332l-18 -86h-191l-49 -246h-98l49 246h-553l16 86l725 1126h109l-723 -1126h442l91 454h100l-90 -454h190z" />
    <glyph glyph-name="five.lf" horiz-adv-x="983" 
d="M590 958q156 0 229 -82q72 -82 72 -212q0 -84 -21 -187q-50 -266 -162 -379q-112 -112 -283 -112t-245 83t-74 207q0 25 3 46h98q-2 -16 -2 -46q0 -92 53 -148t152 -56q166 0 246 108t116 297q18 102 19 174q0 221 -199 221t-295 -159h-84l149 745h666l-18 -86h-578
l-104 -518q106 104 262 104z" />
    <glyph glyph-name="six.lf" horiz-adv-x="958" 
d="M422 74q143 0 228 116t85 247t-61 209q-60 78 -166 79q-106 0 -181 -65q-137 -119 -137 -312q0 -118 62 -196t170 -78zM836 432q0 -178 -120 -311t-287 -133t-252 103t-85 253q0 92 32 175t116 208l487 731h104l-448 -674q66 27 123 27q156 0 243 -100q87 -101 87 -279z
" />
    <glyph glyph-name="seven.lf" horiz-adv-x="940" 
d="M1036 1458l-16 -86l-752 -1372h-108l753 1372h-532l-43 -219h-98l59 305h737z" />
    <glyph glyph-name="eight.lf" horiz-adv-x="1024" 
d="M580 799q150 -1 238 111t87 232q0 120 -58 182q-58 60 -163 60q-150 0 -238 -112t-88 -232t58 -180t164 -61zM797 457q0 119 -69 187t-177 67q-162 0 -261 -111t-100 -272q0 -119 69 -187t177 -67q164 0 262 110t99 273zM690 1470q134 0 224 -84t90 -224t-70 -250
t-193 -160q154 -106 154 -290t-112 -325q-118 -149 -364 -149q-128 0 -228 86q-99 86 -99 250q0 317 299 440q-131 90 -131 246q0 200 123 330t307 130z" />
    <glyph glyph-name="nine.lf" horiz-adv-x="958" 
d="M862 1128q0 100 -61 178q-61 79 -170 78q-143 0 -229 -115q-85 -116 -85 -247q-1 -131 61 -210t168 -79t180 65q76 66 106 148t30 182zM961 1114q0 -92 -32 -175t-116 -208l-487 -731h-105l449 674q-66 -27 -123 -27q-156 1 -243 101t-87 278t120 312q121 132 287 132
t252 -103t85 -253z" />
    <glyph glyph-name="zero.tosf" 
d="M844 932q0 109 -60 163t-158 54q-100 0 -196 -76t-127 -237l-88 -449q-12 -61 -12 -96q0 -109 59 -163q58 -54 158 -54t196 76t127 237l88 449q13 61 13 96zM942 930q0 -47 -10 -94l-90 -449q-23 -115 -74 -199t-116 -125q-119 -75 -244 -75t-214 74t-90 231q0 47 11 94
l90 449q61 306 314 382q60 17 122 17q123 -1 212 -75t89 -230z" />
    <glyph glyph-name="one.tosf" 
d="M748 1223l-246 -1223h-99l222 1102l-303 -234l24 129l301 226h101z" />
    <glyph glyph-name="two.tosf" 
d="M930 963q0 -199 -221 -398l-541 -479h641l-18 -86h-777l17 86l602 532q104 92 150 172t46 186q0 108 -65 161q-66 53 -148 53q-264 0 -321 -272h-102q43 194 157 276t261 82t233 -80t86 -233z" />
    <glyph glyph-name="three.tosf" 
d="M913 929q-1 -146 -71 -260t-197 -157q168 -57 168 -259q0 -201 -127 -353t-346 -152q-170 0 -252 86t-82 225q0 31 2 50h96q-2 -14 -2 -43q0 -104 62 -168t176 -64q160 0 266 121t107 291q0 219 -248 219h-29l17 86h30q147 0 240 112q92 112 92 269q0 98 -58 158t-168 59
q-110 0 -197 -74t-120 -190h-104q49 174 164 262t264 88t233 -80t84 -226z" />
    <glyph glyph-name="four.tosf" 
d="M881 154l-19 -86h-190l-64 -320h-98l63 320h-591l16 86l745 1126h109l-746 -1126h484l90 454h100l-90 -454h191z" />
    <glyph glyph-name="five.tosf" 
d="M357 -250q-171 0 -245 83t-73 208q0 25 2 45h98q-2 -16 -2 -45q0 -93 53 -149t152 -56q166 0 247 108t116 298q18 102 18 174q0 221 -199 221t-295 -160h-84l150 746h666l-19 -86h-577l-105 -519q106 104 263 104t229 -82q72 -83 71 -212q0 -84 -20 -186
q-49 -266 -162 -379t-284 -113z" />
    <glyph glyph-name="six.tosf" 
d="M444 72q162 0 256 129t95 277q0 148 -69 235q-69 88 -191 88q-167 0 -259 -135q-92 -134 -92 -276t69 -230t191 -88zM541 885q166 1 259 -109t93 -296t-121 -340q-121 -152 -311 -152t-283 111q-92 112 -92 276q0 104 35 198t127 220l514 698h112l-477 -635q61 29 144 29
z" />
    <glyph glyph-name="seven.tosf" 
d="M1042 1223l-16 -86l-856 -1393h-107l857 1393h-580l-43 -219h-98l59 305h784z" />
    <glyph glyph-name="eight.tosf" 
d="M571 799q150 -1 238 111t88 232t-58 182q-58 60 -163 60q-150 0 -238 -112t-88 -232t58 -180t163 -61zM788 457q0 119 -68 187t-177 67q-162 0 -261 -111t-100 -272q0 -119 69 -187t177 -67q164 0 262 110t98 273zM995 1162q1 -140 -69 -250t-193 -160q154 -106 154 -290
t-112 -325q-118 -149 -364 -149q-128 0 -228 86q-99 86 -99 250q0 317 299 440q-131 90 -131 246q0 200 123 330t307 130q135 0 224 -84t89 -224z" />
    <glyph glyph-name="nine.tosf" 
d="M862 834q0 142 -68 229q-69 88 -192 88q-162 0 -256 -129q-94 -128 -94 -276t69 -236t191 -88q168 0 259 135t91 277zM961 848q0 -104 -35 -198t-127 -220l-514 -698h-113l477 635q-61 -29 -143 -29q-166 0 -259 110t-93 296t120 338t312 153q190 1 282 -111t93 -276z
" />
    <glyph glyph-name="uni2007.tosf" 
 />
    <glyph glyph-name="hyphen.case" horiz-adv-x="829" 
d="M725 774l-18 -92h-510l18 92h510z" />
    <glyph glyph-name="exclamdown.case" horiz-adv-x="591" 
d="M520 1458l-28 -137h-130l27 137h131zM432 1075l-207 -1075h-108l219 1075h96z" />
    <glyph glyph-name="guillemotleft.case" horiz-adv-x="1026" 
d="M993 1130l-28 -141l-308 -268l205 -268l-24 -125l-308 401zM590 1130l-29 -141l-305 -268l203 -268l-25 -125l-305 401z" />
    <glyph glyph-name="uni00AD.case" horiz-adv-x="829" 
d="M725 774l-18 -92h-510l18 92h510z" />
    <glyph glyph-name="guillemotright.case" horiz-adv-x="1026" 
d="M991 729l-461 -401l29 141l305 268l-202 269l24 124zM590 729l-463 -401l29 141l307 268l-205 269l25 124z" />
    <glyph glyph-name="questiondown.case" horiz-adv-x="952" 
d="M680 1458l-27 -137h-129l25 137h131zM356 -12q-122 0 -206 79t-84 219t139 308l217 256q47 57 61 125l21 102h100l-20 -102q-20 -98 -95 -187l-213 -253q-59 -70 -85 -125q-25 -55 -25 -136q0 -82 54 -140t159 -58t185 70t108 194h102q-32 -160 -142 -256t-276 -96z" />
    <glyph glyph-name="endash.case" 
d="M952 774l-18 -90h-793l17 90h794z" />
    <glyph glyph-name="emdash.case" horiz-adv-x="1697" 
d="M1595 774l-18 -90h-1380l18 90h1380z" />
    <glyph glyph-name="afii00208.case" horiz-adv-x="1697" 
d="M1595 774l-18 -90h-1380l18 90h1380z" />
    <glyph glyph-name="guilsinglleft.case" horiz-adv-x="622" 
d="M590 1130l-29 -141l-305 -268l203 -268l-25 -125l-305 401z" />
    <glyph glyph-name="guilsinglright.case" horiz-adv-x="622" 
d="M588 729l-461 -401l29 141l305 268l-203 269l25 124z" />
    <glyph glyph-name="caroncomma.ss01" horiz-adv-x="505" 
d="M1319 1458l-55 -262l-131 -115l77 377h109z" />
    <glyph glyph-name="commaaccent.ss01" horiz-adv-x="1024" 
d="M518 -236q0 -104 -68 -160t-174 -57h-6l15 72q69 -2 107 37t38 91t-30 78t-68 30l14 71q78 -4 125 -52t47 -110z" />
    <glyph glyph-name="commaturn.ss01" horiz-adv-x="1024" 
d="M614 1304q0 -52 30 -78t69 -30l-15 -72q-78 4 -125 52t-47 110q0 104 70 162t178 55l-14 -71q-68 2 -107 -37t-39 -91z" />
    <glyph glyph-name="exclam.ss01" horiz-adv-x="591" 
d="M319 72q-1 -35 -23 -57q-22 -21 -54 -21t-56 22q-23 22 -22 56q0 34 22 56t56 22q33 0 55 -22t22 -56zM567 1458l-219 -1075h-96l207 1075h108z" />
    <glyph glyph-name="period.ss01" horiz-adv-x="514" 
d="M266 84q0 -37 -26 -64q-26 -26 -64 -26t-64 26t-26 64t27 64t63 26t64 -26q26 -26 26 -64z" />
    <glyph glyph-name="colon.ss01" horiz-adv-x="567" 
d="M322 84q0 -37 -27 -64q-27 -26 -64 -26t-63 26t-27 64q0 38 27 64q28 26 64 26t63 -26t27 -64zM442 698q0 -38 -26 -64t-64 -26t-64 27t-26 63t27 64q27 26 63 26t64 -26q26 -27 26 -64z" />
    <glyph glyph-name="semicolon.ss01" horiz-adv-x="567" 
d="M436 698q0 -38 -26 -64t-64 -26t-64 27t-26 63t27 64q27 26 63 26t64 -26q26 -27 26 -64zM313 139l-55 -278l-160 -140l82 418h133z" />
    <glyph glyph-name="question.ss01" horiz-adv-x="952" 
d="M520 72q0 -35 -22 -57q-22 -21 -56 -21t-56 22t-21 56t23 56t54 22t56 -22q22 -22 22 -56zM690 1470q123 0 207 -78t84 -219q0 -140 -139 -309l-217 -256q-47 -57 -62 -125l-20 -102h-101l21 102q20 98 94 187l213 254q59 70 85 125t26 136q-1 81 -55 139t-158 58
t-186 -70q-81 -70 -107 -194h-103q31 160 142 256t276 96z" />
    <glyph glyph-name="at.ss01" horiz-adv-x="1902" 
d="M1210 674q0 90 -55 140t-148 50t-178 -85t-124 -287q-19 -90 -19 -180t55 -141q55 -50 147 -50t178 86t126 289q18 89 18 178zM1790 645q0 -246 -168 -421t-418 -175h-94l27 125q-102 -137 -260 -137q-127 0 -206 73t-79 222q0 80 16 162q45 252 162 353t254 101
q96 0 156 -43t80 -106l28 137h88l-162 -807q203 0 340 156t138 360q0 275 -184 451t-464 176q-319 0 -544 -230q-226 -230 -226 -565q0 -334 218 -561t569 -227h82l-19 -88h-80q-376 0 -624 253q-248 254 -248 626t255 629t602 257t554 -200t207 -521z" />
    <glyph glyph-name="C.ss01" horiz-adv-x="1159" 
d="M797 1378q-176 0 -305 -135q-62 -66 -98 -169t-86 -352q-50 -250 -50 -366t92 -196t215 -80q184 0 346 156l64 -78q-184 -170 -418 -170q-168 0 -287 100t-118 285q0 113 54 375t92 370t122 195q150 157 378 157t369 -180l-77 -67q-61 79 -127 117t-166 38z" />
    <glyph glyph-name="G.ss01" horiz-adv-x="1261" 
d="M799 1378q-178 0 -307 -135q-62 -66 -98 -169t-86 -352q-50 -250 -50 -366t92 -196t225 -80t262 105q128 105 173 327l28 141h-372l16 92h479l-47 -239q-45 -231 -176 -363q-156 -156 -379 -155q-170 0 -289 100t-118 285q0 113 54 375t92 370t122 195q150 158 381 157
q129 0 218 -50t169 -152l-78 -68q-72 90 -140 134t-171 44z" />
    <glyph glyph-name="a.ss01" horiz-adv-x="1075" 
d="M807 676q1 123 -63 180t-170 57t-201 -96q-96 -96 -142 -323q-20 -109 -20 -183q0 -123 63 -180t169 -57t202 96t141 324q21 108 21 182zM113 315q0 78 18 179q53 281 191 401q119 104 272 104q106 0 173 -48t89 -117l31 153h98l-197 -987h-98l29 139
q-113 -152 -289 -151q-141 0 -229 81t-88 246z" />
    <glyph glyph-name="i.ss01" horiz-adv-x="477" 
d="M492 1394q0 -32 -23 -55t-55 -23t-54 24q-22 22 -22 54t22 54t55 22t55 -22t22 -54zM389 987l-196 -987h-101l197 987h100z" />
    <glyph glyph-name="j.ss01" horiz-adv-x="477" 
d="M492 1394q0 -32 -23 -55t-55 -23t-54 24q-22 22 -22 54t22 54t55 22t55 -22t22 -54zM-131 -471h-84l16 86h62q152 0 184 172l240 1200h100l-242 -1212q-47 -246 -276 -246z" />
    <glyph glyph-name="exclamdown.ss01" horiz-adv-x="591" 
d="M426 915q0 -35 -23 -57t-55 -20q-32 0 -56 22q-22 22 -22 56t23 56t55 22t56 -22q22 -22 22 -57zM338 604l-207 -1075h-108l219 1075h96z" />
    <glyph glyph-name="dieresis.ss01" horiz-adv-x="972" 
d="M975 1292q0 -34 -23 -56q-24 -22 -56 -22t-54 23t-23 55q0 32 23 56q24 22 56 22t54 -22t23 -56zM573 1292q-1 -34 -23 -56t-54 -22t-56 23q-22 23 -22 55t22 56q23 22 56 22t55 -22t22 -56z" />
    <glyph glyph-name="ordfeminine.ss01" horiz-adv-x="911" 
d="M768 1215q0 87 -50 131t-134 43q-84 0 -159 -75t-110 -251q-14 -71 -14 -155t49 -128t132 -43q83 0 161 78t111 248q14 65 14 152zM463 657q-76 0 -152 44q-43 26 -69 82q-27 56 -27 125t14 155q43 227 147 316t224 89q162 0 211 -127l23 117h84l-156 -790h-84l22 106
q-84 -117 -237 -117z" />
    <glyph glyph-name="periodcentered.ss01" horiz-adv-x="514" 
d="M354 532q0 -38 -26 -64t-64 -26t-64 27t-26 63t27 64q27 27 63 27t64 -27q26 -27 26 -64z" />
    <glyph glyph-name="cedilla.ss01" horiz-adv-x="1024" 
d="M518 -236q0 -104 -70 -161t-178 -56l15 72q69 -2 107 37t38 91t-30 78t-68 30l14 71q78 -4 125 -52t47 -110z" />
    <glyph glyph-name="questiondown.ss01" horiz-adv-x="952" 
d="M586 915q0 -35 -23 -57t-55 -20q-32 0 -56 22q-22 22 -22 56t23 56t55 22t56 -22q22 -22 22 -57zM260 -483q-123 0 -207 79q-84 78 -84 218t140 309l217 256q47 57 61 125l21 102h100l-21 -102q-20 -98 -94 -187l-213 -254q-59 -71 -85 -125q-25 -54 -25 -135t54 -139
t158 -59q104 1 186 71q81 70 107 193h103q-32 -160 -142 -256t-276 -96z" />
    <glyph glyph-name="Adieresis.ss01" horiz-adv-x="1171" 
d="M1085 1683q-1 -33 -23 -55t-54 -22t-56 22q-22 22 -22 56q0 32 22 55q23 23 56 23t55 -24q22 -22 22 -55zM684 1683q0 -33 -22 -55t-56 -22t-56 22t-22 56q0 32 23 55t55 23t56 -23q22 -23 22 -56zM874 446l-122 865l-463 -865h585zM1044 0h-108l-51 354h-643l-193 -354
h-117l799 1458h94z" />
    <glyph glyph-name="Ccedilla.ss01" horiz-adv-x="1159" 
d="M649 -236q1 -104 -69 -161t-179 -56l15 72q68 -2 106 37t39 91q0 52 -30 78t-68 30l14 71q78 -4 125 -52t47 -110zM797 1378q-176 0 -305 -135q-62 -66 -98 -169t-86 -352q-50 -250 -50 -366t92 -196t215 -80q184 0 346 156l64 -78q-184 -170 -418 -170q-168 0 -287 100
t-118 285q0 113 54 375t92 370t122 195q150 157 378 157t369 -180l-77 -67q-61 79 -127 117t-166 38z" />
    <glyph glyph-name="Edieresis.ss01" horiz-adv-x="1167" 
d="M1247 1458l-18 -92h-733l-117 -584h629l-19 -92h-629l-120 -598h747l-18 -92h-854l293 1458h839zM1135 1683q0 -33 -23 -55q-24 -22 -56 -22t-55 22t-23 56q0 32 23 55t56 23t55 -24q22 -22 23 -55zM733 1683q-1 -33 -23 -55t-55 -22t-55 22t-22 56q0 32 22 55
q24 23 56 23t55 -23q22 -23 22 -56z" />
    <glyph glyph-name="Idieresis.ss01" horiz-adv-x="532" 
d="M772 1683q0 -33 -22 -55t-56 -22t-56 22t-22 56q0 32 23 55t55 23t56 -23q22 -23 22 -56zM371 1683q0 -33 -23 -55q-24 -22 -56 -22t-54 22t-23 56q0 32 23 55q24 23 56 23t54 -24q22 -22 23 -55zM514 1458l-293 -1458h-106l293 1458h106z" />
    <glyph glyph-name="Odieresis.ss01" horiz-adv-x="1267" 
d="M1135 1683q0 -33 -23 -55q-24 -22 -56 -22t-55 22t-23 56q0 32 23 55t56 23t55 -24q22 -22 23 -55zM733 1683q-1 -33 -23 -55t-55 -22t-55 22t-22 56q0 32 22 55q24 23 56 23t55 -23q22 -23 22 -56zM1096 1079q0 143 -86 221t-207 78q-182 0 -311 -135q-60 -63 -98 -169
t-87 -353q-49 -248 -49 -342q0 -143 86 -221t207 -78q182 0 311 135q59 63 97 169q37 106 87 353q50 248 50 342zM1202 1085q0 -100 -53 -364t-93 -378t-120 -196q-154 -160 -389 -159q-172 0 -284 103t-111 282q0 100 53 364t93 378t120 196q154 160 389 159
q172 0 284 -103q111 -104 111 -282z" />
    <glyph glyph-name="Udieresis.ss01" horiz-adv-x="1339" 
d="M1178 1683q0 -33 -23 -55t-55 -22t-56 22q-22 22 -22 56q0 32 22 55q23 23 56 23q34 0 56 -24q22 -22 22 -55zM776 1683q0 -33 -22 -55t-56 -22t-56 22t-22 56q0 32 23 55t55 23t56 -23q22 -23 22 -56zM575 -12q-153 0 -273 97t-120 292q0 49 15 125l190 956h107
l-195 -971q-10 -55 -10 -108q0 -121 75 -210q74 -89 228 -89t280 106t168 310l191 962h106l-196 -985q-45 -229 -196 -357t-370 -128z" />
    <glyph glyph-name="agrave.ss01" horiz-adv-x="1075" 
d="M674 1196h-107l-145 297h125zM807 676q1 123 -63 180t-170 57t-201 -96q-96 -96 -142 -323q-20 -109 -20 -183q0 -123 63 -180t169 -57t202 96t141 324q21 108 21 182zM113 315q0 78 18 179q53 281 191 401q119 104 272 104q106 0 173 -48t89 -117l31 153h98l-197 -987
h-98l29 139q-113 -152 -289 -151q-141 0 -229 81t-88 246z" />
    <glyph glyph-name="aacute.ss01" horiz-adv-x="1075" 
d="M903 1493l-260 -297h-119l246 297h133zM807 676q1 123 -63 180t-170 57t-201 -96q-96 -96 -142 -323q-20 -109 -20 -183q0 -123 63 -180t169 -57t202 96t141 324q21 108 21 182zM113 315q0 78 18 179q53 281 191 401q119 104 272 104q106 0 173 -48t89 -117l31 153h98
l-197 -987h-98l29 139q-113 -152 -289 -151q-141 0 -229 81t-88 246z" />
    <glyph glyph-name="acircumflex.ss01" horiz-adv-x="1075" 
d="M909 1196h-104l-137 227l-230 -227h-116l299 301h106zM807 676q1 123 -63 180t-170 57t-201 -96q-96 -96 -142 -323q-20 -109 -20 -183q0 -123 63 -180t169 -57t202 96t141 324q21 108 21 182zM113 315q0 78 18 179q53 281 191 401q119 104 272 104q106 0 173 -48
t89 -117l31 153h98l-197 -987h-98l29 139q-113 -152 -289 -151q-141 0 -229 81t-88 246z" />
    <glyph glyph-name="atilde.ss01" horiz-adv-x="1075" 
d="M760 1227q-78 0 -138 46t-109 46q-50 0 -128 -72l-49 62q100 94 178 94t137 -46t109 -46t129 71l49 -61q-100 -94 -178 -94zM807 676q1 123 -63 180t-170 57t-201 -96q-96 -96 -142 -323q-20 -109 -20 -183q0 -123 63 -180t169 -57t202 96t141 324q21 108 21 182z
M113 315q0 78 18 179q53 281 191 401q119 104 272 104q106 0 173 -48t89 -117l31 153h98l-197 -987h-98l29 139q-113 -152 -289 -151q-141 0 -229 81t-88 246z" />
    <glyph glyph-name="adieresis.ss01" horiz-adv-x="1075" 
d="M946 1292q0 -34 -22 -56t-56 -22t-56 23t-22 55t23 56q23 22 55 22t56 -22q22 -23 22 -56zM545 1292q0 -34 -23 -56q-24 -22 -56 -22t-54 23t-23 55q0 32 23 56q24 22 56 22t54 -22t23 -56zM807 676q1 123 -63 180t-170 57t-201 -96q-96 -96 -142 -323q-20 -109 -20 -183
q0 -123 63 -180t169 -57t202 96t141 324q21 108 21 182zM113 315q0 78 18 179q53 281 191 401q119 104 272 104q106 0 173 -48t89 -117l31 153h98l-197 -987h-98l29 139q-113 -152 -289 -151q-141 0 -229 81t-88 246z" />
    <glyph glyph-name="aring.ss01" horiz-adv-x="1075" 
d="M809 1386q0 60 -46 106q-45 46 -107 46t-108 -45t-46 -107t46 -107q46 -46 107 -46t108 46q46 46 46 107zM889 1386q0 -96 -69 -166t-165 -69q-96 0 -165 70q-68 69 -68 165t68 165q69 69 165 69t165 -69t69 -165zM807 676q1 123 -63 180t-170 57t-201 -96
q-96 -96 -142 -323q-20 -109 -20 -183q0 -123 63 -180t169 -57t202 96t141 324q21 108 21 182zM113 315q0 78 18 179q53 281 191 401q119 104 272 104q106 0 173 -48t89 -117l31 153h98l-197 -987h-98l29 139q-113 -152 -289 -151q-141 0 -229 81t-88 246z" />
    <glyph glyph-name="ae.ss01" horiz-adv-x="1683" 
d="M1464 668q0 123 -60 184t-151 61q-260 0 -352 -360h553q10 62 10 115zM813 672q0 125 -64 183q-65 58 -171 58t-203 -93q-98 -93 -144 -326q-20 -113 -20 -179q0 -125 63 -183t169 -58t204 93t144 327q22 108 22 178zM1563 668q0 -76 -23 -195h-653q-14 -82 -15 -145
q0 -115 58 -184t174 -68q160 0 295 123l67 -68q-156 -143 -366 -143t-279 168l-30 -156h-95l31 143q-102 -156 -299 -155q-96 0 -194 55q-167 96 -97 475q47 257 175 369t282 112q203 0 268 -163l31 151h94l-26 -135q67 92 137 120t157 27q150 0 229 -95t79 -236z" />
    <glyph glyph-name="ccedilla.ss01" horiz-adv-x="960" 
d="M518 -236q0 -104 -70 -161t-178 -56l15 72q69 -2 107 37t38 91t-30 78t-68 30l14 71q78 -4 125 -52t47 -110zM614 913q-140 1 -245 -113q-106 -114 -142 -306q-16 -88 -16 -156q0 -133 72 -199t174 -65q145 0 268 129l61 -72q-141 -143 -323 -143t-266 102t-84 254
q0 78 14 150q43 231 172 368q129 138 319 138t293 -152l-73 -60q-84 125 -224 125z" />
    <glyph glyph-name="edieresis.ss01" horiz-adv-x="1021" 
d="M977 1292q0 -34 -23 -56q-24 -22 -56 -22t-54 23t-23 55q0 32 23 56q24 22 56 22t54 -22t23 -56zM575 1292q-1 -34 -23 -56t-54 -22t-56 23q-22 23 -22 55t22 56q23 22 56 22t55 -22t22 -56zM803 668q-1 123 -61 184t-150 61q-260 0 -352 -360h553q10 62 10 115zM901 668
q0 -76 -22 -195h-654q-14 -82 -14 -145q0 -115 57 -184t174 -68q160 0 295 123l68 -68q-156 -143 -367 -143q-154 0 -240 89t-85 249q0 235 106 441q53 103 151 168t236 65t216 -96q78 -95 79 -236z" />
    <glyph glyph-name="idieresis.ss01" horiz-adv-x="477" 
d="M678 1292q0 -34 -23 -56t-55 -22t-56 23q-22 23 -22 55t23 56q23 22 55 22t56 -22q22 -22 22 -56zM276 1292q0 -34 -22 -56t-56 -22q-32 0 -55 23t-23 55t23 56q23 22 56 22t55 -22t22 -56zM387 987l-197 -987h-100l197 987h100z" />
    <glyph glyph-name="odieresis.ss01" horiz-adv-x="1017" 
d="M975 1292q0 -34 -23 -56q-24 -22 -56 -22t-54 23t-23 55q0 32 23 56q24 22 56 22t54 -22t23 -56zM573 1292q-1 -34 -23 -56t-54 -22t-56 23q-22 23 -22 55t22 56q23 22 56 22t55 -22t22 -56zM807 672q-1 123 -63 182t-170 59t-202 -95q-95 -95 -141 -324
q-20 -109 -20 -179q0 -123 62 -182t170 -59t203 95t140 325q21 108 21 178zM905 676q0 -86 -18 -182q-55 -285 -191 -402q-119 -104 -261 -104t-232 79t-90 244q0 86 18 183q55 285 191 401q119 104 261 104q142 -1 232 -79t90 -244z" />
    <glyph glyph-name="divide.ss01" 
d="M666 883q0 -37 -27 -64t-64 -27t-63 28q-26 26 -27 63q0 37 27 63q28 26 64 27q36 -1 63 -27t27 -63zM915 588l-18 -96h-795l21 96h792zM535 197q0 -37 -27 -64t-64 -27q-38 0 -64 27t-26 64t27 63t63 27q36 -1 64 -27q27 -26 27 -63z" />
    <glyph glyph-name="udieresis.ss01" horiz-adv-x="1087" 
d="M1001 1292q-1 -34 -23 -56t-54 -22t-56 23q-22 23 -22 55t22 56q23 22 56 22t55 -22t22 -56zM600 1292q0 -34 -22 -56t-56 -22t-56 23t-22 55t23 56q23 22 55 22t56 -22q22 -23 22 -56zM422 -12q-127 0 -206 77t-79 203q0 43 10 94l125 625h101l-123 -612
q-12 -61 -12 -105q0 -96 56 -146t162 -50t196 77t122 230l121 606h100l-196 -987h-101l23 117q-109 -129 -299 -129z" />
    <glyph glyph-name="ydieresis.ss01" horiz-adv-x="835" 
d="M870 1292q0 -34 -22 -56t-56 -22q-32 0 -55 23t-23 55t23 56q23 22 56 22t55 -22t22 -56zM469 1292q0 -34 -23 -56q-24 -22 -56 -22t-54 23t-23 55q0 32 23 56q24 22 56 22t54 -22t23 -56zM-47 -446h-51l18 86h39q78 0 115 28t82 115l114 219l-145 985h102l115 -862
l449 862h112l-674 -1257q-41 -78 -95 -127t-181 -49z" />
    <glyph glyph-name="amacron.ss01" horiz-adv-x="1075" 
d="M942 1337l-18 -88h-576l19 88h575zM807 676q1 123 -63 180t-170 57t-201 -96q-96 -96 -142 -323q-20 -109 -20 -183q0 -123 63 -180t169 -57t202 96t141 324q21 108 21 182zM113 315q0 78 18 179q53 281 191 401q119 104 272 104q106 0 173 -48t89 -117l31 153h98
l-197 -987h-98l29 139q-113 -152 -289 -151q-141 0 -229 81t-88 246z" />
    <glyph glyph-name="abreve.ss01" horiz-adv-x="1075" 
d="M387 1380q0 20 2 43h90q-2 -20 -2 -39q0 -55 43 -86t123 -30q170 0 209 155h90q-57 -242 -309 -241q-115 0 -181 50t-65 148zM807 676q1 123 -63 180t-170 57t-201 -96q-96 -96 -142 -323q-20 -109 -20 -183q0 -123 63 -180t169 -57t202 96t141 324q21 108 21 182z
M113 315q0 78 18 179q53 281 191 401q119 104 272 104q106 0 173 -48t89 -117l31 153h98l-197 -987h-98l29 139q-113 -152 -289 -151q-141 0 -229 81t-88 246z" />
    <glyph glyph-name="Aogonek.ss01" horiz-adv-x="1171" 
d="M854 -278q0 -52 30 -78t68 -29l-14 -72q-78 4 -125 51t-47 111q0 105 69 161t173 56h6l-15 -72q-69 2 -107 -36q-38 -40 -38 -92zM874 446l-122 865l-463 -865h585zM1044 0h-108l-51 354h-643l-193 -354h-117l799 1458h94z" />
    <glyph glyph-name="aogonek.ss01" horiz-adv-x="1075" 
d="M598 -278q0 -52 30 -78t68 -29l-14 -72q-78 4 -125 51t-47 111q0 105 69 161t173 56h6l-15 -72q-69 2 -107 -36q-38 -40 -38 -92zM807 676q1 123 -63 180t-170 57t-201 -96q-96 -96 -142 -323q-20 -109 -20 -183q0 -123 63 -180t169 -57t202 96t141 324q21 108 21 182z
M113 315q0 78 18 179q53 281 191 401q119 104 272 104q106 0 173 -48t89 -117l31 153h98l-197 -987h-98l29 139q-113 -152 -289 -151q-141 0 -229 81t-88 246z" />
    <glyph glyph-name="Cacute.ss01" horiz-adv-x="1159" 
d="M1112 1882l-260 -297h-119l246 297h133zM797 1378q-176 0 -305 -135q-62 -66 -98 -169t-86 -352q-50 -250 -50 -366t92 -196t215 -80q184 0 346 156l64 -78q-184 -170 -418 -170q-168 0 -287 100t-118 285q0 113 54 375t92 370t122 195q150 157 378 157t369 -180l-77 -67
q-61 79 -127 117t-166 38z" />
    <glyph glyph-name="Ccircumflex.ss01" horiz-adv-x="1159" 
d="M1118 1585h-104l-137 227l-230 -227h-117l299 301h107zM797 1378q-176 0 -305 -135q-62 -66 -98 -169t-86 -352q-50 -250 -50 -366t92 -196t215 -80q184 0 346 156l64 -78q-184 -170 -418 -170q-168 0 -287 100t-118 285q0 113 54 375t92 370t122 195q150 157 378 157
t369 -180l-77 -67q-61 79 -127 117t-166 38z" />
    <glyph glyph-name="Cdotaccent.ss01" horiz-adv-x="1159" 
d="M932 1703q0 -33 -23 -55t-55 -22t-54 23t-22 55t23 54t55 22t54 -22t22 -55zM797 1378q-176 0 -305 -135q-62 -66 -98 -169t-86 -352q-50 -250 -50 -366t92 -196t215 -80q184 0 346 156l64 -78q-184 -170 -418 -170q-168 0 -287 100t-118 285q0 113 54 375t92 370
t122 195q150 157 378 157t369 -180l-77 -67q-61 79 -127 117t-166 38z" />
    <glyph glyph-name="cdotaccent.ss01" horiz-adv-x="960" 
d="M710 1391q32 -1 54 -23t22 -54t-22 -54t-54 -23q-32 0 -55 23q-23 22 -23 54t24 54q22 22 54 23zM614 913q-140 1 -245 -113q-106 -114 -142 -306q-16 -88 -16 -156q0 -133 72 -199t174 -65q145 0 268 129l61 -72q-141 -143 -323 -143t-266 102t-84 254q0 78 14 150
q43 231 172 368q129 138 319 138t293 -152l-73 -60q-84 125 -224 125z" />
    <glyph glyph-name="Ccaron.ss01" horiz-adv-x="1159" 
d="M1161 1886l-299 -301h-106l-183 301h105l137 -227l229 227h117zM797 1378q-176 0 -305 -135q-62 -66 -98 -169t-86 -352q-50 -250 -50 -366t92 -196t215 -80q184 0 346 156l64 -78q-184 -170 -418 -170q-168 0 -287 100t-118 285q0 113 54 375t92 370t122 195
q150 157 378 157t369 -180l-77 -67q-61 79 -127 117t-166 38z" />
    <glyph glyph-name="dcaron.ss01" horiz-adv-x="1050" 
d="M1339 1458l-55 -262l-131 -115l78 377h108zM786 680q0 233 -202 233q-154 -1 -233 -115t-115 -304q-23 -117 -23 -187q0 -233 203 -233q154 0 232 114t108 268t30 224zM403 -12q-289 0 -288 323q0 80 20 183q55 281 167 393t288 112t244 -149l122 608h101l-291 -1458
h-100l26 127q-115 -139 -289 -139z" />
    <glyph glyph-name="Edotaccent.ss01" horiz-adv-x="1167" 
d="M932 1703q0 -33 -23 -55t-55 -22t-54 23t-22 55t23 54t55 22t54 -22t22 -55zM1247 1458l-18 -92h-733l-117 -584h629l-19 -92h-629l-120 -598h747l-18 -92h-854l293 1458h839z" />
    <glyph glyph-name="edotaccent.ss01" horiz-adv-x="1021" 
d="M754 1314q0 -32 -23 -54t-55 -23q-32 0 -54 23q-22 22 -22 54t23 54t55 23q32 -1 54 -23t22 -54zM803 668q-1 123 -61 184t-150 61q-260 0 -352 -360h553q10 62 10 115zM901 668q0 -76 -22 -195h-654q-14 -82 -14 -145q0 -115 57 -184t174 -68q160 0 295 123l68 -68
q-156 -143 -367 -143q-154 0 -240 89t-85 249q0 235 106 441q53 103 151 168t236 65t216 -96q78 -95 79 -236z" />
    <glyph glyph-name="Eogonek.ss01" horiz-adv-x="1167" 
d="M778 -278q0 -52 30 -78t69 -29l-15 -72q-78 4 -125 51t-47 111q0 105 69 161t173 56h6l-14 -72q-68 2 -107 -36q-39 -40 -39 -92zM1247 1458l-18 -92h-733l-117 -584h629l-19 -92h-629l-120 -598h747l-18 -92h-854l293 1458h839z" />
    <glyph glyph-name="eogonek.ss01" horiz-adv-x="1021" 
d="M532 -278q0 -52 30 -78t69 -29l-15 -72q-78 4 -124 51t-48 111q0 105 69 161t173 56h6l-14 -72q-68 2 -107 -36q-39 -40 -39 -92zM803 668q-1 123 -61 184t-150 61q-260 0 -352 -360h553q10 62 10 115zM901 668q0 -76 -22 -195h-654q-14 -82 -14 -145q0 -115 57 -184
t174 -68q160 0 295 123l68 -68q-156 -143 -367 -143q-154 0 -240 89t-85 249q0 235 106 441q53 103 151 168t236 65t216 -96q78 -95 79 -236z" />
    <glyph glyph-name="Gcircumflex.ss01" horiz-adv-x="1261" 
d="M1118 1585h-104l-137 227l-230 -227h-117l299 301h107zM799 1378q-178 0 -307 -135q-62 -66 -98 -169t-86 -352q-50 -250 -50 -366t92 -196t225 -80t262 105q128 105 173 327l28 141h-372l16 92h479l-47 -239q-45 -231 -176 -363q-156 -156 -379 -155q-170 0 -289 100
t-118 285q0 113 54 375t92 370t122 195q150 158 381 157q129 0 218 -50t169 -152l-78 -68q-72 90 -140 134t-171 44z" />
    <glyph glyph-name="Gbreve.ss01" horiz-adv-x="1261" 
d="M842 1583q-114 0 -180 50t-66 149q0 20 2 43h90q-2 -20 -2 -39q0 -55 43 -86t123 -31q170 0 209 156h90q-57 -242 -309 -242zM799 1378q-178 0 -307 -135q-62 -66 -98 -169t-86 -352q-50 -250 -50 -366t92 -196t225 -80t262 105q128 105 173 327l28 141h-372l16 92h479
l-47 -239q-45 -231 -176 -363q-156 -156 -379 -155q-170 0 -289 100t-118 285q0 113 54 375t92 370t122 195q150 158 381 157q129 0 218 -50t169 -152l-78 -68q-72 90 -140 134t-171 44z" />
    <glyph glyph-name="Gdotaccent.ss01" horiz-adv-x="1261" 
d="M932 1703q0 -33 -23 -55t-55 -22t-54 23t-22 55t23 54t55 22t54 -22t22 -55zM799 1378q-178 0 -307 -135q-62 -66 -98 -169t-86 -352q-50 -250 -50 -366t92 -196t225 -80t262 105q128 105 173 327l28 141h-372l16 92h479l-47 -239q-45 -231 -176 -363
q-156 -156 -379 -155q-170 0 -289 100t-118 285q0 113 54 375t92 370t122 195q150 158 381 157q129 0 218 -50t169 -152l-78 -68q-72 90 -140 134t-171 44z" />
    <glyph glyph-name="gdotaccent.ss01" horiz-adv-x="1050" 
d="M665 1391q32 -1 54 -23t22 -54q-1 -32 -23 -54t-54 -23q-32 0 -54 23q-22 22 -22 54t22 54t55 23zM786 682q0 231 -202 231q-270 0 -351 -419q-23 -117 -22 -189q0 -231 203 -231q270 0 350 420q22 116 22 188zM397 -12q-141 0 -213 83t-71 232q0 70 20 191
q51 279 174 401q104 104 268 104q193 0 259 -149l26 137h101l-207 -1036q-27 -135 -82 -227t-126 -134q-121 -73 -249 -73q-182 0 -291 131l74 63q84 -109 213 -109t226 83q97 82 136 266l37 174q-106 -137 -295 -137z" />
    <glyph glyph-name="Gcommaaccent.ss01" horiz-adv-x="1261" 
d="M649 -236q-1 -104 -69 -160t-172 -57h-7l15 72q68 -2 106 37t39 91q0 52 -30 78t-68 30l14 71q78 -4 125 -52t47 -110zM799 1378q-178 0 -307 -135q-62 -66 -98 -169t-86 -352q-50 -250 -50 -366t92 -196t225 -80t262 105q128 105 173 327l28 141h-372l16 92h479
l-47 -239q-45 -231 -176 -363q-156 -156 -379 -155q-170 0 -289 100t-118 285q0 113 54 375t92 370t122 195q150 158 381 157q129 0 218 -50t169 -152l-78 -68q-72 90 -140 134t-171 44z" />
    <glyph glyph-name="gcommaaccent.ss01" horiz-adv-x="1050" 
d="M614 1304q0 -52 30 -78t69 -30l-15 -72q-78 4 -125 52t-47 110q0 104 70 162t178 55l-14 -71q-68 2 -107 -37t-39 -91zM786 682q0 231 -202 231q-270 0 -351 -419q-23 -117 -22 -189q0 -231 203 -231q270 0 350 420q22 116 22 188zM397 -12q-141 0 -213 83t-71 232
q0 70 20 191q51 279 174 401q104 104 268 104q193 0 259 -149l26 137h101l-207 -1036q-27 -135 -82 -227t-126 -134q-121 -73 -249 -73q-182 0 -291 131l74 63q84 -109 213 -109t226 83q97 82 136 266l37 174q-106 -137 -295 -137z" />
    <glyph glyph-name="Iogonek.ss01" horiz-adv-x="532" 
d="M72 -278q0 -52 30 -78t68 -29l-14 -72q-78 4 -125 51t-47 111q0 104 68 161q69 56 173 56h6l-14 -72q-69 2 -107 -36q-38 -40 -38 -92zM514 1458l-293 -1458h-106l293 1458h106z" />
    <glyph glyph-name="iogonek.ss01" horiz-adv-x="477" 
d="M43 -278q0 -52 30 -78t68 -29l-14 -72q-78 4 -125 51t-47 111q0 105 69 161t173 56h6l-15 -72q-68 2 -106 -36q-38 -40 -39 -92zM492 1394q0 -32 -23 -55t-55 -23t-54 24q-22 22 -22 54t22 54t55 22t55 -22t22 -54zM389 987l-196 -987h-101l197 987h100z" />
    <glyph glyph-name="Idotaccent.ss01" horiz-adv-x="532" 
d="M588 1703q0 -33 -23 -55t-55 -22t-54 23t-22 55t23 54t55 22t54 -22t22 -55zM514 1458l-293 -1458h-106l293 1458h106z" />
    <glyph glyph-name="ij.ss01" horiz-adv-x="954" 
d="M815 1394q0 32 23 54q22 22 54 22t54 -22t23 -54q0 -32 -23 -55q-22 -23 -54 -23t-54 24q-22 22 -23 54zM346 -471h-84l17 86h61q152 0 184 172l240 1200h100l-241 -1212q-47 -246 -277 -246zM489 1394q-1 -32 -23 -55t-54 -23t-54 24q-22 22 -22 54t22 54t55 22
q32 0 54 -22t22 -54zM387 987l-197 -987h-100l197 987h100z" />
    <glyph glyph-name="Kcommaaccent.ss01" horiz-adv-x="1261" 
d="M668 -236q0 -104 -69 -160t-173 -57h-6l14 72q68 -2 107 37t39 91t-30 78t-69 30l15 71q78 -4 125 -52t47 -110zM1341 1458l-540 -559l336 -899h-115l-301 823l-420 -426l-80 -397h-106l293 1458h106l-180 -899l872 899h135z" />
    <glyph glyph-name="kcommaaccent.ss01" horiz-adv-x="1032" 
d="M532 -236q0 -104 -68 -160t-173 -57h-6l14 72q68 -2 107 37q38 39 38 91t-29 78q-30 26 -69 30l14 71q78 -4 125 -52t47 -110zM983 987l-385 -373l266 -614h-114l-232 549l-270 -260l-58 -289h-100l291 1458h100l-202 -1020l569 549h135z" />
    <glyph glyph-name="Lcommaaccent.ss01" horiz-adv-x="1116" 
d="M580 -236q0 -104 -69 -160t-173 -57h-6l14 72q68 -2 107 37t39 91t-30 78t-69 30l15 71q78 -4 125 -52t47 -110zM979 92l-18 -92h-846l293 1458h106l-274 -1366h739z" />
    </font>
</defs>
</svg>
